Muli-500-B.ufo
<glyph name="exclam" format="1">
  <advance width="617.300"/>
  <unicode hex="0021"/>
  <outline>
    <contour>
      <point x="228" y="0" type="line"/>
      <point x="421" y="0" type="line"/>
      <point x="421" y="235" type="line"/>
      <point x="228" y="235" type="line"/>
    </contour>
    <contour>
      <point x="262" y="380" type="line"/>
      <point x="383" y="380" type="line"/>
      <point x="444" y="1456" type="line"/>
      <point x="201" y="1456" type="line"/>
    </contour>
  </outline>
</glyph>
<glyph name="quotedbl" format="1">
  <advance width="762.250"/>
  <unicode hex="0022"/>
  <outline>
    <contour>
      <point x="163" y="961" type="line"/>
      <point x="288" y="961" type="line"/>
      <point x="326" y="1456" type="line"/>
      <point x="117" y="1456" type="line"/>
    </contour>
    <contour>
      <point x="483" y="961" type="line"/>
      <point x="609" y="961" type="line"/>
      <point x="646" y="1456" type="line"/>
      <point x="437" y="1456" type="line"/>
    </contour>
  </outline>
</glyph>
<glyph name="numbersign" format="1">
  <advance width="1276.450"/>
  <unicode hex="0023"/>
  <outline>
    <contour>
      <point x="223" y="25" type="line"/>
      <point x="389" y="25" type="line"/>
      <point x="475" y="467" type="line"/>
      <point x="700" y="467" type="line"/>
      <point x="615" y="25" type="line"/>
      <point x="780" y="25" type="line"/>
      <point x="867" y="467" type="line"/>
      <point x="1135" y="467" type="line"/>
      <point x="1146" y="609" type="line"/>
      <point x="894" y="609" type="line"/>
      <point x="946" y="878" type="line"/>
      <point x="1194" y="878" type="line"/>
      <point x="1204" y="1020" type="line"/>
      <point x="973" y="1020" type="line"/>
      <point x="1055" y="1441" type="line"/>
      <point x="888" y="1441" type="line"/>
      <point x="808" y="1020" type="line"/>
      <point x="582" y="1020" type="line"/>
      <point x="664" y="1441" type="line"/>
      <point x="497" y="1441" type="line"/>
      <point x="416" y="1020" type="line"/>
      <point x="136" y="1020" type="line"/>
      <point x="124" y="878" type="line"/>
      <point x="388" y="878" type="line"/>
      <point x="337" y="609" type="line"/>
      <point x="76" y="609" type="line"/>
      <point x="65" y="467" type="line"/>
      <point x="310" y="467" type="line"/>
    </contour>
    <contour>
      <point x="501" y="609" type="line"/>
      <point x="555" y="878" type="line"/>
      <point x="780" y="878" type="line"/>
      <point x="728" y="609" type="line"/>
    </contour>
  </outline>
</glyph>
<glyph name="percent" format="1">
  <advance width="1805.050"/>
  <unicode hex="0025"/>
  <outline>
    <contour>
      <point x="444" y="864" type="curve" smooth="yes"/>
      <point x="320" y="864"/>
      <point x="270" y="952"/>
      <point x="270" y="1104" type="curve" smooth="yes"/>
      <point x="270" y="1248"/>
      <point x="316" y="1346"/>
      <point x="445" y="1346" type="curve" smooth="yes"/>
      <point x="572" y="1346"/>
      <point x="618" y="1252"/>
      <point x="618" y="1106" type="curve" smooth="yes"/>
      <point x="618" y="956"/>
      <point x="568" y="864"/>
    </contour>
    <contour>
      <point x="443" y="730" type="curve" smooth="yes"/>
      <point x="665" y="730"/>
      <point x="795" y="882"/>
      <point x="795" y="1105" type="curve" smooth="yes"/>
      <point x="795" y="1326"/>
      <point x="670" y="1480"/>
      <point x="445" y="1480" type="curve" smooth="yes"/>
      <point x="222" y="1480"/>
      <point x="93" y="1322"/>
      <point x="93" y="1104" type="curve" smooth="yes"/>
      <point x="93" y="879"/>
      <point x="219" y="730"/>
    </contour>
    <contour>
      <point x="361" y="0" type="line"/>
      <point x="534" y="0" type="line"/>
      <point x="1457" y="1456" type="line"/>
      <point x="1283" y="1456" type="line"/>
    </contour>
    <contour>
      <point x="1362" y="111" type="curve" smooth="yes"/>
      <point x="1238" y="111"/>
      <point x="1188" y="198"/>
      <point x="1188" y="350" type="curve" smooth="yes"/>
      <point x="1188" y="494"/>
      <point x="1233" y="593"/>
      <point x="1363" y="593" type="curve" smooth="yes"/>
      <point x="1491" y="593"/>
      <point x="1536" y="499"/>
      <point x="1536" y="352" type="curve" smooth="yes"/>
      <point x="1536" y="203"/>
      <point x="1486" y="111"/>
    </contour>
    <contour>
      <point x="1360" y="-24" type="curve" smooth="yes"/>
      <point x="1582" y="-24"/>
      <point x="1712" y="140"/>
      <point x="1712" y="352" type="curve" smooth="yes"/>
      <point x="1712" y="561"/>
      <point x="1588" y="727"/>
      <point x="1363" y="727" type="curve" smooth="yes"/>
      <point x="1140" y="727"/>
      <point x="1011" y="558"/>
      <point x="1011" y="351" type="curve" smooth="yes"/>
      <point x="1011" y="138"/>
      <point x="1138" y="-24"/>
    </contour>
  </outline>
</glyph>
<glyph name="ampersand" format="1">
  <advance width="1552.300"/>
  <unicode hex="0026"/>
  <outline>
    <contour>
      <point x="629" y="-25" type="curve" smooth="yes"/>
      <point x="822" y="-25"/>
      <point x="968" y="60"/>
      <point x="1075" y="168" type="curve"/>
      <point x="1147" y="93"/>
      <point x="1244" y="8"/>
      <point x="1370" y="-12" type="curve"/>
      <point x="1505" y="109" type="line"/>
      <point x="1380" y="142"/>
      <point x="1266" y="221"/>
      <point x="1192" y="297" type="curve"/>
      <point x="1299" y="454"/>
      <point x="1365" y="677"/>
      <point x="1369" y="881" type="curve"/>
      <point x="1179" y="916" type="line"/>
      <point x="1179" y="748"/>
      <point x="1137" y="575"/>
      <point x="1060" y="442" type="curve"/>
      <point x="721" y="813" type="line"/>
      <point x="861" y="900"/>
      <point x="987" y="1024"/>
      <point x="987" y="1178" type="curve" smooth="yes"/>
      <point x="987" y="1381"/>
      <point x="809" y="1474"/>
      <point x="631" y="1474" type="curve" smooth="yes"/>
      <point x="443" y="1474"/>
      <point x="288" y="1372"/>
      <point x="288" y="1172" type="curve" smooth="yes"/>
      <point x="288" y="1043"/>
      <point x="354" y="953"/>
      <point x="448" y="849" type="curve"/>
      <point x="278" y="748"/>
      <point x="124" y="633"/>
      <point x="124" y="415" type="curve" smooth="yes"/>
      <point x="124" y="138"/>
      <point x="343" y="-25"/>
    </contour>
    <contour>
      <point x="628" y="154" type="curve" smooth="yes"/>
      <point x="454" y="154"/>
      <point x="333" y="263"/>
      <point x="333" y="416" type="curve" smooth="yes"/>
      <point x="333" y="570"/>
      <point x="439" y="649"/>
      <point x="563" y="719" type="curve"/>
      <point x="954" y="300" type="line"/>
      <point x="870" y="215"/>
      <point x="774" y="154"/>
    </contour>
    <contour>
      <point x="601" y="933" type="curve"/>
      <point x="529" y="1005"/>
      <point x="488" y="1080"/>
      <point x="488" y="1167" type="curve" smooth="yes"/>
      <point x="488" y="1261"/>
      <point x="554" y="1307"/>
      <point x="639" y="1307" type="curve" smooth="yes"/>
      <point x="708" y="1307"/>
      <point x="788" y="1269"/>
      <point x="788" y="1168" type="curve" smooth="yes"/>
      <point x="788" y="1071"/>
      <point x="697" y="993"/>
    </contour>
  </outline>
</glyph>
<glyph name="quotesingle" format="1">
  <advance width="500.700"/>
  <unicode hex="0027"/>
  <outline>
    <contour>
      <point x="190" y="938" type="line"/>
      <point x="339" y="938" type="line"/>
      <point x="369" y="1456" type="line"/>
      <point x="151" y="1456" type="line"/>
    </contour>
  </outline>
</glyph>
<glyph name="parenleft" format="1">
  <advance width="653"/>
  <unicode hex="0028"/>
  <outline>
    <contour>
      <point x="410" y="-172" type="curve"/>
      <point x="604" y="-172" type="line"/>
      <point x="445" y="82"/>
      <point x="337" y="395"/>
      <point x="337" y="664" type="curve" smooth="yes"/>
      <point x="337" y="954"/>
      <point x="434" y="1248"/>
      <point x="604" y="1516" type="curve"/>
      <point x="404" y="1516" type="line"/>
      <point x="238" y="1252"/>
      <point x="131" y="975"/>
      <point x="131" y="664" type="curve" smooth="yes"/>
      <point x="131" y="367"/>
      <point x="252" y="68"/>
    </contour>
  </outline>
</glyph>
<glyph name="asterisk" format="1">
  <advance width="1092.300"/>
  <unicode hex="002A"/>
  <outline>
    <contour>
      <point x="703" y="689" type="line"/>
      <point x="858" y="789" type="line"/>
      <point x="651" y="1030" type="line"/>
      <point x="920" y="1125" type="line"/>
      <point x="847" y="1279" type="line"/>
      <point x="608" y="1157" type="line"/>
      <point x="629" y="1456" type="line"/>
      <point x="438" y="1456" type="line"/>
      <point x="468" y="1157" type="line"/>
      <point x="218" y="1279" type="line"/>
      <point x="153" y="1125" type="line"/>
      <point x="426" y="1030" type="line"/>
      <point x="224" y="794" type="line"/>
      <point x="377" y="692" type="line"/>
      <point x="539" y="947" type="line"/>
    </contour>
  </outline>
</glyph>
<glyph name="plus" format="1">
  <advance width="1223.150"/>
  <unicode hex="002B"/>
  <outline>
    <contour>
      <point x="515" y="95" type="line"/>
      <point x="707" y="95" type="line"/>
      <point x="707" y="502" type="line"/>
      <point x="1091" y="502" type="line"/>
      <point x="1091" y="675" type="line"/>
      <point x="707" y="675" type="line"/>
      <point x="707" y="1074" type="line"/>
      <point x="516" y="1074" type="line"/>
      <point x="516" y="675" type="line"/>
      <point x="133" y="675" type="line"/>
      <point x="133" y="502" type="line"/>
      <point x="515" y="502" type="line"/>
    </contour>
  </outline>
</glyph>
<glyph name="comma" format="1">
  <advance width="506.050"/>
  <unicode hex="002C"/>
  <outline>
    <contour>
      <point x="65" y="-267" type="line"/>
      <point x="236" y="-267" type="line"/>
      <point x="407" y="237" type="line"/>
      <point x="175" y="237" type="line"/>
    </contour>
  </outline>
</glyph>
<glyph name="hyphen" format="1">
  <advance width="699.750"/>
  <unicode hex="002D"/>
  <outline>
    <contour>
      <point x="60" y="477" type="line"/>
      <point x="640" y="477" type="line"/>
      <point x="640" y="636" type="line"/>
      <point x="60" y="636" type="line"/>
    </contour>
    <contour>
      <point x="353" y="552" type="move" name="_mid"/>
    </contour>
  </outline>
</glyph>
<glyph name="slash" format="1">
  <advance width="954.050"/>
  <unicode hex="002F"/>
  <outline>
    <contour>
      <point x="121" y="0" type="line"/>
      <point x="309" y="0" type="line"/>
      <point x="869" y="1456" type="line"/>
      <point x="676" y="1456" type="line"/>
    </contour>
  </outline>
</glyph>
<glyph name="zero" format="1">
  <advance width="1244.500"/>
  <unicode hex="0030"/>
  <outline>
    <contour>
      <point x="629" y="158" type="curve" smooth="yes"/>
      <point x="416" y="158"/>
      <point x="342" y="404"/>
      <point x="342" y="735" type="curve" smooth="yes"/>
      <point x="342" y="1045"/>
      <point x="415" y="1302"/>
      <point x="628" y="1302" type="curve" smooth="yes"/>
      <point x="835" y="1302"/>
      <point x="900" y="1045"/>
      <point x="900" y="734" type="curve" smooth="yes"/>
      <point x="900" y="404"/>
      <point x="835" y="158"/>
    </contour>
    <contour>
      <point x="625" y="-22" type="curve" smooth="yes"/>
      <point x="960" y="-22"/>
      <point x="1121" y="287"/>
      <point x="1121" y="734" type="curve" smooth="yes"/>
      <point x="1121" y="1192"/>
      <point x="960" y="1482"/>
      <point x="627" y="1482" type="curve" smooth="yes"/>
      <point x="295" y="1482"/>
      <point x="124" y="1201"/>
      <point x="124" y="735" type="curve" smooth="yes"/>
      <point x="124" y="287"/>
      <point x="296" y="-22"/>
    </contour>
  </outline>
</glyph>
<glyph name="one" format="1">
  <advance width="1244.500"/>
  <unicode hex="0031"/>
  <outline>
    <contour>
      <point x="286" y="0" type="line"/>
      <point x="1039" y="0" type="line"/>
      <point x="1039" y="166" type="line"/>
      <point x="776" y="166" type="line"/>
      <point x="776" y="1456" type="line"/>
      <point x="601" y="1456" type="line"/>
      <point x="512" y="1404"/>
      <point x="373" y="1337"/>
      <point x="269" y="1301" type="curve"/>
      <point x="269" y="1109" type="line"/>
      <point x="377" y="1147"/>
      <point x="485" y="1191"/>
      <point x="564" y="1232" type="curve"/>
      <point x="564" y="166" type="line"/>
      <point x="286" y="166" type="line"/>
    </contour>
  </outline>
</glyph>
<glyph name="two" format="1">
  <advance width="1244.500"/>
  <unicode hex="0032"/>
  <outline>
    <contour>
      <point x="207" y="0" type="line"/>
      <point x="1047" y="0" type="line"/>
      <point x="1047" y="176" type="line"/>
      <point x="465" y="176" type="line"/>
      <point x="759" y="479" type="line" smooth="yes"/>
      <point x="947" y="673"/>
      <point x="1059" y="841"/>
      <point x="1053" y="1053" type="curve" smooth="yes"/>
      <point x="1046" y="1312"/>
      <point x="857" y="1482"/>
      <point x="603" y="1482" type="curve" smooth="yes"/>
      <point x="333" y="1482"/>
      <point x="158" y="1340"/>
      <point x="158" y="1340" type="curve"/>
      <point x="226" y="1174" type="line"/>
      <point x="227" y="1174"/>
      <point x="391" y="1302"/>
      <point x="588" y="1302" type="curve" smooth="yes"/>
      <point x="735" y="1302"/>
      <point x="838" y="1204"/>
      <point x="845" y="1050" type="curve" smooth="yes"/>
      <point x="853" y="909"/>
      <point x="800" y="781"/>
      <point x="638" y="613" type="curve" smooth="yes"/>
      <point x="207" y="165" type="line"/>
    </contour>
  </outline>
</glyph>
<glyph name="three" format="1">
  <advance width="1244.500"/>
  <unicode hex="0033"/>
  <outline>
    <contour>
      <point x="593" y="-22" type="curve" smooth="yes"/>
      <point x="863" y="-22"/>
      <point x="1085" y="138"/>
      <point x="1085" y="406" type="curve" smooth="yes"/>
      <point x="1085" y="590"/>
      <point x="974" y="728"/>
      <point x="783" y="766" type="curve"/>
      <point x="962" y="805"/>
      <point x="1050" y="944"/>
      <point x="1050" y="1107" type="curve" smooth="yes"/>
      <point x="1050" y="1356"/>
      <point x="822" y="1482"/>
      <point x="590" y="1482" type="curve" smooth="yes"/>
      <point x="384" y="1482"/>
      <point x="258" y="1431"/>
      <point x="139" y="1325" type="curve"/>
      <point x="235" y="1180" type="line"/>
      <point x="296" y="1229"/>
      <point x="398" y="1302"/>
      <point x="563" y="1302" type="curve" smooth="yes"/>
      <point x="702" y="1302"/>
      <point x="839" y="1238"/>
      <point x="839" y="1104" type="curve" smooth="yes"/>
      <point x="839" y="910"/>
      <point x="715" y="851"/>
      <point x="475" y="851" type="curve" smooth="yes"/>
      <point x="409" y="851" type="line"/>
      <point x="411" y="671" type="line"/>
      <point x="480" y="673" type="line" smooth="yes"/>
      <point x="720" y="676"/>
      <point x="876" y="599"/>
      <point x="876" y="414" type="curve" smooth="yes"/>
      <point x="876" y="255"/>
      <point x="757" y="158"/>
      <point x="572" y="158" type="curve" smooth="yes"/>
      <point x="408" y="158"/>
      <point x="262" y="237"/>
      <point x="236" y="250" type="curve"/>
      <point x="175" y="87" type="line"/>
      <point x="183" y="82"/>
      <point x="343" y="-22"/>
    </contour>
  </outline>
</glyph>
<glyph name="four" format="1">
  <advance width="1244.500"/>
  <unicode hex="0034"/>
  <outline>
    <contour>
      <point x="748" y="0" type="line"/>
      <point x="950" y="0" type="line"/>
      <point x="950" y="384" type="line"/>
      <point x="1171" y="384" type="line"/>
      <point x="1171" y="537" type="line"/>
      <point x="950" y="537" type="line"/>
      <point x="950" y="1456" type="line"/>
      <point x="702" y="1456" type="line"/>
      <point x="106" y="522" type="line"/>
      <point x="106" y="384" type="line"/>
      <point x="748" y="384" type="line"/>
    </contour>
    <contour>
      <point x="326" y="537" type="line"/>
      <point x="618" y="1019" type="line"/>
      <point x="748" y="1243" type="line"/>
      <point x="748" y="537" type="line"/>
    </contour>
  </outline>
</glyph>
<glyph name="five" format="1">
  <advance width="1244.500"/>
  <unicode hex="0035"/>
  <outline>
    <contour>
      <point x="614" y="-23" type="curve" smooth="yes"/>
      <point x="905" y="-23"/>
      <point x="1120" y="168"/>
      <point x="1120" y="470" type="curve" smooth="yes"/>
      <point x="1120" y="743"/>
      <point x="942" y="952"/>
      <point x="687" y="952" type="curve" smooth="yes"/>
      <point x="589" y="952"/>
      <point x="488" y="924"/>
      <point x="428" y="856" type="curve"/>
      <point x="441" y="1274" type="line"/>
      <point x="1040" y="1274" type="line"/>
      <point x="1040" y="1456" type="line"/>
      <point x="247" y="1456" type="line"/>
      <point x="247" y="694" type="line"/>
      <point x="451" y="677" type="line"/>
      <point x="490" y="735"/>
      <point x="580" y="764"/>
      <point x="660" y="764" type="curve" smooth="yes"/>
      <point x="818" y="764"/>
      <point x="902" y="628"/>
      <point x="902" y="474" type="curve" smooth="yes"/>
      <point x="902" y="286"/>
      <point x="790" y="159"/>
      <point x="610" y="159" type="curve" smooth="yes"/>
      <point x="494" y="159"/>
      <point x="367" y="203"/>
      <point x="269" y="315" type="curve"/>
      <point x="164" y="157" type="line"/>
      <point x="286" y="31"/>
      <point x="452" y="-23"/>
    </contour>
  </outline>
</glyph>
<glyph name="six" format="1">
  <advance width="1244.500"/>
  <unicode hex="0036"/>
  <outline>
    <contour>
      <point x="666" y="-22" type="curve" smooth="yes"/>
      <point x="966" y="-22"/>
      <point x="1151" y="190"/>
      <point x="1151" y="470" type="curve" smooth="yes"/>
      <point x="1151" y="762"/>
      <point x="964" y="948"/>
      <point x="698" y="948" type="curve" smooth="yes"/>
      <point x="546" y="948"/>
      <point x="438" y="881"/>
      <point x="366" y="774" type="curve"/>
      <point x="367" y="796"/>
      <point x="367" y="818"/>
      <point x="369" y="840" type="curve" smooth="yes"/>
      <point x="391" y="1093"/>
      <point x="507" y="1302"/>
      <point x="720" y="1302" type="curve" smooth="yes"/>
      <point x="826" y="1302"/>
      <point x="921" y="1268"/>
      <point x="998" y="1207" type="curve"/>
      <point x="1069" y="1363" type="line"/>
      <point x="986" y="1437"/>
      <point x="864" y="1482"/>
      <point x="718" y="1482" type="curve" smooth="yes"/>
      <point x="336" y="1482"/>
      <point x="144" y="1127"/>
      <point x="144" y="695" type="curve" smooth="yes"/>
      <point x="144" y="268"/>
      <point x="312" y="-22"/>
    </contour>
    <contour>
      <point x="666" y="158" type="curve" smooth="yes"/>
      <point x="499" y="158"/>
      <point x="382" y="283"/>
      <point x="382" y="491" type="curve" smooth="yes"/>
      <point x="382" y="655"/>
      <point x="498" y="774"/>
      <point x="668" y="774" type="curve" smooth="yes"/>
      <point x="845" y="774"/>
      <point x="932" y="640"/>
      <point x="932" y="466" type="curve" smooth="yes"/>
      <point x="932" y="291"/>
      <point x="832" y="158"/>
    </contour>
  </outline>
</glyph>
<glyph name="seven" format="1">
  <advance width="1244.500"/>
  <unicode hex="0037"/>
  <outline>
    <contour>
      <point x="344" y="0" type="line"/>
      <point x="572" y="0" type="line"/>
      <point x="1102" y="1296" type="line"/>
      <point x="1102" y="1456" type="line"/>
      <point x="166" y="1456" type="line"/>
      <point x="166" y="1280" type="line"/>
      <point x="860" y="1280" type="line"/>
    </contour>
  </outline>
</glyph>
<glyph name="eight" format="1">
  <advance width="1245.200"/>
  <unicode hex="0038"/>
  <outline>
    <contour>
      <point x="629" y="-22" type="curve" smooth="yes"/>
      <point x="883" y="-22"/>
      <point x="1113" y="120"/>
      <point x="1113" y="380" type="curve" smooth="yes"/>
      <point x="1113" y="552"/>
      <point x="996" y="696"/>
      <point x="829" y="762" type="curve"/>
      <point x="979" y="822"/>
      <point x="1081" y="937"/>
      <point x="1081" y="1101" type="curve" smooth="yes"/>
      <point x="1081" y="1340"/>
      <point x="893" y="1482"/>
      <point x="626" y="1482" type="curve" smooth="yes"/>
      <point x="370" y="1482"/>
      <point x="174" y="1343"/>
      <point x="174" y="1106" type="curve" smooth="yes"/>
      <point x="174" y="942"/>
      <point x="280" y="828"/>
      <point x="428" y="763" type="curve"/>
      <point x="253" y="695"/>
      <point x="142" y="559"/>
      <point x="142" y="385" type="curve" smooth="yes"/>
      <point x="142" y="124"/>
      <point x="363" y="-22"/>
    </contour>
    <contour>
      <point x="627" y="146" type="curve" smooth="yes"/>
      <point x="466" y="146"/>
      <point x="352" y="230"/>
      <point x="352" y="384" type="curve" smooth="yes"/>
      <point x="352" y="533"/>
      <point x="472" y="644"/>
      <point x="630" y="678" type="curve"/>
      <point x="785" y="643"/>
      <point x="905" y="525"/>
      <point x="905" y="386" type="curve" smooth="yes"/>
      <point x="905" y="225"/>
      <point x="789" y="146"/>
    </contour>
    <contour>
      <point x="627" y="848" type="curve"/>
      <point x="474" y="883"/>
      <point x="379" y="981"/>
      <point x="379" y="1110" type="curve" smooth="yes"/>
      <point x="379" y="1248"/>
      <point x="491" y="1316"/>
      <point x="627" y="1316" type="curve" smooth="yes"/>
      <point x="759" y="1316"/>
      <point x="875" y="1245"/>
      <point x="875" y="1115" type="curve" smooth="yes"/>
      <point x="875" y="982"/>
      <point x="780" y="885"/>
    </contour>
  </outline>
</glyph>
<glyph name="nine" format="1">
  <advance width="1244.500"/>
  <unicode hex="0039"/>
  <outline>
    <contour>
      <point x="566" y="-22" type="curve" smooth="yes"/>
      <point x="894" y="-22"/>
      <point x="1108" y="253"/>
      <point x="1108" y="772" type="curve" smooth="yes"/>
      <point x="1108" y="1236"/>
      <point x="938" y="1482"/>
      <point x="616" y="1482" type="curve" smooth="yes"/>
      <point x="315" y="1482"/>
      <point x="133" y="1272"/>
      <point x="133" y="998" type="curve" smooth="yes"/>
      <point x="133" y="723"/>
      <point x="303" y="531"/>
      <point x="582" y="531" type="curve" smooth="yes"/>
      <point x="717" y="531"/>
      <point x="831" y="575"/>
      <point x="897" y="689" type="curve"/>
      <point x="897" y="643" type="line" smooth="yes"/>
      <point x="897" y="313"/>
      <point x="751" y="158"/>
      <point x="550" y="158" type="curve" smooth="yes"/>
      <point x="461" y="158"/>
      <point x="371" y="183"/>
      <point x="274" y="240" type="curve"/>
      <point x="203" y="70" type="line"/>
      <point x="336" y="3"/>
      <point x="453" y="-22"/>
    </contour>
    <contour>
      <point x="607" y="707" type="curve" smooth="yes"/>
      <point x="424" y="707"/>
      <point x="348" y="836"/>
      <point x="348" y="1003" type="curve" smooth="yes"/>
      <point x="348" y="1176"/>
      <point x="448" y="1302"/>
      <point x="617" y="1302" type="curve" smooth="yes"/>
      <point x="796" y="1302"/>
      <point x="888" y="1158"/>
      <point x="888" y="1003" type="curve" smooth="yes"/>
      <point x="888" y="813"/>
      <point x="771" y="707"/>
    </contour>
  </outline>
</glyph>
<glyph name="colon" format="1">
  <advance width="556.950"/>
  <unicode hex="003A"/>
  <outline>
    <contour>
      <point x="176" y="0" type="line"/>
      <point x="410" y="0" type="line"/>
      <point x="410" y="240" type="line"/>
      <point x="176" y="240" type="line"/>
    </contour>
    <contour>
      <point x="176" y="826" type="line"/>
      <point x="410" y="826" type="line"/>
      <point x="410" y="1066" type="line"/>
      <point x="176" y="1066" type="line"/>
    </contour>
  </outline>
</glyph>
<glyph name="semicolon" format="1">
  <advance width="541.950"/>
  <unicode hex="003B"/>
  <outline>
    <contour>
      <point x="88" y="-267" type="line"/>
      <point x="258" y="-267" type="line"/>
      <point x="429" y="237" type="line"/>
      <point x="196" y="237" type="line"/>
    </contour>
    <contour>
      <point x="176" y="826" type="line"/>
      <point x="410" y="826" type="line"/>
      <point x="410" y="1066" type="line"/>
      <point x="176" y="1066" type="line"/>
    </contour>
  </outline>
</glyph>
<glyph name="less" format="1">
  <advance width="1308.300"/>
  <unicode hex="003C"/>
  <outline>
    <contour>
      <point x="1091" y="57" type="line"/>
      <point x="1091" y="245" type="line"/>
      <point x="384" y="576" type="line"/>
      <point x="1095" y="896" type="line"/>
      <point x="1095" y="1086" type="line"/>
      <point x="120" y="628" type="line"/>
      <point x="120" y="526" type="line"/>
    </contour>
  </outline>
</glyph>
<glyph name="equal" format="1">
  <advance width="1352"/>
  <unicode hex="003D"/>
  <outline>
    <contour>
      <point x="187" y="282" type="line"/>
      <point x="1167" y="282" type="line"/>
      <point x="1167" y="450" type="line"/>
      <point x="187" y="450" type="line"/>
    </contour>
    <contour>
      <point x="186" y="678" type="line"/>
      <point x="1165" y="678" type="line"/>
      <point x="1165" y="847" type="line"/>
      <point x="186" y="847" type="line"/>
    </contour>
  </outline>
</glyph>
<glyph name="greater" format="1">
  <advance width="1309.650"/>
  <unicode hex="003E"/>
  <outline>
    <contour>
      <point x="215" y="59" type="line"/>
      <point x="1192" y="503" type="line"/>
      <point x="1192" y="609" type="line"/>
      <point x="220" y="1091" type="line"/>
      <point x="220" y="901" type="line"/>
      <point x="921" y="565" type="line"/>
      <point x="215" y="252" type="line"/>
    </contour>
  </outline>
</glyph>
<glyph name="question" format="1">
  <advance width="1044.850"/>
  <unicode hex="003F"/>
  <outline>
    <contour>
      <point x="354" y="389" type="line"/>
      <point x="520" y="389" type="line"/>
      <point x="520" y="477" type="line" smooth="yes"/>
      <point x="520" y="729"/>
      <point x="935" y="828"/>
      <point x="935" y="1128" type="curve" smooth="yes"/>
      <point x="935" y="1366"/>
      <point x="747" y="1481"/>
      <point x="509" y="1481" type="curve" smooth="yes"/>
      <point x="371" y="1481"/>
      <point x="249" y="1439"/>
      <point x="194" y="1412" type="curve"/>
      <point x="194" y="1231" type="line"/>
      <point x="242" y="1256"/>
      <point x="367" y="1303"/>
      <point x="487" y="1303" type="curve" smooth="yes"/>
      <point x="617" y="1303"/>
      <point x="722" y="1252"/>
      <point x="722" y="1121" type="curve" smooth="yes"/>
      <point x="722" y="903"/>
      <point x="354" y="783"/>
      <point x="354" y="530" type="curve" smooth="yes"/>
    </contour>
    <contour>
      <point x="340" y="0" type="line"/>
      <point x="533" y="0" type="line"/>
      <point x="533" y="235" type="line"/>
      <point x="340" y="235" type="line"/>
    </contour>
  </outline>
</glyph>
<glyph name="at" format="1">
  <advance width="1782.900"/>
  <unicode hex="0040"/>
  <outline>
    <contour>
      <point x="932" y="-93" type="curve" smooth="yes"/>
      <point x="1145" y="-93"/>
      <point x="1364" y="-31"/>
      <point x="1507" y="98" type="curve"/>
      <point x="1433" y="192" type="line"/>
      <point x="1294" y="90"/>
      <point x="1112" y="42"/>
      <point x="944" y="42" type="curve" smooth="yes"/>
      <point x="595" y="42"/>
      <point x="278" y="253"/>
      <point x="278" y="675" type="curve" smooth="yes"/>
      <point x="278" y="1110"/>
      <point x="587" y="1342"/>
      <point x="949" y="1342" type="curve" smooth="yes"/>
      <point x="1262" y="1342"/>
      <point x="1535" y="1146"/>
      <point x="1535" y="801" type="curve" smooth="yes"/>
      <point x="1535" y="557"/>
      <point x="1397" y="366"/>
      <point x="1287" y="366" type="curve" smooth="yes"/>
      <point x="1238" y="366"/>
      <point x="1219" y="411"/>
      <point x="1219" y="452" type="curve" smooth="yes"/>
      <point x="1219" y="496"/>
      <point x="1226" y="538"/>
      <point x="1242" y="617" type="curve" smooth="yes"/>
      <point x="1344" y="1115" type="line"/>
      <point x="1168" y="1115" type="line"/>
      <point x="1145" y="1009" type="line"/>
      <point x="1116" y="1102"/>
      <point x="1030" y="1140"/>
      <point x="930" y="1140" type="curve" smooth="yes"/>
      <point x="724" y="1140"/>
      <point x="487" y="918"/>
      <point x="481" y="625" type="curve" smooth="yes"/>
      <point x="476" y="385"/>
      <point x="648" y="263"/>
      <point x="803" y="263" type="curve" smooth="yes"/>
      <point x="945" y="263"/>
      <point x="1053" y="352"/>
      <point x="1094" y="460" type="curve"/>
      <point x="1094" y="330"/>
      <point x="1165" y="253"/>
      <point x="1300" y="253" type="curve" smooth="yes"/>
      <point x="1500" y="253"/>
      <point x="1676" y="513"/>
      <point x="1676" y="796" type="curve" smooth="yes"/>
      <point x="1676" y="1196"/>
      <point x="1357" y="1480"/>
      <point x="945" y="1480" type="curve" smooth="yes"/>
      <point x="494" y="1480"/>
      <point x="107" y="1174"/>
      <point x="107" y="676" type="curve" smooth="yes"/>
      <point x="107" y="202"/>
      <point x="467" y="-93"/>
    </contour>
    <contour>
      <point x="827" y="421" type="curve" smooth="yes"/>
      <point x="737" y="421"/>
      <point x="676" y="490"/>
      <point x="676" y="592" type="curve" smooth="yes"/>
      <point x="676" y="769"/>
      <point x="788" y="992"/>
      <point x="950" y="992" type="curve" smooth="yes"/>
      <point x="1040" y="992"/>
      <point x="1094" y="924"/>
      <point x="1094" y="823" type="curve" smooth="yes"/>
      <point x="1094" y="621"/>
      <point x="976" y="421"/>
    </contour>
  </outline>
</glyph>
<glyph name="A" format="1">
  <advance width="1416.750"/>
  <unicode hex="0041"/>
  <outline>
    <contour>
      <point x="22" y="0" type="line"/>
      <point x="252" y="0" type="line"/>
      <point x="400" y="387" type="line"/>
      <point x="1010" y="387" type="line"/>
      <point x="1161" y="0" type="line"/>
      <point x="1395" y="0" type="line"/>
      <point x="817" y="1456" type="line"/>
      <point x="596" y="1456" type="line"/>
    </contour>
    <contour>
      <point x="458" y="563" type="line"/>
      <point x="581" y="896" type="line"/>
      <point x="703" y="1229" type="line"/>
      <point x="825" y="896" type="line"/>
      <point x="946" y="563" type="line"/>
    </contour>
    <contour>
      <point x="707" y="1456" type="move" name="top"/>
    </contour>
    <contour>
      <point x="1298" y="0" type="move" name="ogonek"/>
    </contour>
  </outline>
</glyph>
<glyph name="B" format="1">
  <advance width="1356.850"/>
  <unicode hex="0042"/>
  <outline>
    <contour>
      <point x="196" y="0" type="line"/>
      <point x="718" y="0" type="line" smooth="yes"/>
      <point x="1071" y="0"/>
      <point x="1243" y="199"/>
      <point x="1243" y="421" type="curve" smooth="yes"/>
      <point x="1243" y="607"/>
      <point x="1136" y="744"/>
      <point x="944" y="782" type="curve"/>
      <point x="1103" y="834"/>
      <point x="1174" y="958"/>
      <point x="1174" y="1101" type="curve" smooth="yes"/>
      <point x="1174" y="1429"/>
      <point x="837" y="1456"/>
      <point x="575" y="1456" type="curve" smooth="yes"/>
      <point x="196" y="1456" type="line"/>
    </contour>
    <contour>
      <point x="409" y="182" type="line"/>
      <point x="409" y="675" type="line"/>
      <point x="657" y="675" type="line" smooth="yes"/>
      <point x="913" y="675"/>
      <point x="1017" y="620"/>
      <point x="1017" y="428" type="curve" smooth="yes"/>
      <point x="1017" y="270"/>
      <point x="898" y="182"/>
      <point x="679" y="182" type="curve" smooth="yes"/>
    </contour>
    <contour>
      <point x="408" y="851" type="line"/>
      <point x="408" y="1276" type="line"/>
      <point x="608" y="1276" type="line" smooth="yes"/>
      <point x="815" y="1276"/>
      <point x="950" y="1246"/>
      <point x="950" y="1073" type="curve" smooth="yes"/>
      <point x="950" y="897"/>
      <point x="798" y="851"/>
      <point x="637" y="851" type="curve" smooth="yes"/>
    </contour>
    <contour>
      <point x="647" y="1456" type="move" name="top"/>
    </contour>
  </outline>
</glyph>
<glyph name="C" format="1">
  <advance width="1402"/>
  <unicode hex="0043"/>
  <outline>
    <contour>
      <point x="827" y="-22" type="curve" smooth="yes"/>
      <point x="1001" y="-22"/>
      <point x="1171" y="25"/>
      <point x="1318" y="135" type="curve"/>
      <point x="1247" y="306" type="line"/>
      <point x="1111" y="202"/>
      <point x="974" y="158"/>
      <point x="839" y="158" type="curve" smooth="yes"/>
      <point x="547" y="158"/>
      <point x="330" y="370"/>
      <point x="330" y="722" type="curve" smooth="yes"/>
      <point x="330" y="1043"/>
      <point x="526" y="1302"/>
      <point x="833" y="1302" type="curve" smooth="yes"/>
      <point x="958" y="1302"/>
      <point x="1081" y="1270"/>
      <point x="1199" y="1184" type="curve"/>
      <point x="1283" y="1330" type="line"/>
      <point x="1145" y="1442"/>
      <point x="988" y="1482"/>
      <point x="815" y="1482" type="curve" smooth="yes"/>
      <point x="420" y="1482"/>
      <point x="106" y="1180"/>
      <point x="106" y="720" type="curve" smooth="yes"/>
      <point x="106" y="227"/>
      <point x="455" y="-22"/>
    </contour>
    <contour>
      <point x="817" y="1456" type="move" name="top"/>
    </contour>
    <contour>
      <point x="808" y="0" type="move" name="bot"/>
    </contour>
  </outline>
</glyph>
<glyph name="D" format="1">
  <advance width="1543.500"/>
  <unicode hex="0044"/>
  <outline>
    <contour>
      <point x="408" y="180" type="line"/>
      <point x="408" y="1276" type="line"/>
      <point x="573" y="1276" type="line" smooth="yes"/>
      <point x="1008" y="1276"/>
      <point x="1213" y="1108"/>
      <point x="1213" y="730" type="curve" smooth="yes"/>
      <point x="1213" y="390"/>
      <point x="1026" y="180"/>
      <point x="639" y="180" type="curve" smooth="yes"/>
    </contour>
    <contour>
      <point x="196" y="0" type="line"/>
      <point x="626" y="0" type="line" smooth="yes"/>
      <point x="1152" y="0"/>
      <point x="1438" y="269"/>
      <point x="1438" y="730" type="curve" smooth="yes"/>
      <point x="1438" y="1241"/>
      <point x="1107" y="1456"/>
      <point x="550" y="1456" type="curve" smooth="yes"/>
      <point x="196" y="1456" type="line"/>
    </contour>
    <contour>
      <point x="687" y="1456" type="move" name="top"/>
    </contour>
    <contour>
      <point x="334" y="776" type="move" name="mid"/>
    </contour>
  </outline>
</glyph>
<glyph name="E" format="1">
  <advance width="1200.550"/>
  <unicode hex="0045"/>
  <outline>
    <contour>
      <point x="196" y="0" type="line"/>
      <point x="1113" y="0" type="line"/>
      <point x="1113" y="180" type="line"/>
      <point x="409" y="180" type="line"/>
      <point x="409" y="669" type="line"/>
      <point x="1046" y="669" type="line"/>
      <point x="1046" y="849" type="line"/>
      <point x="408" y="849" type="line"/>
      <point x="408" y="1276" type="line"/>
      <point x="1084" y="1276" type="line"/>
      <point x="1084" y="1456" type="line"/>
      <point x="196" y="1456" type="line"/>
    </contour>
    <contour>
      <point x="647" y="1456" type="move" name="top"/>
    </contour>
    <contour>
      <point x="658" y="0" type="move" name="bot"/>
    </contour>
    <contour>
      <point x="878" y="0" type="move" name="ogonek"/>
    </contour>
  </outline>
</glyph>
<glyph name="F" format="1">
  <advance width="1123.400"/>
  <unicode hex="0046"/>
  <outline>
    <contour>
      <point x="196" y="0" type="line"/>
      <point x="408" y="0" type="line"/>
      <point x="408" y="671" type="line"/>
      <point x="1010" y="671" type="line"/>
      <point x="1010" y="851" type="line"/>
      <point x="408" y="851" type="line"/>
      <point x="408" y="1276" type="line"/>
      <point x="1052" y="1276" type="line"/>
      <point x="1052" y="1456" type="line"/>
      <point x="196" y="1456" type="line"/>
    </contour>
    <contour>
      <point x="641" y="1456" type="move" name="top"/>
    </contour>
  </outline>
</glyph>
<glyph name="G" format="1">
  <advance width="1530.800"/>
  <unicode hex="0047"/>
  <outline>
    <contour>
      <point x="847" y="-22" type="curve" smooth="yes"/>
      <point x="1016" y="-22"/>
      <point x="1192" y="7"/>
      <point x="1364" y="85" type="curve"/>
      <point x="1364" y="775" type="line"/>
      <point x="793" y="775" type="line"/>
      <point x="793" y="593" type="line"/>
      <point x="1150" y="593" type="line"/>
      <point x="1150" y="205" type="line"/>
      <point x="1062" y="174"/>
      <point x="954" y="158"/>
      <point x="856" y="158" type="curve" smooth="yes"/>
      <point x="496" y="158"/>
      <point x="328" y="387"/>
      <point x="328" y="714" type="curve" smooth="yes"/>
      <point x="328" y="1046"/>
      <point x="542" y="1302"/>
      <point x="871" y="1302" type="curve" smooth="yes"/>
      <point x="1040" y="1302"/>
      <point x="1164" y="1258"/>
      <point x="1263" y="1189" type="curve"/>
      <point x="1348" y="1337" type="line"/>
      <point x="1240" y="1418"/>
      <point x="1093" y="1482"/>
      <point x="866" y="1482" type="curve" smooth="yes"/>
      <point x="418" y="1482"/>
      <point x="108" y="1151"/>
      <point x="108" y="703" type="curve" smooth="yes"/>
      <point x="108" y="267"/>
      <point x="362" y="-22"/>
    </contour>
    <contour>
      <point x="827" y="1456" type="move" name="top"/>
    </contour>
    <contour>
      <point x="808" y="0" type="move" name="bot"/>
    </contour>
  </outline>
</glyph>
<glyph name="H" format="1">
  <advance width="1559"/>
  <unicode hex="0048"/>
  <outline>
    <contour>
      <point x="196" y="0" type="line"/>
      <point x="410" y="0" type="line"/>
      <point x="410" y="657" type="line"/>
      <point x="1153" y="657" type="line"/>
      <point x="1153" y="0" type="line"/>
      <point x="1363" y="0" type="line"/>
      <point x="1363" y="1456" type="line"/>
      <point x="1151" y="1456" type="line"/>
      <point x="1151" y="837" type="line"/>
      <point x="408" y="837" type="line"/>
      <point x="408" y="1456" type="line"/>
      <point x="196" y="1456" type="line"/>
    </contour>
    <contour>
      <point x="777" y="1456" type="move" name="top"/>
    </contour>
  </outline>
</glyph>
<glyph name="I" format="1">
  <advance width="604"/>
  <unicode hex="0049"/>
  <outline>
    <contour>
      <point x="212" y="0" type="line"/>
      <point x="424" y="0" type="line"/>
      <point x="424" y="1456" type="line"/>
      <point x="212" y="1456" type="line"/>
    </contour>
    <contour>
      <point x="327" y="1456" type="move" name="top"/>
    </contour>
    <contour>
      <point x="308" y="0" type="move" name="bot"/>
    </contour>
    <contour>
      <point x="358" y="0" type="move" name="ogonek"/>
    </contour>
  </outline>
</glyph>
<glyph name="J" format="1">
  <advance width="816.050"/>
  <unicode hex="004A"/>
  <outline>
    <contour>
      <point x="263" y="-330" type="curve" smooth="yes"/>
      <point x="497" y="-330"/>
      <point x="624" y="-179"/>
      <point x="624" y="118" type="curve" smooth="yes"/>
      <point x="624" y="1456" type="line"/>
      <point x="412" y="1456" type="line"/>
      <point x="412" y="117" type="line" smooth="yes"/>
      <point x="412" y="-55"/>
      <point x="375" y="-150"/>
      <point x="231" y="-150" type="curve" smooth="yes"/>
      <point x="155" y="-150"/>
      <point x="80" y="-130"/>
      <point x="24" y="-112" type="curve"/>
      <point x="-9" y="-278" type="line"/>
      <point x="62" y="-304"/>
      <point x="163" y="-330"/>
    </contour>
    <contour>
      <point x="527" y="1456" type="move" name="top"/>
    </contour>
  </outline>
</glyph>
<glyph name="K" format="1">
  <advance width="1311.400"/>
  <unicode hex="004B"/>
  <outline>
    <contour>
      <point x="196" y="0" type="line"/>
      <point x="409" y="0" type="line"/>
      <point x="409" y="679" type="line"/>
      <point x="1054" y="0" type="line"/>
      <point x="1325" y="0" type="line"/>
      <point x="618" y="754" type="line"/>
      <point x="1277" y="1456" type="line"/>
      <point x="1013" y="1456" type="line"/>
      <point x="408" y="806" type="line"/>
      <point x="408" y="1456" type="line"/>
      <point x="196" y="1456" type="line"/>
    </contour>
    <contour>
      <point x="677" y="1456" type="move" name="top"/>
    </contour>
    <contour>
      <point x="718" y="0" type="move" name="bot"/>
    </contour>
  </outline>
</glyph>
<glyph name="L" format="1">
  <advance width="1124.550"/>
  <unicode hex="004C"/>
  <outline>
    <contour>
      <point x="196" y="0" type="line"/>
      <point x="1084" y="0" type="line"/>
      <point x="1084" y="180" type="line"/>
      <point x="408" y="180" type="line"/>
      <point x="408" y="1456" type="line"/>
      <point x="196" y="1456" type="line"/>
    </contour>
    <contour>
      <point x="316" y="1026" type="move" name="caron.alt"/>
    </contour>
    <contour>
      <point x="317" y="1456" type="move" name="top"/>
    </contour>
    <contour>
      <point x="309" y="734" type="move" name="mid"/>
    </contour>
    <contour>
      <point x="678" y="0" type="move" name="bot"/>
    </contour>
  </outline>
</glyph>
<glyph name="M" format="1">
  <advance width="1941"/>
  <unicode hex="004D"/>
  <outline>
    <contour>
      <point x="196" y="0" type="line"/>
      <point x="401" y="0" type="line"/>
      <point x="401" y="1111" type="line"/>
      <point x="477" y="933" type="line"/>
      <point x="893" y="0" type="line"/>
      <point x="1049" y="0" type="line"/>
      <point x="1469" y="945" type="line"/>
      <point x="1544" y="1111" type="line"/>
      <point x="1544" y="0" type="line"/>
      <point x="1745" y="0" type="line"/>
      <point x="1745" y="1456" type="line"/>
      <point x="1491" y="1456" type="line"/>
      <point x="1070" y="501" type="line"/>
      <point x="972" y="274" type="line"/>
      <point x="875" y="496" type="line"/>
      <point x="452" y="1456" type="line"/>
      <point x="196" y="1456" type="line"/>
    </contour>
    <contour>
      <point x="977" y="1456" type="move" name="top"/>
    </contour>
    <contour>
      <point x="978" y="0" type="move" name="bot"/>
    </contour>
  </outline>
</glyph>
<glyph name="N" format="1">
  <advance width="1605"/>
  <unicode hex="004E"/>
  <outline>
    <contour>
      <point x="196" y="0" type="line"/>
      <point x="394" y="0" type="line"/>
      <point x="394" y="1157" type="line"/>
      <point x="526" y="948" type="line"/>
      <point x="1181" y="0" type="line"/>
      <point x="1409" y="0" type="line"/>
      <point x="1409" y="1456" type="line"/>
      <point x="1208" y="1456" type="line"/>
      <point x="1208" y="292" type="line"/>
      <point x="1105" y="456" type="line"/>
      <point x="424" y="1456" type="line"/>
      <point x="196" y="1456" type="line"/>
    </contour>
    <contour>
      <point x="807" y="1456" type="move" name="top"/>
    </contour>
    <contour>
      <point x="848" y="0" type="move" name="bot"/>
    </contour>
  </outline>
</glyph>
<glyph name="O" format="1">
  <advance width="1640"/>
  <unicode hex="004F"/>
  <outline>
    <contour>
      <point x="820" y="158" type="curve" smooth="yes"/>
      <point x="494" y="158"/>
      <point x="334" y="383"/>
      <point x="334" y="731" type="curve" smooth="yes"/>
      <point x="334" y="1061"/>
      <point x="499" y="1302"/>
      <point x="823" y="1302" type="curve" smooth="yes"/>
      <point x="1151" y="1302"/>
      <point x="1302" y="1062"/>
      <point x="1302" y="731" type="curve" smooth="yes"/>
      <point x="1302" y="384"/>
      <point x="1150" y="158"/>
    </contour>
    <contour>
      <point x="823" y="-22" type="curve" smooth="yes"/>
      <point x="1271" y="-22"/>
      <point x="1534" y="274"/>
      <point x="1534" y="731" type="curve" smooth="yes"/>
      <point x="1534" y="1174"/>
      <point x="1263" y="1482"/>
      <point x="825" y="1482" type="curve" smooth="yes"/>
      <point x="371" y="1482"/>
      <point x="106" y="1173"/>
      <point x="106" y="731" type="curve" smooth="yes"/>
      <point x="106" y="272"/>
      <point x="373" y="-22"/>
    </contour>
    <contour>
      <point x="825" y="1456" type="move" name="top"/>
    </contour>
    <contour>
      <point x="878" y="0" type="move" name="ogonek"/>
    </contour>
  </outline>
</glyph>
<glyph name="P" format="1">
  <advance width="1270.200"/>
  <unicode hex="0050"/>
  <outline>
    <contour>
      <point x="196" y="0" type="line"/>
      <point x="408" y="0" type="line"/>
      <point x="408" y="650" type="line"/>
      <point x="662" y="650" type="line" smooth="yes"/>
      <point x="989" y="650"/>
      <point x="1203" y="744"/>
      <point x="1203" y="1052" type="curve" smooth="yes"/>
      <point x="1203" y="1404"/>
      <point x="954" y="1456"/>
      <point x="612" y="1456" type="curve" smooth="yes"/>
      <point x="196" y="1456" type="line"/>
    </contour>
    <contour>
      <point x="408" y="830" type="line"/>
      <point x="408" y="1276" type="line"/>
      <point x="618" y="1276" type="line" smooth="yes"/>
      <point x="850" y="1276"/>
      <point x="985" y="1252"/>
      <point x="985" y="1050" type="curve" smooth="yes"/>
      <point x="985" y="872"/>
      <point x="860" y="830"/>
      <point x="659" y="830" type="curve" smooth="yes"/>
    </contour>
    <contour>
      <point x="647" y="1456" type="move" name="top"/>
    </contour>
  </outline>
</glyph>
<glyph name="Q" format="1">
  <advance width="1639.900"/>
  <unicode hex="0051"/>
  <outline>
    <contour>
      <point x="1236" y="-434" type="curve"/>
      <point x="1361" y="-301" type="line"/>
      <point x="1361" y="-301"/>
      <point x="1159" y="-86"/>
      <point x="1074" y="89" type="curve"/>
      <point x="882" y="51" type="line"/>
      <point x="999" y="-189"/>
      <point x="1236" y="-434"/>
    </contour>
    <component base="O"/>
  </outline>
</glyph>
<glyph name="R" format="1">
  <advance width="1359.200"/>
  <unicode hex="0052"/>
  <outline>
    <contour>
      <point x="196" y="0" type="line"/>
      <point x="408" y="0" type="line"/>
      <point x="408" y="641" type="line"/>
      <point x="638" y="641" type="line" smooth="yes"/>
      <point x="793" y="641"/>
      <point x="835" y="594"/>
      <point x="896" y="433" type="curve" smooth="yes"/>
      <point x="1060" y="0" type="line"/>
      <point x="1290" y="0" type="line"/>
      <point x="1113" y="442" type="line" smooth="yes"/>
      <point x="1060" y="573"/>
      <point x="1003" y="678"/>
      <point x="895" y="719" type="curve"/>
      <point x="1093" y="766"/>
      <point x="1175" y="898"/>
      <point x="1175" y="1067" type="curve" smooth="yes"/>
      <point x="1175" y="1397"/>
      <point x="939" y="1456"/>
      <point x="670" y="1456" type="curve" smooth="yes"/>
      <point x="196" y="1456" type="line"/>
    </contour>
    <contour>
      <point x="406" y="821" type="line"/>
      <point x="406" y="1276" type="line"/>
      <point x="675" y="1276" type="line" smooth="yes"/>
      <point x="861" y="1276"/>
      <point x="950" y="1234"/>
      <point x="950" y="1053" type="curve" smooth="yes"/>
      <point x="950" y="868"/>
      <point x="820" y="821"/>
      <point x="656" y="821" type="curve" smooth="yes"/>
    </contour>
    <contour>
      <point x="667" y="1456" type="move" name="top"/>
    </contour>
    <contour>
      <point x="738" y="0" type="move" name="bot"/>
    </contour>
  </outline>
</glyph>
<glyph name="S" format="1">
  <advance width="1235.050"/>
  <unicode hex="0053"/>
  <outline>
    <contour>
      <point x="613" y="-22" type="curve" smooth="yes"/>
      <point x="882" y="-22"/>
      <point x="1116" y="102"/>
      <point x="1116" y="384" type="curve" smooth="yes"/>
      <point x="1116" y="623"/>
      <point x="1015" y="736"/>
      <point x="674" y="840" type="curve" smooth="yes"/>
      <point x="649" y="847"/>
      <point x="627" y="855"/>
      <point x="605" y="861" type="curve"/>
      <point x="401" y="928"/>
      <point x="362" y="971"/>
      <point x="362" y="1102" type="curve" smooth="yes"/>
      <point x="362" y="1241"/>
      <point x="490" y="1302"/>
      <point x="655" y="1302" type="curve" smooth="yes"/>
      <point x="794" y="1302"/>
      <point x="915" y="1246"/>
      <point x="983" y="1182" type="curve"/>
      <point x="1090" y="1325" type="line"/>
      <point x="1017" y="1397"/>
      <point x="896" y="1482"/>
      <point x="627" y="1482" type="curve" smooth="yes"/>
      <point x="354" y="1482"/>
      <point x="136" y="1353"/>
      <point x="136" y="1094" type="curve" smooth="yes"/>
      <point x="136" y="850"/>
      <point x="276" y="749"/>
      <point x="549" y="668" type="curve" smooth="yes"/>
      <point x="576" y="660"/>
      <point x="601" y="653"/>
      <point x="623" y="645" type="curve" smooth="yes"/>
      <point x="854" y="570"/>
      <point x="893" y="512"/>
      <point x="893" y="386" type="curve" smooth="yes"/>
      <point x="893" y="240"/>
      <point x="795" y="158"/>
      <point x="604" y="158" type="curve" smooth="yes"/>
      <point x="447" y="158"/>
      <point x="286" y="243"/>
      <point x="219" y="296" type="curve"/>
      <point x="126" y="142" type="line"/>
      <point x="189" y="79"/>
      <point x="377" y="-22"/>
    </contour>
    <contour>
      <point x="627" y="1456" type="move" name="top"/>
    </contour>
    <contour>
      <point x="648" y="0" type="move" name="bot"/>
    </contour>
  </outline>
</glyph>
<glyph name="T" format="1">
  <advance width="1156.450"/>
  <unicode hex="0054"/>
  <outline>
    <contour>
      <point x="470" y="0" type="line"/>
      <point x="682" y="0" type="line"/>
      <point x="682" y="1276" type="line"/>
      <point x="1146" y="1276" type="line"/>
      <point x="1146" y="1456" type="line"/>
      <point x="10" y="1456" type="line"/>
      <point x="10" y="1276" type="line"/>
      <point x="470" y="1276" type="line"/>
    </contour>
    <contour>
      <point x="577" y="1456" type="move" name="top"/>
    </contour>
    <contour>
      <point x="588" y="0" type="move" name="bot"/>
    </contour>
    <contour>
      <point x="576" y="744" type="move" name="mid"/>
    </contour>
  </outline>
</glyph>
<glyph name="U" format="1">
  <advance width="1498.500"/>
  <unicode hex="0055"/>
  <outline>
    <contour>
      <point x="747" y="-22" type="curve" smooth="yes"/>
      <point x="1182" y="-22"/>
      <point x="1331" y="231"/>
      <point x="1331" y="574" type="curve" smooth="yes"/>
      <point x="1331" y="1456" type="line"/>
      <point x="1120" y="1456" type="line"/>
      <point x="1120" y="564" type="line" smooth="yes"/>
      <point x="1120" y="277"/>
      <point x="981" y="158"/>
      <point x="750" y="158" type="curve" smooth="yes"/>
      <point x="509" y="158"/>
      <point x="380" y="279"/>
      <point x="380" y="568" type="curve" smooth="yes"/>
      <point x="380" y="1456" type="line"/>
      <point x="168" y="1456" type="line"/>
      <point x="168" y="572" type="line" smooth="yes"/>
      <point x="168" y="240"/>
      <point x="297" y="-22"/>
    </contour>
    <contour>
      <point x="747" y="1456" type="move" name="top"/>
    </contour>
    <contour>
      <point x="748" y="0" type="move" name="bot"/>
    </contour>
    <contour>
      <point x="798" y="0" type="move" name="ogonek"/>
    </contour>
  </outline>
</glyph>
<glyph name="V" format="1">
  <advance width="1340.300"/>
  <unicode hex="0056"/>
  <outline>
    <contour>
      <point x="563" y="0" type="line"/>
      <point x="780" y="0" type="line"/>
      <point x="1326" y="1456" type="line"/>
      <point x="1103" y="1456" type="line"/>
      <point x="748.233" y="463.981" type="line"/>
      <point x="676" y="262" type="line"/>
      <point x="601" y="469" type="line"/>
      <point x="252" y="1456" type="line"/>
      <point x="14" y="1456" type="line"/>
    </contour>
  </outline>
</glyph>
<glyph name="W" format="1">
  <advance width="2018.100"/>
  <unicode hex="0057"/>
  <outline>
    <contour>
      <point x="422" y="0" type="line"/>
      <point x="665" y="0" type="line"/>
      <point x="1012" y="1169" type="line"/>
      <point x="1360" y="0" type="line"/>
      <point x="1607" y="0" type="line"/>
      <point x="2000" y="1456" type="line"/>
      <point x="1781" y="1456" type="line"/>
      <point x="1543" y="498" type="line"/>
      <point x="1486" y="246" type="line"/>
      <point x="1413" y="503" type="line"/>
      <point x="1122" y="1456" type="line"/>
      <point x="911" y="1456" type="line"/>
      <point x="624" y="506" type="line"/>
      <point x="552" y="246" type="line"/>
      <point x="489" y="511" type="line"/>
      <point x="246" y="1456" type="line"/>
      <point x="18" y="1456" type="line"/>
    </contour>
    <contour>
      <point x="1019" y="1456" type="move" name="top"/>
    </contour>
    <contour>
      <point x="1018" y="0" type="move" name="bot"/>
    </contour>
  </outline>
</glyph>
<glyph name="X" format="1">
  <advance width="1298.650"/>
  <unicode hex="0058"/>
  <outline>
    <contour>
      <point x="14" y="0" type="line"/>
      <point x="262" y="0" type="line"/>
      <point x="650" y="570" type="line"/>
      <point x="1034" y="0" type="line"/>
      <point x="1291" y="0" type="line"/>
      <point x="780" y="748" type="line"/>
      <point x="1273" y="1456" type="line"/>
      <point x="1030" y="1456" type="line"/>
      <point x="660" y="917" type="line"/>
      <point x="297" y="1456" type="line"/>
      <point x="38" y="1456" type="line"/>
      <point x="529" y="740" type="line"/>
    </contour>
  </outline>
</glyph>
<glyph name="Y" format="1">
  <advance width="1240.400"/>
  <unicode hex="0059"/>
  <outline>
    <contour>
      <point x="513" y="0" type="line"/>
      <point x="725" y="0" type="line"/>
      <point x="725" y="574" type="line"/>
      <point x="1244" y="1456" type="line"/>
      <point x="1004" y="1456" type="line"/>
      <point x="623" y="758" type="line"/>
      <point x="244" y="1456" type="line"/>
      <point x="6" y="1456" type="line"/>
      <point x="513" y="571" type="line"/>
    </contour>
    <contour>
      <point x="647" y="1456" type="move" name="top"/>
    </contour>
  </outline>
</glyph>
<glyph name="Z" format="1">
  <advance width="1185.300"/>
  <unicode hex="005A"/>
  <outline>
    <contour>
      <point x="88" y="0" type="line"/>
      <point x="1092" y="0" type="line"/>
      <point x="1092" y="180" type="line"/>
      <point x="368" y="180" type="line"/>
      <point x="1096" y="1346" type="line"/>
      <point x="1096" y="1456" type="line"/>
      <point x="117" y="1456" type="line"/>
      <point x="117" y="1276" type="line"/>
      <point x="809" y="1276" type="line"/>
      <point x="88" y="114" type="line"/>
    </contour>
    <contour>
      <point x="607" y="1456" type="move" name="top"/>
    </contour>
    <contour>
      <point x="638" y="0" type="move" name="bot"/>
    </contour>
  </outline>
</glyph>
<glyph name="bracketleft" format="1">
  <advance width="646.850"/>
  <unicode hex="005B"/>
  <outline>
    <contour>
      <point x="162" y="-203" type="line"/>
      <point x="577" y="-203" type="line"/>
      <point x="577" y="-48" type="line"/>
      <point x="364" y="-48" type="line"/>
      <point x="364" y="1327" type="line"/>
      <point x="576" y="1327" type="line"/>
      <point x="576" y="1482" type="line"/>
      <point x="162" y="1482" type="line"/>
    </contour>
  </outline>
</glyph>
<glyph name="backslash" format="1">
  <advance width="845"/>
  <unicode hex="005C"/>
  <outline>
    <contour>
      <point x="622" y="0" type="line"/>
      <point x="813" y="0" type="line"/>
      <point x="217" y="1456" type="line"/>
      <point x="32" y="1456" type="line"/>
    </contour>
  </outline>
</glyph>
<glyph name="bracketright" format="1">
  <advance width="646.850"/>
  <unicode hex="005D"/>
  <outline>
    <contour>
      <point x="111" y="-203" type="line"/>
      <point x="522" y="-203" type="line"/>
      <point x="522" y="1482" type="line"/>
      <point x="110" y="1482" type="line"/>
      <point x="110" y="1327" type="line"/>
      <point x="319" y="1327" type="line"/>
      <point x="319" y="-48" type="line"/>
      <point x="111" y="-48" type="line"/>
    </contour>
  </outline>
</glyph>
<glyph name="asciicircum" format="1">
  <advance width="1605.150"/>
  <unicode hex="005E"/>
  <outline>
    <contour>
      <point x="242" y="553" type="line"/>
      <point x="448" y="553" type="line"/>
      <point x="797" y="1229" type="line"/>
      <point x="1161" y="553" type="line"/>
      <point x="1363" y="553" type="line"/>
      <point x="864" y="1456" type="line"/>
      <point x="734" y="1456" type="line"/>
    </contour>
  </outline>
</glyph>
<glyph name="underscore" format="1">
  <advance width="964.200"/>
  <unicode hex="005F"/>
  <outline>
    <contour>
      <point x="-8" y="-264" type="line"/>
      <point x="972" y="-264" type="line"/>
      <point x="972" y="-102" type="line"/>
      <point x="-8" y="-102" type="line"/>
    </contour>
  </outline>
</glyph>
<glyph name="grave" format="1">
  <advance width="600.500"/>
  <unicode hex="0060"/>
  <outline>
    <contour>
      <point x="367" y="1173" type="line"/>
      <point x="545" y="1173" type="line"/>
      <point x="292" y="1552" type="line"/>
      <point x="26" y="1552" type="line"/>
    </contour>
    <contour>
      <point x="460" y="1026" type="move" name="_top"/>
    </contour>
  </outline>
</glyph>
<glyph name="a" format="1">
  <advance width="1278.250"/>
  <unicode hex="0061"/>
  <outline>
    <contour>
      <point x="592" y="-22" type="curve" smooth="yes"/>
      <point x="738" y="-22"/>
      <point x="857" y="50"/>
      <point x="915" y="165" type="curve"/>
      <point x="915" y="0" type="line"/>
      <point x="1120" y="0" type="line"/>
      <point x="1120" y="1026" type="line"/>
      <point x="917" y="1026" type="line"/>
      <point x="917" y="873" type="line"/>
      <point x="858" y="973"/>
      <point x="734" y="1052"/>
      <point x="591" y="1052" type="curve" smooth="yes"/>
      <point x="289" y="1052"/>
      <point x="102" y="802"/>
      <point x="102" y="510" type="curve" smooth="yes"/>
      <point x="102" y="233"/>
      <point x="271" y="-22"/>
    </contour>
    <contour>
      <point x="624" y="145" type="curve" smooth="yes"/>
      <point x="402" y="145"/>
      <point x="309" y="314"/>
      <point x="309" y="516" type="curve" smooth="yes"/>
      <point x="309" y="721"/>
      <point x="402" y="885"/>
      <point x="621" y="885" type="curve" smooth="yes"/>
      <point x="828" y="885"/>
      <point x="925" y="724"/>
      <point x="925" y="520" type="curve" smooth="yes"/>
      <point x="925" y="300"/>
      <point x="828" y="145"/>
    </contour>
    <contour>
      <point x="594" y="1026" type="move" name="top"/>
    </contour>
    <contour>
      <point x="1025" y="0" type="move" name="ogonek"/>
    </contour>
  </outline>
</glyph>
<glyph name="b" format="1">
  <advance width="1277.550"/>
  <unicode hex="0062"/>
  <outline>
    <contour>
      <point x="705" y="-22" type="curve" smooth="yes"/>
      <point x="972" y="-22"/>
      <point x="1175" y="192"/>
      <point x="1175" y="528" type="curve" smooth="yes"/>
      <point x="1175" y="843"/>
      <point x="994" y="1052"/>
      <point x="709" y="1052" type="curve" smooth="yes"/>
      <point x="520" y="1052"/>
      <point x="409" y="945"/>
      <point x="371" y="865" type="curve"/>
      <point x="371" y="1478" type="line"/>
      <point x="165" y="1478" type="line"/>
      <point x="165" y="271" type="line" smooth="yes"/>
      <point x="165" y="240"/>
      <point x="162" y="124"/>
      <point x="158" y="0" type="curve"/>
      <point x="368" y="0" type="line"/>
      <point x="368" y="158" type="line"/>
      <point x="416" y="65"/>
      <point x="538" y="-22"/>
    </contour>
    <contour>
      <point x="675" y="145" type="curve" smooth="yes"/>
      <point x="477" y="145"/>
      <point x="363" y="299"/>
      <point x="363" y="515" type="curve" smooth="yes"/>
      <point x="363" y="730"/>
      <point x="480" y="885"/>
      <point x="674" y="885" type="curve" smooth="yes"/>
      <point x="857" y="885"/>
      <point x="960" y="731"/>
      <point x="960" y="525" type="curve" smooth="yes"/>
      <point x="960" y="300"/>
      <point x="866" y="145"/>
    </contour>
    <contour>
      <point x="715" y="1026" type="move" name="top"/>
    </contour>
  </outline>
</glyph>
<glyph name="c" format="1">
  <advance width="1073.900"/>
  <unicode hex="0063"/>
  <outline>
    <contour>
      <point x="627" y="-22" type="curve" smooth="yes"/>
      <point x="769" y="-22"/>
      <point x="880" y="16"/>
      <point x="979" y="89" type="curve"/>
      <point x="915" y="238" type="line"/>
      <point x="859" y="196"/>
      <point x="765" y="145"/>
      <point x="644" y="145" type="curve" smooth="yes"/>
      <point x="441" y="145"/>
      <point x="315" y="287"/>
      <point x="315" y="509" type="curve" smooth="yes"/>
      <point x="315" y="759"/>
      <point x="457" y="884"/>
      <point x="646" y="884" type="curve" smooth="yes"/>
      <point x="752" y="884"/>
      <point x="841" y="843"/>
      <point x="902" y="790" type="curve"/>
      <point x="975" y="925" type="line"/>
      <point x="893" y="1008"/>
      <point x="773" y="1052"/>
      <point x="630" y="1052" type="curve" smooth="yes"/>
      <point x="312" y="1052"/>
      <point x="102" y="828"/>
      <point x="102" y="508" type="curve" smooth="yes"/>
      <point x="102" y="206"/>
      <point x="303" y="-22"/>
    </contour>
    <contour>
      <point x="607" y="1026" type="move" name="top"/>
    </contour>
    <contour>
      <point x="627" y="0" type="move" name="bot"/>
    </contour>
  </outline>
</glyph>
<glyph name="d" format="1">
  <advance width="1266"/>
  <unicode hex="0064"/>
  <outline>
    <contour>
      <point x="573" y="-22" type="curve" smooth="yes"/>
      <point x="759" y="-22"/>
      <point x="863" y="77"/>
      <point x="896" y="158" type="curve"/>
      <point x="899" y="0" type="line"/>
      <point x="1108" y="0" type="line"/>
      <point x="1103" y="157"/>
      <point x="1102" y="215"/>
      <point x="1101" y="266" type="curve"/>
      <point x="1101" y="1478" type="line"/>
      <point x="895" y="1478" type="line"/>
      <point x="895" y="890" type="line"/>
      <point x="859" y="964"/>
      <point x="749" y="1052"/>
      <point x="585" y="1052" type="curve" smooth="yes"/>
      <point x="277" y="1052"/>
      <point x="102" y="819"/>
      <point x="102" y="507" type="curve" smooth="yes"/>
      <point x="102" y="182"/>
      <point x="304" y="-22"/>
    </contour>
    <contour>
      <point x="606" y="145" type="curve" smooth="yes"/>
      <point x="414" y="145"/>
      <point x="316" y="301"/>
      <point x="316" y="512" type="curve" smooth="yes"/>
      <point x="316" y="729"/>
      <point x="420" y="885"/>
      <point x="610" y="885" type="curve" smooth="yes"/>
      <point x="799" y="885"/>
      <point x="900" y="728"/>
      <point x="900" y="522" type="curve" smooth="yes"/>
      <point x="900" y="299"/>
      <point x="802" y="145"/>
    </contour>
    <contour>
      <point x="546" y="1026" type="move" name="top"/>
    </contour>
    <contour>
      <point x="895" y="1026" type="move" name="caron.alt"/>
    </contour>
    <contour>
      <point x="983" y="1252" type="move" name="mid"/>
    </contour>
  </outline>
</glyph>
<glyph name="e" format="1">
  <advance width="1173.650"/>
  <unicode hex="0065"/>
  <outline>
    <contour>
      <point x="638" y="-22" type="curve" smooth="yes"/>
      <point x="790" y="-22"/>
      <point x="921" y="20"/>
      <point x="1032" y="106" type="curve"/>
      <point x="972" y="258" type="line"/>
      <point x="876" y="181"/>
      <point x="769" y="145"/>
      <point x="651" y="145" type="curve" smooth="yes"/>
      <point x="460" y="145"/>
      <point x="321" y="256"/>
      <point x="315" y="482" type="curve"/>
      <point x="1052" y="482" type="line"/>
      <point x="1055" y="507"/>
      <point x="1056" y="523"/>
      <point x="1056" y="529" type="curve" smooth="yes"/>
      <point x="1056" y="828"/>
      <point x="910" y="1052"/>
      <point x="609" y="1052" type="curve" smooth="yes"/>
      <point x="300" y="1052"/>
      <point x="102" y="818"/>
      <point x="102" y="511" type="curve" smooth="yes"/>
      <point x="102" y="191"/>
      <point x="307" y="-22"/>
    </contour>
    <contour>
      <point x="320" y="622" type="line"/>
      <point x="348" y="791"/>
      <point x="461" y="890"/>
      <point x="616" y="890" type="curve" smooth="yes"/>
      <point x="760" y="890"/>
      <point x="851" y="799"/>
      <point x="866" y="622" type="curve"/>
    </contour>
    <contour>
      <point x="592" y="1026" type="move" name="top"/>
    </contour>
    <contour>
      <point x="743" y="0" type="move" name="ogonek"/>
    </contour>
    <contour>
      <point x="632" y="0" type="move" name="bot"/>
    </contour>
  </outline>
</glyph>
<glyph name="g" format="1">
  <advance width="1266.900"/>
  <unicode hex="0067"/>
  <outline>
    <contour>
      <point x="575" y="-412" type="curve" smooth="yes"/>
      <point x="961" y="-412"/>
      <point x="1096" y="-154"/>
      <point x="1096" y="147" type="curve" smooth="yes"/>
      <point x="1096" y="728" type="line" smooth="yes"/>
      <point x="1096" y="866"/>
      <point x="1109" y="1026"/>
      <point x="1109" y="1026" type="curve" smooth="yes"/>
      <point x="895" y="1026" type="line"/>
      <point x="894" y="888" type="line"/>
      <point x="841" y="972"/>
      <point x="746" y="1052"/>
      <point x="583" y="1052" type="curve" smooth="yes"/>
      <point x="268" y="1052"/>
      <point x="102" y="823"/>
      <point x="102" y="516" type="curve" smooth="yes"/>
      <point x="102" y="206"/>
      <point x="310" y="21"/>
      <point x="588" y="21" type="curve" smooth="yes"/>
      <point x="754" y="21"/>
      <point x="845" y="107"/>
      <point x="893" y="181" type="curve"/>
      <point x="893" y="78" type="line" smooth="yes"/>
      <point x="893" y="-140"/>
      <point x="772" y="-247"/>
      <point x="566" y="-247" type="curve" smooth="yes"/>
      <point x="446" y="-247"/>
      <point x="342" y="-216"/>
      <point x="221" y="-142" type="curve"/>
      <point x="188" y="-320" type="line"/>
      <point x="312" y="-383"/>
      <point x="435" y="-412"/>
    </contour>
    <contour>
      <point x="602" y="181" type="curve" smooth="yes"/>
      <point x="416" y="181"/>
      <point x="316" y="304"/>
      <point x="316" y="519" type="curve" smooth="yes"/>
      <point x="316" y="731"/>
      <point x="423" y="885"/>
      <point x="614" y="885" type="curve" smooth="yes"/>
      <point x="798" y="885"/>
      <point x="899" y="744"/>
      <point x="899" y="537" type="curve" smooth="yes"/>
      <point x="899" y="331"/>
      <point x="809" y="181"/>
    </contour>
    <contour>
      <point x="545" y="1026" type="move" name="top"/>
    </contour>
  </outline>
</glyph>
<glyph name="h" format="1">
  <advance width="1232.050"/>
  <unicode hex="0068"/>
  <outline>
    <contour>
      <point x="158" y="0" type="line"/>
      <point x="364" y="0" type="line"/>
      <point x="364" y="621" type="line" smooth="yes"/>
      <point x="364" y="760"/>
      <point x="512" y="885"/>
      <point x="667" y="885" type="curve" smooth="yes"/>
      <point x="811" y="885"/>
      <point x="876" y="803"/>
      <point x="876" y="603" type="curve" smooth="yes"/>
      <point x="876" y="0" type="line"/>
      <point x="1082" y="0" type="line"/>
      <point x="1082" y="603" type="line" smooth="yes"/>
      <point x="1082" y="825"/>
      <point x="988" y="1052"/>
      <point x="699" y="1052" type="curve" smooth="yes"/>
      <point x="567" y="1052"/>
      <point x="423" y="983"/>
      <point x="364" y="875" type="curve"/>
      <point x="364" y="1478" type="line"/>
      <point x="158" y="1478" type="line"/>
    </contour>
    <contour>
      <point x="697" y="1026" type="move" name="top"/>
    </contour>
    <contour>
      <point x="637" y="0" type="move" name="bot"/>
    </contour>
    <contour>
      <point x="284" y="1252" type="move" name="mid"/>
    </contour>
  </outline>
</glyph>
<glyph name="i" format="1">
  <advance width="527"/>
  <unicode hex="0069"/>
  <outline>
    <contour>
      <point x="167" y="0" type="line"/>
      <point x="371" y="0" type="line"/>
      <point x="371" y="1026" type="line"/>
      <point x="167" y="1026" type="line"/>
    </contour>
    <contour>
      <point x="169" y="1270" type="line"/>
      <point x="371" y="1270" type="line"/>
      <point x="371" y="1456" type="line"/>
      <point x="169" y="1456" type="line"/>
    </contour>
    <contour>
      <point x="273" y="0" type="move" name="ogonek"/>
    </contour>
  </outline>
</glyph>
<glyph name="j" format="1">
  <advance width="503"/>
  <unicode hex="006A"/>
  <outline>
    <contour>
      <point x="151" y="1260" type="line"/>
      <point x="355" y="1260" type="line"/>
      <point x="355" y="1456" type="line"/>
      <point x="151" y="1456" type="line"/>
    </contour>
    <component base="dotlessj"/>
  </outline>
</glyph>
<glyph name="k" format="1">
  <advance width="1127.550"/>
  <unicode hex="006B"/>
  <outline>
    <contour>
      <point x="168" y="0" type="line"/>
      <point x="374" y="0" type="line"/>
      <point x="374" y="473" type="line"/>
      <point x="837" y="0" type="line"/>
      <point x="1111" y="0" type="line"/>
      <point x="566" y="536" type="line"/>
      <point x="1076" y="1026" type="line"/>
      <point x="793" y="1026" type="line"/>
      <point x="374" y="597" type="line"/>
      <point x="374" y="1478" type="line"/>
      <point x="168" y="1478" type="line"/>
    </contour>
    <contour>
      <point x="705" y="1026" type="move" name="top"/>
    </contour>
    <contour>
      <point x="605" y="0" type="move" name="bot"/>
    </contour>
  </outline>
</glyph>
<glyph name="l" format="1">
  <advance width="529.650"/>
  <unicode hex="006C"/>
  <outline>
    <contour>
      <point x="170" y="0" type="line"/>
      <point x="376" y="0" type="line"/>
      <point x="376" y="1478" type="line"/>
      <point x="170" y="1478" type="line"/>
    </contour>
    <contour>
      <point x="271" y="1026" type="move" name="caron.alt"/>
    </contour>
    <contour>
      <point x="273" y="1456" type="move" name="top"/>
    </contour>
    <contour>
      <point x="230" y="723" type="move" name="mid"/>
    </contour>
    <contour>
      <point x="279" y="0" type="move" name="bot"/>
    </contour>
  </outline>
</glyph>
<glyph name="m" format="1">
  <advance width="1864.150"/>
  <unicode hex="006D"/>
  <outline>
    <contour>
      <point x="170" y="0" type="line"/>
      <point x="377" y="0" type="line"/>
      <point x="377" y="612" type="line" smooth="yes"/>
      <point x="377" y="752"/>
      <point x="496" y="885"/>
      <point x="654" y="885" type="curve" smooth="yes"/>
      <point x="797" y="885"/>
      <point x="842" y="763"/>
      <point x="842" y="631" type="curve" smooth="yes"/>
      <point x="842" y="0" type="line"/>
      <point x="1048" y="0" type="line"/>
      <point x="1048" y="584" type="line" smooth="yes"/>
      <point x="1048" y="746"/>
      <point x="1183" y="885"/>
      <point x="1335" y="885" type="curve" smooth="yes"/>
      <point x="1461" y="885"/>
      <point x="1508" y="771"/>
      <point x="1508" y="611" type="curve" smooth="yes"/>
      <point x="1508" y="0" type="line"/>
      <point x="1714" y="0" type="line"/>
      <point x="1714" y="630" type="line" smooth="yes"/>
      <point x="1714" y="889"/>
      <point x="1595" y="1052"/>
      <point x="1356" y="1052" type="curve" smooth="yes"/>
      <point x="1195" y="1052"/>
      <point x="1071" y="966"/>
      <point x="996" y="840" type="curve"/>
      <point x="943" y="976"/>
      <point x="825" y="1052"/>
      <point x="689" y="1052" type="curve" smooth="yes"/>
      <point x="560" y="1052"/>
      <point x="427" y="984"/>
      <point x="374" y="870" type="curve"/>
      <point x="374" y="1026" type="line"/>
      <point x="158" y="1026" type="line"/>
      <point x="162" y="952"/>
      <point x="170" y="859"/>
      <point x="170" y="728" type="curve" smooth="yes"/>
    </contour>
    <contour>
      <point x="997" y="1026" type="move" name="top"/>
    </contour>
    <contour>
      <point x="948" y="0" type="move" name="bot"/>
    </contour>
  </outline>
</glyph>
<glyph name="n" format="1">
  <advance width="1241.050"/>
  <unicode hex="006E"/>
  <outline>
    <contour>
      <point x="171" y="0" type="line"/>
      <point x="377" y="0" type="line"/>
      <point x="377" y="634" type="line" smooth="yes"/>
      <point x="378" y="755"/>
      <point x="524" y="885"/>
      <point x="670" y="885" type="curve" smooth="yes"/>
      <point x="843" y="885"/>
      <point x="885" y="774"/>
      <point x="885" y="566" type="curve" smooth="yes"/>
      <point x="885" y="0" type="line"/>
      <point x="1091" y="0" type="line"/>
      <point x="1091" y="567" type="line" smooth="yes"/>
      <point x="1091" y="892"/>
      <point x="973" y="1052"/>
      <point x="710" y="1052" type="curve" smooth="yes"/>
      <point x="584" y="1052"/>
      <point x="446" y="989"/>
      <point x="374" y="876" type="curve"/>
      <point x="374" y="1026" type="line"/>
      <point x="158" y="1026" type="line" smooth="yes"/>
      <point x="158" y="1026"/>
      <point x="171" y="891"/>
      <point x="171" y="708" type="curve" smooth="yes"/>
    </contour>
    <contour>
      <point x="690" y="1026" type="move" name="top"/>
    </contour>
    <contour>
      <point x="677" y="0" type="move" name="bot"/>
    </contour>
  </outline>
</glyph>
<glyph name="o" format="1">
  <advance width="1265.350"/>
  <unicode hex="006F"/>
  <outline>
    <contour>
      <point x="635" y="145" type="curve" smooth="yes"/>
      <point x="420" y="145"/>
      <point x="318" y="301"/>
      <point x="318" y="512" type="curve" smooth="yes"/>
      <point x="318" y="729"/>
      <point x="423" y="885"/>
      <point x="634" y="885" type="curve" smooth="yes"/>
      <point x="843" y="885"/>
      <point x="947" y="729"/>
      <point x="947" y="513" type="curve" smooth="yes"/>
      <point x="947" y="301"/>
      <point x="847" y="145"/>
    </contour>
    <contour>
      <point x="635" y="-22" type="curve" smooth="yes"/>
      <point x="976" y="-22"/>
      <point x="1163" y="207"/>
      <point x="1163" y="512" type="curve" smooth="yes"/>
      <point x="1163" y="825"/>
      <point x="981" y="1052"/>
      <point x="637" y="1052" type="curve" smooth="yes"/>
      <point x="294" y="1052"/>
      <point x="102" y="825"/>
      <point x="102" y="512" type="curve" smooth="yes"/>
      <point x="102" y="206"/>
      <point x="290" y="-22"/>
    </contour>
    <contour>
      <point x="637" y="1026" type="move" name="top"/>
    </contour>
    <contour>
      <point x="648" y="0" type="move" name="ogonek"/>
    </contour>
  </outline>
</glyph>
<glyph name="p" format="1">
  <advance width="1263.150"/>
  <unicode hex="0070"/>
  <outline>
    <contour>
      <point x="171" y="-412" type="line"/>
      <point x="375" y="-412" type="line"/>
      <point x="375" y="155" type="line"/>
      <point x="403" y="75"/>
      <point x="532" y="-22"/>
      <point x="699" y="-22" type="curve" smooth="yes"/>
      <point x="984" y="-22"/>
      <point x="1161" y="219"/>
      <point x="1161" y="526" type="curve" smooth="yes"/>
      <point x="1161" y="826"/>
      <point x="986" y="1052"/>
      <point x="704" y="1052" type="curve" smooth="yes"/>
      <point x="543" y="1052"/>
      <point x="407" y="954"/>
      <point x="375" y="858" type="curve"/>
      <point x="375" y="1026" type="line"/>
      <point x="158" y="1026" type="line"/>
      <point x="164" y="922"/>
      <point x="171" y="802"/>
      <point x="171" y="720" type="curve" smooth="yes"/>
    </contour>
    <contour>
      <point x="660" y="145" type="curve" smooth="yes"/>
      <point x="467" y="145"/>
      <point x="368" y="298"/>
      <point x="368" y="506" type="curve" smooth="yes"/>
      <point x="368" y="727"/>
      <point x="471" y="885"/>
      <point x="662" y="885" type="curve" smooth="yes"/>
      <point x="848" y="885"/>
      <point x="946" y="731"/>
      <point x="946" y="518" type="curve" smooth="yes"/>
      <point x="946" y="303"/>
      <point x="850" y="145"/>
    </contour>
    <contour>
      <point x="669" y="1026" type="move" name="top"/>
    </contour>
  </outline>
</glyph>
<glyph name="q" format="1">
  <advance width="1259.300"/>
  <unicode hex="0071"/>
  <outline>
    <contour>
      <point x="889" y="-412" type="line"/>
      <point x="1093" y="-412" type="line"/>
      <point x="1093" y="772" type="line" smooth="yes"/>
      <point x="1093" y="822"/>
      <point x="1098" y="973"/>
      <point x="1101" y="1026" type="curve"/>
      <point x="890" y="1026" type="line"/>
      <point x="890" y="894" type="line"/>
      <point x="819" y="994"/>
      <point x="707" y="1052"/>
      <point x="585" y="1052" type="curve" smooth="yes"/>
      <point x="282" y="1052"/>
      <point x="102" y="823"/>
      <point x="102" y="517" type="curve" smooth="yes"/>
      <point x="102" y="215"/>
      <point x="276" y="-22"/>
      <point x="579" y="-22" type="curve" smooth="yes"/>
      <point x="718" y="-22"/>
      <point x="825" y="51"/>
      <point x="889" y="128" type="curve"/>
    </contour>
    <contour>
      <point x="605" y="145" type="curve" smooth="yes"/>
      <point x="413" y="145"/>
      <point x="318" y="301"/>
      <point x="318" y="512" type="curve" smooth="yes"/>
      <point x="318" y="729"/>
      <point x="419" y="885"/>
      <point x="609" y="885" type="curve" smooth="yes"/>
      <point x="796" y="885"/>
      <point x="896" y="733"/>
      <point x="896" y="525" type="curve" smooth="yes"/>
      <point x="896" y="304"/>
      <point x="800" y="145"/>
    </contour>
  </outline>
</glyph>
<glyph name="r" format="1">
  <advance width="811.850"/>
  <unicode hex="0072"/>
  <outline>
    <contour>
      <point x="173" y="0" type="line"/>
      <point x="380" y="0" type="line"/>
      <point x="380" y="574" type="line" smooth="yes"/>
      <point x="380" y="768"/>
      <point x="485" y="874"/>
      <point x="631" y="874" type="curve" smooth="yes"/>
      <point x="674" y="874"/>
      <point x="716" y="866"/>
      <point x="749" y="856" type="curve"/>
      <point x="749" y="1038" type="line"/>
      <point x="714" y="1047"/>
      <point x="678" y="1051"/>
      <point x="644" y="1051" type="curve" smooth="yes"/>
      <point x="531" y="1051"/>
      <point x="442" y="985"/>
      <point x="377" y="874" type="curve"/>
      <point x="377" y="1026" type="line"/>
      <point x="159" y="1026" type="line" smooth="yes"/>
      <point x="159" y="1026"/>
      <point x="173" y="838"/>
      <point x="173" y="773" type="curve" smooth="yes"/>
    </contour>
    <contour>
      <point x="527" y="1026" type="move" name="top"/>
    </contour>
    <contour>
      <point x="297" y="0" type="move" name="bot"/>
    </contour>
  </outline>
</glyph>
<glyph name="s" format="1">
  <advance width="989"/>
  <unicode hex="0073"/>
  <outline>
    <contour>
      <point x="528" y="-22" type="curve" smooth="yes"/>
      <point x="702" y="-22"/>
      <point x="892" y="57"/>
      <point x="892" y="287" type="curve" smooth="yes"/>
      <point x="892" y="487"/>
      <point x="755" y="539"/>
      <point x="573" y="605" type="curve" smooth="yes"/>
      <point x="544" y="616"/>
      <point x="518" y="625"/>
      <point x="495" y="633" type="curve" smooth="yes"/>
      <point x="377" y="677"/>
      <point x="337" y="697"/>
      <point x="336" y="767" type="curve"/>
      <point x="336" y="843"/>
      <point x="409" y="885"/>
      <point x="526" y="885" type="curve" smooth="yes"/>
      <point x="634" y="885"/>
      <point x="749" y="836"/>
      <point x="795" y="812" type="curve"/>
      <point x="851" y="958" type="line"/>
      <point x="780" y="1004"/>
      <point x="659" y="1051"/>
      <point x="500" y="1051" type="curve" smooth="yes"/>
      <point x="319" y="1051"/>
      <point x="132" y="970"/>
      <point x="132" y="763" type="curve" smooth="yes"/>
      <point x="132" y="585"/>
      <point x="253" y="524"/>
      <point x="404" y="468" type="curve" smooth="yes"/>
      <point x="463" y="447" type="line" smooth="yes"/>
      <point x="629" y="389"/>
      <point x="698" y="367"/>
      <point x="698" y="283" type="curve" smooth="yes"/>
      <point x="698" y="176"/>
      <point x="612" y="145"/>
      <point x="511" y="145" type="curve" smooth="yes"/>
      <point x="382" y="145"/>
      <point x="251" y="204"/>
      <point x="182" y="256" type="curve"/>
      <point x="127" y="103" type="line"/>
      <point x="181" y="60"/>
      <point x="323" y="-22"/>
    </contour>
    <contour>
      <point x="492" y="1026" type="move" name="top"/>
    </contour>
    <contour>
      <point x="532" y="0" type="move" name="bot"/>
    </contour>
  </outline>
</glyph>
<glyph name="t" format="1">
  <advance width="832"/>
  <unicode hex="0074"/>
  <outline>
    <contour>
      <point x="732" y="0" type="line"/>
      <point x="732" y="159" type="line"/>
      <point x="501" y="159"/>
      <point x="441" y="181"/>
      <point x="441" y="350" type="curve" smooth="yes"/>
      <point x="441" y="889" type="line"/>
      <point x="730" y="889" type="line"/>
      <point x="730" y="1026" type="line"/>
      <point x="441" y="1026" type="line"/>
      <point x="441" y="1342" type="line"/>
      <point x="240" y="1283" type="line"/>
      <point x="240" y="1026" type="line"/>
      <point x="40" y="1026" type="line"/>
      <point x="40" y="889" type="line"/>
      <point x="235" y="889" type="line"/>
      <point x="235" y="362" type="line" smooth="yes"/>
      <point x="235" y="71"/>
      <point x="350" y="0"/>
      <point x="637" y="0" type="curve" smooth="yes"/>
    </contour>
    <contour>
      <point x="250" y="1284" type="move" name="caron.alt"/>
    </contour>
    <contour>
      <point x="337" y="1356" type="move" name="top"/>
    </contour>
    <contour>
      <point x="371" y="604" type="move" name="mid"/>
    </contour>
    <contour>
      <point x="557" y="0" type="move" name="bot"/>
    </contour>
  </outline>
</glyph>
<glyph name="u" format="1">
  <advance width="1221.700"/>
  <unicode hex="0075"/>
  <outline>
    <contour>
      <point x="548" y="-22" type="curve" smooth="yes"/>
      <point x="718" y="-22"/>
      <point x="810" y="81"/>
      <point x="848" y="159" type="curve"/>
      <point x="852" y="0" type="line"/>
      <point x="1064" y="0" type="line"/>
      <point x="1061" y="36"/>
      <point x="1054" y="190"/>
      <point x="1054" y="261" type="curve" smooth="yes"/>
      <point x="1054" y="1026" type="line"/>
      <point x="848" y="1026" type="line"/>
      <point x="848" y="415" type="line" smooth="yes"/>
      <point x="848" y="243"/>
      <point x="754" y="145"/>
      <point x="586" y="145" type="curve" smooth="yes"/>
      <point x="439" y="145"/>
      <point x="355" y="223"/>
      <point x="355" y="388" type="curve" smooth="yes"/>
      <point x="355" y="1026" type="line"/>
      <point x="150" y="1026" type="line"/>
      <point x="150" y="387" type="line" smooth="yes"/>
      <point x="150" y="158"/>
      <point x="270" y="-22"/>
    </contour>
    <contour>
      <point x="597" y="1026" type="move" name="top"/>
    </contour>
    <contour>
      <point x="968" y="0" type="move" name="ogonek"/>
    </contour>
  </outline>
</glyph>
<glyph name="v" format="1">
  <advance width="1083"/>
  <unicode hex="0076"/>
  <outline>
    <contour>
      <point x="445" y="0" type="line"/>
      <point x="638" y="0" type="line"/>
      <point x="1069" y="1026" type="line"/>
      <point x="849" y="1026" type="line"/>
      <point x="620" y="419" type="line"/>
      <point x="550" y="218" type="line"/>
      <point x="475" y="419" type="line"/>
      <point x="240" y="1026" type="line"/>
      <point x="14" y="1026" type="line"/>
    </contour>
  </outline>
</glyph>
<glyph name="w" format="1">
  <advance width="1657.050"/>
  <unicode hex="0077"/>
  <outline>
    <contour>
      <point x="379" y="0" type="line"/>
      <point x="563" y="0" type="line"/>
      <point x="786" y="631" type="line"/>
      <point x="834" y="769" type="line"/>
      <point x="879" y="630" type="line"/>
      <point x="1088" y="0" type="line"/>
      <point x="1272" y="0" type="line"/>
      <point x="1629" y="1026" type="line"/>
      <point x="1433" y="1026" type="line"/>
      <point x="1231" y="361" type="line"/>
      <point x="1195" y="243" type="line"/>
      <point x="1156" y="363" type="line"/>
      <point x="942" y="1026" type="line"/>
      <point x="751" y="1026" type="line"/>
      <point x="530" y="371" type="line"/>
      <point x="488" y="245" type="line"/>
      <point x="446" y="378" type="line"/>
      <point x="246" y="1026" type="line"/>
      <point x="28" y="1026" type="line"/>
    </contour>
    <contour>
      <point x="851" y="1026" type="move" name="top"/>
    </contour>
  </outline>
</glyph>
<glyph name="x" format="1">
  <advance width="1053.950"/>
  <unicode hex="0078"/>
  <outline>
    <contour>
      <point x="42" y="0" type="line"/>
      <point x="258" y="0" type="line"/>
      <point x="529" y="375" type="line"/>
      <point x="788" y="0" type="line"/>
      <point x="1011" y="0" type="line"/>
      <point x="641" y="527" type="line"/>
      <point x="1005" y="1026" type="line"/>
      <point x="791" y="1026" type="line"/>
      <point x="528" y="661" type="line"/>
      <point x="286" y="1026" type="line"/>
      <point x="62" y="1026" type="line"/>
      <point x="417" y="508" type="line"/>
    </contour>
  </outline>
</glyph>
<glyph name="y" format="1">
  <advance width="1085.200"/>
  <unicode hex="0079"/>
  <outline>
    <contour>
      <point x="222" y="-437" type="line"/>
      <point x="407" y="-387"/>
      <point x="560" y="-256"/>
      <point x="637" y="-55" type="curve" smooth="yes"/>
      <point x="1052" y="1026" type="line"/>
      <point x="844" y="1026" type="line"/>
      <point x="561" y="233" type="line"/>
      <point x="250" y="1026" type="line"/>
      <point x="36" y="1026" type="line"/>
      <point x="460" y="15" type="line"/>
      <point x="445" y="-35" type="line" smooth="yes"/>
      <point x="412" y="-137"/>
      <point x="328" y="-230"/>
      <point x="137" y="-297" type="curve"/>
    </contour>
    <contour>
      <point x="557" y="1026" type="move" name="top"/>
    </contour>
  </outline>
</glyph>
<glyph name="z" format="1">
  <advance width="978.350"/>
  <unicode hex="007A"/>
  <outline>
    <contour>
      <point x="107" y="0" type="line"/>
      <point x="905" y="0" type="line"/>
      <point x="905" y="165" type="line"/>
      <point x="372" y="165" type="line"/>
      <point x="883" y="918" type="line"/>
      <point x="883" y="1026" type="line"/>
      <point x="121" y="1026" type="line"/>
      <point x="121" y="860" type="line"/>
      <point x="617" y="860" type="line"/>
      <point x="107" y="110" type="line"/>
    </contour>
    <contour>
      <point x="517" y="1026" type="move" name="top"/>
    </contour>
    <contour>
      <point x="537" y="0" type="move" name="bot"/>
    </contour>
  </outline>
</glyph>
<glyph name="braceleft" format="1">
  <advance width="759"/>
  <unicode hex="007B"/>
  <outline>
    <contour>
      <point x="515" y="1123" type="line" smooth="yes"/>
      <point x="515" y="1262"/>
      <point x="566" y="1332"/>
      <point x="689" y="1334" type="curve"/>
      <point x="689" y="1494" type="line"/>
      <point x="401" y="1494"/>
      <point x="305" y="1349"/>
      <point x="305" y="1154" type="curve" smooth="yes"/>
      <point x="305" y="920" type="line" smooth="yes"/>
      <point x="304" y="796"/>
      <point x="242" y="725"/>
      <point x="132" y="720" type="curve"/>
      <point x="132" y="572" type="line"/>
      <point x="256" y="565"/>
      <point x="306" y="489"/>
      <point x="306" y="351" type="curve" smooth="yes"/>
      <point x="306" y="116" type="line" smooth="yes"/>
      <point x="306" y="-86"/>
      <point x="423" y="-201"/>
      <point x="688" y="-204" type="curve"/>
      <point x="688" y="-44" type="line"/>
      <point x="591" y="-43"/>
      <point x="515" y="-16"/>
      <point x="515" y="135" type="curve" smooth="yes"/>
      <point x="515" y="382" type="line" smooth="yes"/>
      <point x="515" y="507"/>
      <point x="440" y="597"/>
      <point x="340" y="641" type="curve"/>
      <point x="432" y="674"/>
      <point x="515" y="747"/>
      <point x="515" y="868" type="curve" smooth="yes"/>
    </contour>
  </outline>
</glyph>
<glyph name="braceright" format="1">
  <advance width="772"/>
  <unicode hex="007D"/>
  <outline>
    <contour>
      <point x="108" y="-204" type="line"/>
      <point x="396" y="-204"/>
      <point x="492" y="-58"/>
      <point x="492" y="137" type="curve" smooth="yes"/>
      <point x="492" y="371" type="line" smooth="yes"/>
      <point x="493" y="495"/>
      <point x="556" y="566"/>
      <point x="666" y="571" type="curve"/>
      <point x="666" y="719" type="line"/>
      <point x="542" y="726"/>
      <point x="492" y="802"/>
      <point x="492" y="940" type="curve" smooth="yes"/>
      <point x="492" y="1175" type="line" smooth="yes"/>
      <point x="492" y="1377"/>
      <point x="375" y="1491"/>
      <point x="110" y="1494" type="curve"/>
      <point x="110" y="1335" type="line"/>
      <point x="207" y="1334"/>
      <point x="283" y="1307"/>
      <point x="283" y="1156" type="curve" smooth="yes"/>
      <point x="283" y="909" type="line" smooth="yes"/>
      <point x="283" y="784"/>
      <point x="358" y="694"/>
      <point x="457" y="650" type="curve"/>
      <point x="366" y="617"/>
      <point x="283" y="544"/>
      <point x="283" y="423" type="curve" smooth="yes"/>
      <point x="283" y="168" type="line" smooth="yes"/>
      <point x="283" y="30"/>
      <point x="232" y="-42"/>
      <point x="108" y="-43" type="curve"/>
    </contour>
  </outline>
</glyph>
<glyph name="asciitilde" format="1">
  <advance width="1336.800"/>
  <unicode hex="007E"/>
  <outline>
    <contour>
      <point x="320" y="361" type="line"/>
      <point x="343" y="455"/>
      <point x="390" y="538"/>
      <point x="478" y="538" type="curve" smooth="yes"/>
      <point x="531" y="538"/>
      <point x="657" y="482"/>
      <point x="691" y="468" type="curve"/>
      <point x="773" y="430"/>
      <point x="857" y="395"/>
      <point x="920" y="395" type="curve" smooth="yes"/>
      <point x="1087" y="395"/>
      <point x="1194" y="519"/>
      <point x="1232" y="689" type="curve"/>
      <point x="1063" y="741" type="line"/>
      <point x="1042" y="650"/>
      <point x="991" y="563"/>
      <point x="919" y="563" type="curve" smooth="yes"/>
      <point x="882" y="563"/>
      <point x="779" y="610"/>
      <point x="744" y="623" type="curve"/>
      <point x="657" y="661"/>
      <point x="556" y="705"/>
      <point x="473" y="705" type="curve" smooth="yes"/>
      <point x="300" y="705"/>
      <point x="195" y="581"/>
      <point x="165" y="435" type="curve"/>
    </contour>
  </outline>
</glyph>
<glyph name="cent" format="1">
  <advance width="1044.900"/>
  <unicode hex="00A2"/>
  <outline>
    <contour>
      <point x="592" y="-222" type="line"/>
      <point x="677" y="-222" type="line"/>
      <point x="677" y="1251" type="line"/>
      <point x="592" y="1251" type="line"/>
    </contour>
    <component base="c"/>
  </outline>
</glyph>
<glyph name="sterling" format="1">
  <advance width="1220.300"/>
  <unicode hex="00A3"/>
  <outline>
    <contour>
      <point x="157" y="0" type="line"/>
      <point x="1056" y="0" type="line"/>
      <point x="1056" y="172" type="line"/>
      <point x="412" y="172" type="line"/>
      <point x="469" y="239"/>
      <point x="549" y="387"/>
      <point x="549" y="598" type="curve" smooth="yes"/>
      <point x="549" y="692" type="line"/>
      <point x="903" y="692" type="line"/>
      <point x="903" y="827" type="line"/>
      <point x="548" y="827" type="line"/>
      <point x="548" y="971" type="line" smooth="yes"/>
      <point x="548" y="1198"/>
      <point x="623" y="1307"/>
      <point x="808" y="1310" type="curve" smooth="yes"/>
      <point x="908" y="1312"/>
      <point x="972" y="1280"/>
      <point x="1029" y="1250" type="curve"/>
      <point x="1083" y="1407" type="line"/>
      <point x="1013" y="1452"/>
      <point x="932" y="1481"/>
      <point x="797" y="1481" type="curve" smooth="yes"/>
      <point x="426" y="1481"/>
      <point x="339" y="1233"/>
      <point x="339" y="924" type="curve" smooth="yes"/>
      <point x="339" y="827" type="line"/>
      <point x="152" y="827" type="line"/>
      <point x="152" y="692" type="line"/>
      <point x="341" y="692" type="line"/>
      <point x="341" y="601" type="line" smooth="yes"/>
      <point x="341" y="362"/>
      <point x="254" y="238"/>
      <point x="157" y="161" type="curve"/>
    </contour>
  </outline>
</glyph>
<glyph name="currency" format="1">
  <advance width="1218"/>
  <unicode hex="00A4"/>
  <outline>
    <contour>
      <point x="171" y="544" type="line"/>
      <point x="358" y="731" type="line"/>
      <point x="426" y="674"/>
      <point x="514" y="640"/>
      <point x="610" y="640" type="curve" smooth="yes"/>
      <point x="706" y="640"/>
      <point x="794" y="674"/>
      <point x="862" y="730" type="curve"/>
      <point x="1048" y="544" type="line"/>
      <point x="1099" y="595" type="line"/>
      <point x="913" y="780" type="line"/>
      <point x="969" y="847"/>
      <point x="1002" y="932"/>
      <point x="1002" y="1025" type="curve" smooth="yes"/>
      <point x="1002" y="1123"/>
      <point x="966" y="1211"/>
      <point x="906" y="1279" type="curve"/>
      <point x="1099" y="1472" type="line"/>
      <point x="1048" y="1523" type="line"/>
      <point x="853" y="1328" type="line"/>
      <point x="786" y="1379"/>
      <point x="702" y="1410"/>
      <point x="610" y="1410" type="curve" smooth="yes"/>
      <point x="518" y="1410"/>
      <point x="433" y="1379"/>
      <point x="367" y="1327" type="curve"/>
      <point x="170" y="1523" type="line"/>
      <point x="119" y="1472" type="line"/>
      <point x="314" y="1277" type="line"/>
      <point x="255" y="1210"/>
      <point x="219" y="1122"/>
      <point x="219" y="1025" type="curve" smooth="yes"/>
      <point x="219" y="932"/>
      <point x="252" y="848"/>
      <point x="307" y="782" type="curve"/>
      <point x="120" y="595" type="line"/>
    </contour>
    <contour>
      <point x="609" y="711" type="curve" smooth="yes"/>
      <point x="435" y="711"/>
      <point x="307" y="849"/>
      <point x="307" y="1023" type="curve" smooth="yes"/>
      <point x="307" y="1197"/>
      <point x="435" y="1332"/>
      <point x="609" y="1332" type="curve" smooth="yes"/>
      <point x="783" y="1332"/>
      <point x="911" y="1197"/>
      <point x="911" y="1023" type="curve" smooth="yes"/>
      <point x="911" y="849"/>
      <point x="783" y="711"/>
    </contour>
  </outline>
</glyph>
<glyph name="yen" format="1">
  <advance width="1240.400"/>
  <unicode hex="00A5"/>
  <outline>
    <contour>
      <point x="166" y="264" type="line"/>
      <point x="1068" y="264" type="line"/>
      <point x="1068" y="393" type="line"/>
      <point x="681" y="393" type="line"/>
      <point x="681" y="564" type="line"/>
      <point x="1067" y="564" type="line"/>
      <point x="1067" y="698" type="line"/>
      <point x="166" y="698" type="line"/>
      <point x="166" y="564" type="line"/>
      <point x="551" y="564" type="line"/>
      <point x="551" y="393" type="line"/>
      <point x="166" y="393" type="line"/>
    </contour>
    <component base="Y"/>
  </outline>
</glyph>
<glyph name="brokenbar" format="1">
  <advance width="500"/>
  <unicode hex="00A6"/>
  <outline>
    <contour>
      <point x="195" y="-473" type="line"/>
      <point x="372" y="-473" type="line"/>
      <point x="372" y="404" type="line"/>
      <point x="195" y="404" type="line"/>
    </contour>
    <contour>
      <point x="194" y="621" type="line"/>
      <point x="370" y="621" type="line"/>
      <point x="370" y="1526" type="line"/>
      <point x="194" y="1526" type="line"/>
    </contour>
  </outline>
</glyph>
<glyph name="section" format="1">
  <advance width="1080"/>
  <unicode hex="00A7"/>
  <outline>
    <contour>
      <point x="509" y="-71" type="curve" smooth="yes"/>
      <point x="730" y="-71"/>
      <point x="915" y="33"/>
      <point x="915" y="241" type="curve" smooth="yes"/>
      <point x="915" y="352"/>
      <point x="844" y="421"/>
      <point x="757" y="468" type="curve"/>
      <point x="846" y="530"/>
      <point x="922" y="620"/>
      <point x="922" y="721" type="curve" smooth="yes"/>
      <point x="922" y="865"/>
      <point x="797" y="939"/>
      <point x="647" y="1009" type="curve" smooth="yes"/>
      <point x="493" y="1078"/>
      <point x="414" y="1133"/>
      <point x="414" y="1203" type="curve" smooth="yes"/>
      <point x="414" y="1295"/>
      <point x="509" y="1333"/>
      <point x="626" y="1333" type="curve" smooth="yes"/>
      <point x="701" y="1333"/>
      <point x="785" y="1317"/>
      <point x="858" y="1291" type="curve"/>
      <point x="858" y="1442" type="line"/>
      <point x="769" y="1471"/>
      <point x="685" y="1482"/>
      <point x="594" y="1482" type="curve" smooth="yes"/>
      <point x="384" y="1482"/>
      <point x="209" y="1390"/>
      <point x="209" y="1194" type="curve" smooth="yes"/>
      <point x="209" y="1083"/>
      <point x="278" y="1017"/>
      <point x="364" y="957" type="curve"/>
      <point x="268" y="909"/>
      <point x="185" y="815"/>
      <point x="185" y="713" type="curve" smooth="yes"/>
      <point x="185" y="591"/>
      <point x="267" y="505"/>
      <point x="403" y="443" type="curve" smooth="yes"/>
      <point x="618" y="343"/>
      <point x="710" y="306"/>
      <point x="710" y="235" type="curve" smooth="yes"/>
      <point x="710" y="142"/>
      <point x="626" y="87"/>
      <point x="495" y="87" type="curve" smooth="yes"/>
      <point x="413" y="87"/>
      <point x="312" y="109"/>
      <point x="201" y="156" type="curve"/>
      <point x="201" y="-14" type="line"/>
      <point x="297" y="-52"/>
      <point x="409" y="-71"/>
    </contour>
    <contour>
      <point x="621" y="543" type="curve"/>
      <point x="480" y="604"/>
      <point x="384" y="646"/>
      <point x="384" y="729" type="curve" smooth="yes"/>
      <point x="384" y="796"/>
      <point x="463" y="854"/>
      <point x="505" y="878" type="curve"/>
      <point x="608" y="828"/>
      <point x="710" y="795"/>
      <point x="710" y="696" type="curve" smooth="yes"/>
      <point x="710" y="633"/>
      <point x="662" y="575"/>
    </contour>
  </outline>
</glyph>
<glyph name="dieresis" format="1">
  <advance width="743"/>
  <unicode hex="00A8"/>
  <outline>
    <contour>
      <point x="57" y="1175" type="line"/>
      <point x="266" y="1175" type="line"/>
      <point x="266" y="1384" type="line"/>
      <point x="57" y="1384" type="line"/>
    </contour>
    <contour>
      <point x="477" y="1175" type="line"/>
      <point x="685" y="1175" type="line"/>
      <point x="685" y="1384" type="line"/>
      <point x="477" y="1384" type="line"/>
    </contour>
    <contour>
      <point x="370" y="1026" type="move" name="_top"/>
    </contour>
  </outline>
</glyph>
<glyph name="copyright" format="1">
  <advance width="1723.150"/>
  <unicode hex="00A9"/>
  <outline>
    <contour>
      <point x="883" y="291" type="curve" smooth="yes"/>
      <point x="988" y="291"/>
      <point x="1085" y="322"/>
      <point x="1174" y="389" type="curve"/>
      <point x="1120" y="509" type="line"/>
      <point x="1063" y="464"/>
      <point x="986" y="428"/>
      <point x="896" y="428" type="curve" smooth="yes"/>
      <point x="744" y="428"/>
      <point x="623" y="528"/>
      <point x="623" y="720" type="curve" smooth="yes"/>
      <point x="623" y="927"/>
      <point x="742" y="1032"/>
      <point x="897" y="1032" type="curve" smooth="yes"/>
      <point x="984" y="1032"/>
      <point x="1058" y="997"/>
      <point x="1109" y="953" type="curve"/>
      <point x="1169" y="1065" type="line"/>
      <point x="1102" y="1133"/>
      <point x="1002" y="1170"/>
      <point x="884" y="1170" type="curve" smooth="yes"/>
      <point x="620" y="1170"/>
      <point x="447" y="985"/>
      <point x="447" y="719" type="curve" smooth="yes"/>
      <point x="447" y="471"/>
      <point x="638" y="291"/>
    </contour>
    <contour>
      <point x="862" y="82" type="curve" smooth="yes"/>
      <point x="510" y="82"/>
      <point x="229" y="375"/>
      <point x="229" y="726" type="curve" smooth="yes"/>
      <point x="229" y="1078"/>
      <point x="510" y="1378"/>
      <point x="862" y="1378" type="curve" smooth="yes"/>
      <point x="1212" y="1378"/>
      <point x="1493" y="1078"/>
      <point x="1493" y="726" type="curve" smooth="yes"/>
      <point x="1493" y="375"/>
      <point x="1212" y="82"/>
    </contour>
    <contour>
      <point x="861" y="-22" type="curve" smooth="yes"/>
      <point x="1277" y="-22"/>
      <point x="1617" y="314"/>
      <point x="1617" y="729" type="curve" smooth="yes"/>
      <point x="1617" y="1144"/>
      <point x="1277" y="1482"/>
      <point x="861" y="1482" type="curve" smooth="yes"/>
      <point x="446" y="1482"/>
      <point x="107" y="1144"/>
      <point x="107" y="729" type="curve" smooth="yes"/>
      <point x="107" y="314"/>
      <point x="446" y="-22"/>
    </contour>
  </outline>
</glyph>
<glyph name="ordfeminine" format="1">
  <advance width="816.600"/>
  <unicode hex="00AA"/>
  <outline>
    <contour>
      <point x="338" y="750" type="curve" smooth="yes"/>
      <point x="452" y="750"/>
      <point x="527" y="811"/>
      <point x="555" y="872" type="curve"/>
      <point x="566" y="776" type="line"/>
      <point x="720" y="776" type="line"/>
      <point x="716" y="827"/>
      <point x="713" y="853"/>
      <point x="712" y="916" type="curve"/>
      <point x="712" y="1215" type="line" smooth="yes"/>
      <point x="712" y="1413"/>
      <point x="579" y="1482"/>
      <point x="424" y="1482" type="curve" smooth="yes"/>
      <point x="252" y="1482"/>
      <point x="131" y="1414"/>
      <point x="131" y="1414" type="curve"/>
      <point x="179" y="1304" type="line"/>
      <point x="179" y="1304"/>
      <point x="296" y="1357"/>
      <point x="410" y="1357" type="curve" smooth="yes"/>
      <point x="500" y="1357"/>
      <point x="548" y="1318"/>
      <point x="548" y="1214" type="curve" smooth="yes"/>
      <point x="548" y="1172" type="line"/>
      <point x="372" y="1172" type="line" smooth="yes"/>
      <point x="187" y="1172"/>
      <point x="96" y="1093"/>
      <point x="96" y="961" type="curve" smooth="yes"/>
      <point x="96" y="826"/>
      <point x="205" y="750"/>
    </contour>
    <contour>
      <point x="353" y="864" type="curve" smooth="yes"/>
      <point x="292" y="864"/>
      <point x="244" y="899"/>
      <point x="244" y="964" type="curve" smooth="yes"/>
      <point x="244" y="1075"/>
      <point x="329" y="1077"/>
      <point x="547" y="1077" type="curve"/>
      <point x="547" y="1057" type="line" smooth="yes"/>
      <point x="547" y="935"/>
      <point x="456" y="864"/>
    </contour>
  </outline>
</glyph>
<glyph name="guillemotleft" format="1">
  <advance width="1137.400"/>
  <unicode hex="00AB"/>
  <outline>
    <contour>
      <point x="410" y="166" type="line"/>
      <point x="582" y="166" type="line"/>
      <point x="346" y="542" type="line"/>
      <point x="590" y="919" type="line"/>
      <point x="415" y="919" type="line"/>
      <point x="137" y="542" type="line"/>
    </contour>
    <contour>
      <point x="843" y="166" type="line"/>
      <point x="1016" y="166" type="line"/>
      <point x="779" y="542" type="line"/>
      <point x="1024" y="919" type="line"/>
      <point x="849" y="919" type="line"/>
      <point x="570" y="542" type="line"/>
    </contour>
  </outline>
</glyph>
<glyph name="logicalnot" format="1">
  <advance width="1461.250"/>
  <unicode hex="00AC"/>
  <outline>
    <contour>
      <point x="1051" y="230" type="line"/>
      <point x="1242" y="230" type="line"/>
      <point x="1242" y="806" type="line"/>
      <point x="185" y="806" type="line"/>
      <point x="185" y="634" type="line"/>
      <point x="1051" y="634" type="line"/>
    </contour>
  </outline>
</glyph>
<glyph name="registered" format="1">
  <advance width="1723.150"/>
  <unicode hex="00AE"/>
  <outline>
    <contour>
      <point x="536" y="282" type="line"/>
      <point x="717" y="282" type="line"/>
      <point x="717" y="650" type="line"/>
      <point x="864" y="650" type="line"/>
      <point x="1037" y="282" type="line"/>
      <point x="1238" y="282" type="line"/>
      <point x="1035" y="676" type="line"/>
      <point x="1192" y="711"/>
      <point x="1233" y="811"/>
      <point x="1233" y="921" type="curve" smooth="yes"/>
      <point x="1233" y="1089"/>
      <point x="1116" y="1182"/>
      <point x="830" y="1182" type="curve" smooth="yes"/>
      <point x="536" y="1182" type="line"/>
    </contour>
    <contour>
      <point x="715" y="781" type="line"/>
      <point x="715" y="1038" type="line"/>
      <point x="829" y="1038" type="line" smooth="yes"/>
      <point x="1006" y="1038"/>
      <point x="1048" y="1024"/>
      <point x="1048" y="908" type="curve" smooth="yes"/>
      <point x="1048" y="803"/>
      <point x="970" y="781"/>
      <point x="824" y="781" type="curve" smooth="yes"/>
    </contour>
    <contour>
      <point x="862" y="82" type="curve" smooth="yes"/>
      <point x="510" y="82"/>
      <point x="229" y="375"/>
      <point x="229" y="726" type="curve" smooth="yes"/>
      <point x="229" y="1078"/>
      <point x="510" y="1378"/>
      <point x="862" y="1378" type="curve" smooth="yes"/>
      <point x="1212" y="1378"/>
      <point x="1493" y="1078"/>
      <point x="1493" y="726" type="curve" smooth="yes"/>
      <point x="1493" y="375"/>
      <point x="1212" y="82"/>
    </contour>
    <contour>
      <point x="861" y="-22" type="curve" smooth="yes"/>
      <point x="1277" y="-22"/>
      <point x="1617" y="314"/>
      <point x="1617" y="729" type="curve" smooth="yes"/>
      <point x="1617" y="1144"/>
      <point x="1277" y="1482"/>
      <point x="861" y="1482" type="curve" smooth="yes"/>
      <point x="446" y="1482"/>
      <point x="107" y="1144"/>
      <point x="107" y="729" type="curve" smooth="yes"/>
      <point x="107" y="314"/>
      <point x="446" y="-22"/>
    </contour>
  </outline>
</glyph>
<glyph name="degree" format="1">
  <advance width="864.400"/>
  <unicode hex="00B0"/>
  <outline>
    <contour>
      <point x="432" y="974" type="curve" smooth="yes"/>
      <point x="326" y="974"/>
      <point x="257" y="1055"/>
      <point x="257" y="1155" type="curve" smooth="yes"/>
      <point x="257" y="1254"/>
      <point x="327" y="1334"/>
      <point x="432" y="1334" type="curve" smooth="yes"/>
      <point x="538" y="1334"/>
      <point x="609" y="1254"/>
      <point x="609" y="1155" type="curve" smooth="yes"/>
      <point x="609" y="1055"/>
      <point x="539" y="974"/>
    </contour>
    <contour>
      <point x="432" y="853" type="curve" smooth="yes"/>
      <point x="604" y="853"/>
      <point x="740" y="987"/>
      <point x="740" y="1154" type="curve" smooth="yes"/>
      <point x="740" y="1322"/>
      <point x="605" y="1456"/>
      <point x="432" y="1456" type="curve" smooth="yes"/>
      <point x="261" y="1456"/>
      <point x="125" y="1322"/>
      <point x="125" y="1154" type="curve" smooth="yes"/>
      <point x="125" y="987"/>
      <point x="261" y="853"/>
    </contour>
  </outline>
</glyph>
<glyph name="plusminus" format="1">
  <advance width="1244.500"/>
  <unicode hex="00B1"/>
  <outline>
    <contour>
      <point x="526" y="266" type="line"/>
      <point x="722" y="266" type="line"/>
      <point x="722" y="593" type="line"/>
      <point x="1049" y="593" type="line"/>
      <point x="1049" y="763" type="line"/>
      <point x="715" y="763" type="line"/>
      <point x="715" y="1092" type="line"/>
      <point x="523" y="1092" type="line"/>
      <point x="523" y="763" type="line"/>
      <point x="193" y="763" type="line"/>
      <point x="193" y="593" type="line"/>
      <point x="526" y="593" type="line"/>
    </contour>
    <contour>
      <point x="186" y="0" type="line"/>
      <point x="1065" y="0" type="line"/>
      <point x="1065" y="142" type="line"/>
      <point x="186" y="142" type="line"/>
    </contour>
  </outline>
</glyph>
<glyph name="twosuperior" format="1">
  <advance width="1157"/>
  <unicode hex="00B2"/>
  <outline>
    <contour>
      <point x="338" y="616" type="line"/>
      <point x="897" y="616" type="line"/>
      <point x="897" y="735" type="line"/>
      <point x="531" y="735" type="line"/>
      <point x="692" y="880" type="line" smooth="yes"/>
      <point x="812" y="988"/>
      <point x="902" y="1103.4"/>
      <point x="902" y="1220" type="curve" smooth="yes"/>
      <point x="902" y="1372"/>
      <point x="782" y="1456"/>
      <point x="629" y="1456" type="curve" smooth="yes"/>
      <point x="510" y="1456"/>
      <point x="402" y="1404"/>
      <point x="339" y="1312" type="curve"/>
      <point x="417" y="1210" type="line"/>
      <point x="468" y="1279"/>
      <point x="542" y="1322"/>
      <point x="620" y="1322" type="curve" smooth="yes"/>
      <point x="699" y="1322"/>
      <point x="750" y="1284"/>
      <point x="750" y="1218" type="curve" smooth="yes"/>
      <point x="750" y="1152.15"/>
      <point x="705" y="1072"/>
      <point x="608" y="980" type="curve" smooth="yes"/>
      <point x="338" y="724" type="line"/>
    </contour>
  </outline>
</glyph>
<glyph name="threesuperior" format="1">
  <advance width="1111"/>
  <unicode hex="00B3"/>
  <outline>
    <contour>
      <point x="575" y="600" type="curve" smooth="yes"/>
      <point x="736" y="600"/>
      <point x="870" y="690"/>
      <point x="870" y="854" type="curve" smooth="yes"/>
      <point x="870" y="944"/>
      <point x="817" y="1024"/>
      <point x="695" y="1052" type="curve"/>
      <point x="813" y="1082"/>
      <point x="846" y="1159"/>
      <point x="846" y="1232" type="curve" smooth="yes"/>
      <point x="846" y="1379"/>
      <point x="724" y="1456"/>
      <point x="581" y="1456" type="curve" smooth="yes"/>
      <point x="484" y="1456"/>
      <point x="377" y="1419"/>
      <point x="304" y="1360" type="curve"/>
      <point x="362" y="1256" type="line"/>
      <point x="426" y="1302"/>
      <point x="502" y="1330"/>
      <point x="570" y="1330" type="curve" smooth="yes"/>
      <point x="649" y="1330"/>
      <point x="699" y="1297"/>
      <point x="699" y="1222" type="curve" smooth="yes"/>
      <point x="699" y="1142"/>
      <point x="623" y="1108"/>
      <point x="519" y="1108" type="curve" smooth="yes"/>
      <point x="458" y="1108" type="line"/>
      <point x="458" y="984" type="line"/>
      <point x="525" y="984" type="line" smooth="yes"/>
      <point x="647" y="984"/>
      <point x="723" y="944"/>
      <point x="723" y="857" type="curve" smooth="yes"/>
      <point x="723" y="775"/>
      <point x="660" y="725"/>
      <point x="567" y="725" type="curve" smooth="yes"/>
      <point x="506" y="725"/>
      <point x="432" y="750"/>
      <point x="367" y="802" type="curve"/>
      <point x="307" y="696" type="line"/>
      <point x="377" y="633"/>
      <point x="477" y="600"/>
    </contour>
  </outline>
</glyph>
<glyph name="acute" format="1">
  <advance width="607"/>
  <unicode hex="00B4"/>
  <outline>
    <contour>
      <point x="61" y="1172" type="line"/>
      <point x="240" y="1172" type="line"/>
      <point x="571" y="1551" type="line"/>
      <point x="307" y="1551" type="line"/>
    </contour>
    <contour>
      <point x="140" y="1026" type="move" name="_top"/>
    </contour>
  </outline>
</glyph>
<glyph name="paragraph" format="1">
  <advance width="1215.200"/>
  <unicode hex="00B6"/>
  <outline>
    <contour>
      <point x="472" y="-179" type="line"/>
      <point x="624" y="-179" type="line"/>
      <point x="624" y="1298" type="line"/>
      <point x="802" y="1298" type="line"/>
      <point x="802" y="-179" type="line"/>
      <point x="953" y="-179" type="line"/>
      <point x="953" y="1298" type="line"/>
      <point x="1060" y="1298" type="line"/>
      <point x="1060" y="1456" type="line"/>
      <point x="595" y="1456" type="line" smooth="yes"/>
      <point x="317" y="1456"/>
      <point x="123" y="1388"/>
      <point x="123" y="1132" type="curve" smooth="yes"/>
      <point x="123" y="929"/>
      <point x="274" y="815"/>
      <point x="472" y="806" type="curve"/>
    </contour>
  </outline>
</glyph>
<glyph name="periodcentered" format="1">
  <advance width="509"/>
  <unicode hex="00B7"/>
  <outline>
    <contour>
      <point x="291" y="513" type="line"/>
      <point x="508" y="513" type="line"/>
      <point x="508" y="723" type="line"/>
      <point x="291" y="723" type="line"/>
    </contour>
    <contour>
      <point x="3" y="616" type="move" name="_mid"/>
    </contour>
  </outline>
</glyph>
<glyph name="cedilla" format="1">
  <advance width="529"/>
  <unicode hex="00B8"/>
  <outline>
    <contour>
      <point x="216" y="-462" type="curve" smooth="yes"/>
      <point x="375" y="-462"/>
      <point x="488" y="-394"/>
      <point x="488" y="-284" type="curve" smooth="yes"/>
      <point x="488" y="-198"/>
      <point x="405" y="-130"/>
      <point x="253" y="-114" type="curve"/>
      <point x="272" y="10" type="line"/>
      <point x="166" y="10" type="line"/>
      <point x="134" y="-186" type="line"/>
      <point x="160" y="-186" type="line" smooth="yes"/>
      <point x="286" y="-186"/>
      <point x="316" y="-243"/>
      <point x="316" y="-279" type="curve" smooth="yes"/>
      <point x="316" y="-326"/>
      <point x="270" y="-356"/>
      <point x="207" y="-356" type="curve" smooth="yes"/>
      <point x="148" y="-356"/>
      <point x="74" y="-340"/>
      <point x="48" y="-330" type="curve"/>
      <point x="35" y="-436" type="line"/>
      <point x="72" y="-448"/>
      <point x="156" y="-462"/>
    </contour>
    <contour>
      <point x="214" y="0" type="move" name="_bot"/>
    </contour>
  </outline>
</glyph>
<glyph name="onesuperior" format="1">
  <advance width="1095"/>
  <unicode hex="00B9"/>
  <outline>
    <contour>
      <point x="350" y="610" type="line"/>
      <point x="784" y="610" type="line"/>
      <point x="784" y="739" type="line"/>
      <point x="643" y="739" type="line"/>
      <point x="643" y="1437" type="line"/>
      <point x="523" y="1427" type="line"/>
      <point x="493" y="1409"/>
      <point x="371" y="1363"/>
      <point x="325" y="1348" type="curve"/>
      <point x="325" y="1207" type="line"/>
      <point x="359" y="1220"/>
      <point x="471" y="1256"/>
      <point x="499" y="1271" type="curve"/>
      <point x="499" y="742" type="line"/>
      <point x="350" y="742" type="line"/>
    </contour>
  </outline>
</glyph>
<glyph name="ordmasculine" format="1">
  <advance width="894.350"/>
  <unicode hex="00BA"/>
  <outline>
    <contour>
      <point x="451" y="876" type="curve" smooth="yes"/>
      <point x="320" y="876"/>
      <point x="245" y="959"/>
      <point x="245" y="1098" type="curve" smooth="yes"/>
      <point x="245" y="1232"/>
      <point x="327" y="1318"/>
      <point x="450" y="1318" type="curve" smooth="yes"/>
      <point x="575" y="1318"/>
      <point x="655" y="1233"/>
      <point x="655" y="1094" type="curve" smooth="yes"/>
      <point x="655" y="962"/>
      <point x="575" y="876"/>
    </contour>
    <contour>
      <point x="452" y="738" type="curve" smooth="yes"/>
      <point x="689" y="738"/>
      <point x="820" y="900"/>
      <point x="820" y="1096" type="curve" smooth="yes"/>
      <point x="820" y="1297"/>
      <point x="689" y="1457"/>
      <point x="450" y="1457" type="curve" smooth="yes"/>
      <point x="213" y="1457"/>
      <point x="77" y="1300"/>
      <point x="77" y="1100" type="curve" smooth="yes"/>
      <point x="77" y="896"/>
      <point x="205" y="738"/>
    </contour>
  </outline>
</glyph>
<glyph name="guillemotright" format="1">
  <advance width="1137.400"/>
  <unicode hex="00BB"/>
  <outline>
    <contour>
      <point x="140" y="165" type="line"/>
      <point x="315" y="165" type="line"/>
      <point x="594" y="542" type="line"/>
      <point x="321" y="918" type="line"/>
      <point x="148" y="918" type="line"/>
      <point x="384" y="542" type="line"/>
    </contour>
    <contour>
      <point x="574" y="165" type="line"/>
      <point x="748" y="165" type="line"/>
      <point x="1027" y="542" type="line"/>
      <point x="754" y="918" type="line"/>
      <point x="582" y="918" type="line"/>
      <point x="818" y="542" type="line"/>
    </contour>
  </outline>
</glyph>
<glyph name="onequarter" format="1">
  <advance width="2048.850"/>
  <unicode hex="00BC"/>
  <outline>
    <contour>
      <point x="232" y="626" type="line"/>
      <point x="713" y="626" type="line"/>
      <point x="713" y="750" type="line"/>
      <point x="560" y="750" type="line"/>
      <point x="560" y="1456" type="line"/>
      <point x="430" y="1456" type="line"/>
      <point x="410" y="1444"/>
      <point x="243" y="1380"/>
      <point x="213" y="1371" type="curve"/>
      <point x="213" y="1242" type="line"/>
      <point x="401" y="1303" type="line"/>
      <point x="401" y="752" type="line"/>
      <point x="232" y="752" type="line"/>
    </contour>
    <contour>
      <point x="1584" y="0" type="line"/>
      <point x="1735" y="0" type="line"/>
      <point x="1735" y="191" type="line"/>
      <point x="1853" y="191" type="line"/>
      <point x="1853" y="311" type="line"/>
      <point x="1736" y="311" type="line"/>
      <point x="1736" y="804" type="line"/>
      <point x="1578" y="804" type="line"/>
      <point x="1211" y="293" type="line"/>
      <point x="1211" y="191" type="line"/>
      <point x="1584" y="191" type="line"/>
    </contour>
    <contour>
      <point x="535" y="0" type="line"/>
      <point x="717" y="0" type="line"/>
      <point x="1611" y="1456" type="line"/>
      <point x="1430" y="1456" type="line"/>
    </contour>
    <contour>
      <point x="1354" y="311" type="line"/>
      <point x="1582" y="629" type="line"/>
      <point x="1582" y="311" type="line"/>
    </contour>
  </outline>
</glyph>
<glyph name="onehalf" format="1">
  <advance width="2266.600"/>
  <unicode hex="00BD"/>
  <outline>
    <contour>
      <point x="1374" y="0" type="line"/>
      <point x="1944" y="0" type="line"/>
      <point x="1944" y="138" type="line"/>
      <point x="1589" y="138" type="line"/>
      <point x="1735.54" y="260.329" type="line" smooth="yes"/>
      <point x="1869" y="372"/>
      <point x="1957" y="449"/>
      <point x="1951" y="601" type="curve" smooth="yes"/>
      <point x="1945" y="761"/>
      <point x="1824" y="844"/>
      <point x="1669" y="844" type="curve" smooth="yes"/>
      <point x="1556" y="844"/>
      <point x="1445" y="797"/>
      <point x="1371" y="716" type="curve"/>
      <point x="1444" y="598" type="line"/>
      <point x="1504" y="659"/>
      <point x="1584" y="702"/>
      <point x="1659" y="702" type="curve" smooth="yes"/>
      <point x="1733" y="702"/>
      <point x="1776" y="664"/>
      <point x="1782" y="599" type="curve" smooth="yes"/>
      <point x="1789" y="522"/>
      <point x="1752" y="476"/>
      <point x="1641.6" y="377.774" type="curve" smooth="yes"/>
      <point x="1374" y="140" type="line"/>
    </contour>
    <contour>
      <point x="509" y="0" type="line"/>
      <point x="691" y="0" type="line"/>
      <point x="1585" y="1456" type="line"/>
      <point x="1404" y="1456" type="line"/>
    </contour>
    <contour>
      <point x="232" y="626" type="line"/>
      <point x="713" y="626" type="line"/>
      <point x="713" y="750" type="line"/>
      <point x="560" y="750" type="line"/>
      <point x="560" y="1456" type="line"/>
      <point x="430" y="1456" type="line"/>
      <point x="410" y="1444"/>
      <point x="243" y="1380"/>
      <point x="213" y="1371" type="curve"/>
      <point x="213" y="1242" type="line"/>
      <point x="401" y="1303" type="line"/>
      <point x="401" y="752" type="line"/>
      <point x="232" y="752" type="line"/>
    </contour>
  </outline>
</glyph>
<glyph name="threequarters" format="1">
  <advance width="2256.750"/>
  <unicode hex="00BE"/>
  <outline>
    <contour>
      <point x="493" y="602" type="curve" smooth="yes"/>
      <point x="654" y="602"/>
      <point x="796" y="691"/>
      <point x="796" y="861" type="curve" smooth="yes"/>
      <point x="796" y="948"/>
      <point x="741" y="1025"/>
      <point x="624" y="1059" type="curve"/>
      <point x="729" y="1096"/>
      <point x="770" y="1168"/>
      <point x="770" y="1238" type="curve" smooth="yes"/>
      <point x="770" y="1385"/>
      <point x="645" y="1459"/>
      <point x="500" y="1459" type="curve" smooth="yes"/>
      <point x="402" y="1459"/>
      <point x="297" y="1424"/>
      <point x="217" y="1366" type="curve"/>
      <point x="276" y="1267" type="line"/>
      <point x="344" y="1313"/>
      <point x="416" y="1340"/>
      <point x="482" y="1340" type="curve" smooth="yes"/>
      <point x="559" y="1340"/>
      <point x="614" y="1296"/>
      <point x="614" y="1223" type="curve" smooth="yes"/>
      <point x="614" y="1150"/>
      <point x="543" y="1105"/>
      <point x="446" y="1105" type="curve" smooth="yes"/>
      <point x="377" y="1105" type="line"/>
      <point x="377" y="985" type="line"/>
      <point x="451" y="985" type="line" smooth="yes"/>
      <point x="566" y="985"/>
      <point x="637" y="944"/>
      <point x="637" y="864" type="curve" smooth="yes"/>
      <point x="637" y="785"/>
      <point x="574" y="725"/>
      <point x="483" y="725" type="curve" smooth="yes"/>
      <point x="423" y="725"/>
      <point x="354" y="749"/>
      <point x="283" y="801" type="curve"/>
      <point x="222" y="698" type="line"/>
      <point x="296" y="635"/>
      <point x="394" y="602"/>
    </contour>
    <contour>
      <point x="1584" y="0" type="line"/>
      <point x="1735" y="0" type="line"/>
      <point x="1735" y="191" type="line"/>
      <point x="1853" y="191" type="line"/>
      <point x="1853" y="311" type="line"/>
      <point x="1736" y="311" type="line"/>
      <point x="1736" y="804" type="line"/>
      <point x="1578" y="804" type="line"/>
      <point x="1211" y="293" type="line"/>
      <point x="1211" y="191" type="line"/>
      <point x="1584" y="191" type="line"/>
    </contour>
    <contour>
      <point x="558" y="0" type="line"/>
      <point x="741" y="0" type="line"/>
      <point x="1635" y="1456" type="line"/>
      <point x="1454" y="1456" type="line"/>
    </contour>
    <contour>
      <point x="1354" y="311" type="line"/>
      <point x="1582" y="629" type="line"/>
      <point x="1582" y="311" type="line"/>
    </contour>
  </outline>
</glyph>
<glyph name="AE" format="1">
  <advance width="2112.550"/>
  <unicode hex="00C6"/>
  <outline>
    <contour>
      <point x="23" y="0" type="line"/>
      <point x="273" y="0" type="line"/>
      <point x="492" y="386" type="line"/>
      <point x="1095" y="386" type="line"/>
      <point x="1128" y="0" type="line"/>
      <point x="1940" y="0" type="line"/>
      <point x="1940" y="183" type="line"/>
      <point x="1337" y="183" type="line"/>
      <point x="1294" y="659" type="line"/>
      <point x="1892" y="659" type="line"/>
      <point x="1892" y="837" type="line"/>
      <point x="1273" y="837" type="line"/>
      <point x="1236" y="1272" type="line"/>
      <point x="1914" y="1272" type="line"/>
      <point x="1914" y="1456" type="line"/>
      <point x="869" y="1456" type="line"/>
    </contour>
    <contour>
      <point x="577" y="551" type="line"/>
      <point x="984" y="1272" type="line"/>
      <point x="1027" y="1272" type="line"/>
      <point x="1080" y="551" type="line"/>
    </contour>
    <contour>
      <point x="1371" y="1456" type="move" name="top"/>
    </contour>
  </outline>
</glyph>
<glyph name="multiply" format="1">
  <advance width="1244.500"/>
  <unicode hex="00D7"/>
  <outline>
    <contour>
      <point x="351" y="136" type="line"/>
      <point x="634" y="418" type="line"/>
      <point x="917" y="136" type="line"/>
      <point x="1049" y="268" type="line"/>
      <point x="765" y="551" type="line"/>
      <point x="1049" y="834" type="line"/>
      <point x="917" y="966" type="line"/>
      <point x="634" y="682" type="line"/>
      <point x="351" y="966" type="line"/>
      <point x="219" y="833" type="line"/>
      <point x="502" y="551" type="line"/>
      <point x="219" y="267" type="line"/>
    </contour>
  </outline>
</glyph>
<glyph name="Oslash" format="1">
  <advance width="1640"/>
  <unicode hex="00D8"/>
  <outline>
    <contour>
      <point x="439" y="-125" type="line"/>
      <point x="1309" y="1513" type="line"/>
      <point x="1209" y="1564" type="line"/>
      <point x="338" y="-74" type="line"/>
    </contour>
    <component base="O"/>
  </outline>
</glyph>
<glyph name="Thorn" format="1">
  <advance width="1286.250"/>
  <unicode hex="00DE"/>
  <outline>
    <contour>
      <point x="197" y="0" type="line"/>
      <point x="408" y="0" type="line"/>
      <point x="408" y="344" type="line"/>
      <point x="642" y="344" type="line" smooth="yes"/>
      <point x="960" y="344"/>
      <point x="1210" y="467"/>
      <point x="1210" y="776" type="curve" smooth="yes"/>
      <point x="1210" y="1142"/>
      <point x="947" y="1212"/>
      <point x="606" y="1212" type="curve" smooth="yes"/>
      <point x="408" y="1212" type="line"/>
      <point x="408" y="1456" type="line"/>
      <point x="197" y="1456" type="line"/>
    </contour>
    <contour>
      <point x="408" y="520" type="line"/>
      <point x="408" y="1036" type="line"/>
      <point x="618" y="1036" type="line" smooth="yes"/>
      <point x="848" y="1036"/>
      <point x="983" y="987"/>
      <point x="983" y="775" type="curve" smooth="yes"/>
      <point x="983" y="597"/>
      <point x="851" y="520"/>
      <point x="653" y="520" type="curve" smooth="yes"/>
    </contour>
  </outline>
</glyph>
<glyph name="germandbls" format="1">
  <advance width="1254.201"/>
  <unicode hex="00DF"/>
  <outline>
    <contour>
      <point x="813" y="-23" type="curve" smooth="yes"/>
      <point x="1012" y="-23"/>
      <point x="1184" y="120"/>
      <point x="1184" y="347" type="curve" smooth="yes"/>
      <point x="1184" y="587"/>
      <point x="998" y="719"/>
      <point x="799" y="797" type="curve"/>
      <point x="779" y="804"/>
      <point x="742" y="817"/>
      <point x="722" y="822" type="curve"/>
      <point x="742" y="828"/>
      <point x="778" y="843"/>
      <point x="796" y="853" type="curve"/>
      <point x="946" y="926"/>
      <point x="1022" y="1030"/>
      <point x="1022" y="1174" type="curve" smooth="yes"/>
      <point x="1022" y="1366"/>
      <point x="860" y="1495"/>
      <point x="604" y="1495" type="curve" smooth="yes"/>
      <point x="329" y="1495"/>
      <point x="158" y="1328"/>
      <point x="158" y="1017" type="curve" smooth="yes"/>
      <point x="160" y="0" type="line"/>
      <point x="362" y="0" type="line"/>
      <point x="362" y="1019" type="line" smooth="yes"/>
      <point x="362" y="1205"/>
      <point x="445" y="1332"/>
      <point x="604" y="1332" type="curve" smooth="yes"/>
      <point x="726" y="1332"/>
      <point x="806" y="1268"/>
      <point x="806" y="1166" type="curve" smooth="yes"/>
      <point x="806" y="1044"/>
      <point x="727" y="960"/>
      <point x="561" y="891" type="curve"/>
      <point x="561" y="738" type="line"/>
      <point x="815" y="621"/>
      <point x="964" y="510"/>
      <point x="964" y="332" type="curve" smooth="yes"/>
      <point x="964" y="213"/>
      <point x="888" y="151"/>
      <point x="797" y="143" type="curve" smooth="yes"/>
      <point x="671" y="132"/>
      <point x="520" y="198"/>
      <point x="520" y="198" type="curve"/>
      <point x="486" y="37" type="line"/>
      <point x="486" y="37"/>
      <point x="631" y="-23"/>
    </contour>
  </outline>
</glyph>
<glyph name="ae" format="1">
  <advance width="1786.150"/>
  <unicode hex="00E6"/>
  <outline>
    <contour>
      <point x="467" y="-25" type="curve" smooth="yes"/>
      <point x="650" y="-25"/>
      <point x="802" y="71"/>
      <point x="875" y="213" type="curve"/>
      <point x="946" y="71"/>
      <point x="1089" y="-19"/>
      <point x="1261" y="-22" type="curve" smooth="yes"/>
      <point x="1513" y="-28"/>
      <point x="1658" y="104"/>
      <point x="1658" y="104" type="curve"/>
      <point x="1599" y="254" type="line"/>
      <point x="1599" y="254"/>
      <point x="1458" y="136"/>
      <point x="1267" y="145" type="curve" smooth="yes"/>
      <point x="1079" y="153"/>
      <point x="989" y="267"/>
      <point x="980" y="455" type="curve"/>
      <point x="980" y="480" type="line"/>
      <point x="1682" y="480" type="line"/>
      <point x="1682" y="480"/>
      <point x="1685" y="509"/>
      <point x="1685" y="522" type="curve" smooth="yes"/>
      <point x="1685" y="829"/>
      <point x="1536" y="1058"/>
      <point x="1236" y="1053" type="curve" smooth="yes"/>
      <point x="1090" y="1050"/>
      <point x="971" y="976"/>
      <point x="896" y="858" type="curve"/>
      <point x="840" y="989"/>
      <point x="687" y="1053"/>
      <point x="564" y="1053" type="curve" smooth="yes"/>
      <point x="340" y="1053"/>
      <point x="181" y="964"/>
      <point x="157" y="949" type="curve"/>
      <point x="217" y="806" type="line"/>
      <point x="287" y="839"/>
      <point x="417" y="888"/>
      <point x="531" y="888" type="curve" smooth="yes"/>
      <point x="692" y="888"/>
      <point x="775" y="780"/>
      <point x="775" y="624" type="curve"/>
      <point x="740" y="624" type="line" smooth="yes"/>
      <point x="346" y="624"/>
      <point x="83" y="579"/>
      <point x="83" y="288" type="curve" smooth="yes"/>
      <point x="83" y="90"/>
      <point x="241" y="-25"/>
    </contour>
    <contour>
      <point x="485" y="142" type="curve" smooth="yes"/>
      <point x="380" y="142"/>
      <point x="287" y="185"/>
      <point x="287" y="297" type="curve" smooth="yes"/>
      <point x="287" y="440"/>
      <point x="460" y="480"/>
      <point x="641" y="480" type="curve" smooth="yes"/>
      <point x="776" y="480" type="line"/>
      <point x="774" y="315"/>
      <point x="696" y="142"/>
    </contour>
    <contour>
      <point x="982" y="621" type="line"/>
      <point x="1006" y="766"/>
      <point x="1090" y="889"/>
      <point x="1251" y="889" type="curve" smooth="yes"/>
      <point x="1389" y="889"/>
      <point x="1484" y="792"/>
      <point x="1502" y="633" type="curve"/>
      <point x="1504" y="621" type="line"/>
    </contour>
    <contour>
      <point x="898" y="1026" type="move" name="top"/>
    </contour>
  </outline>
</glyph>
<glyph name="eth" format="1">
  <advance width="1220.600"/>
  <unicode hex="00F0"/>
  <outline>
    <contour>
      <point x="591" y="-22" type="curve" smooth="yes"/>
      <point x="916" y="-22"/>
      <point x="1106" y="207"/>
      <point x="1106" y="628" type="curve" smooth="yes"/>
      <point x="1106" y="900"/>
      <point x="990" y="1123"/>
      <point x="828" y="1284" type="curve"/>
      <point x="1023" y="1404" type="line"/>
      <point x="954" y="1515" type="line"/>
      <point x="725" y="1373" type="line"/>
      <point x="604" y="1465"/>
      <point x="469" y="1527"/>
      <point x="342" y="1553" type="curve"/>
      <point x="264" y="1416" type="line"/>
      <point x="376" y="1391"/>
      <point x="481" y="1342"/>
      <point x="573" y="1279" type="curve"/>
      <point x="375" y="1156" type="line"/>
      <point x="444" y="1046" type="line"/>
      <point x="680" y="1192" type="line"/>
      <point x="831" y="1050"/>
      <point x="905" y="792"/>
      <point x="905" y="739" type="curve"/>
      <point x="861" y="822"/>
      <point x="743" y="908"/>
      <point x="589" y="908" type="curve" smooth="yes"/>
      <point x="311" y="908"/>
      <point x="103" y="724"/>
      <point x="103" y="460" type="curve" smooth="yes"/>
      <point x="103" y="195"/>
      <point x="291" y="-22"/>
    </contour>
    <contour>
      <point x="596" y="158" type="curve" smooth="yes"/>
      <point x="443" y="158"/>
      <point x="317" y="270"/>
      <point x="317" y="457" type="curve" smooth="yes"/>
      <point x="317" y="635"/>
      <point x="436" y="738"/>
      <point x="594" y="738" type="curve" smooth="yes"/>
      <point x="736" y="738"/>
      <point x="880" y="634"/>
      <point x="880" y="473" type="curve" smooth="yes"/>
      <point x="880" y="286"/>
      <point x="769" y="158"/>
    </contour>
  </outline>
</glyph>
<glyph name="divide" format="1">
  <advance width="1356.600"/>
  <unicode hex="00F7"/>
  <outline>
    <contour>
      <point x="542" y="1" type="line"/>
      <point x="799" y="1" type="line"/>
      <point x="799" y="242" type="line"/>
      <point x="542" y="242" type="line"/>
    </contour>
    <contour>
      <point x="164" y="467" type="line"/>
      <point x="1169" y="467" type="line"/>
      <point x="1169" y="639" type="line"/>
      <point x="164" y="639" type="line"/>
    </contour>
    <contour>
      <point x="540" y="857" type="line"/>
      <point x="797" y="857" type="line"/>
      <point x="797" y="1097" type="line"/>
      <point x="540" y="1097" type="line"/>
    </contour>
  </outline>
</glyph>
<glyph name="oslash" format="1">
  <advance width="1259.550"/>
  <unicode hex="00F8"/>
  <outline>
    <contour>
      <point x="354" y="-210" type="line"/>
      <point x="989" y="1179" type="line"/>
      <point x="891" y="1222" type="line"/>
      <point x="256" y="-168" type="line"/>
    </contour>
    <component base="o"/>
  </outline>
</glyph>
<glyph name="thorn" format="1">
  <advance width="1233.250"/>
  <unicode hex="00FE"/>
  <outline>
    <contour>
      <point x="150" y="-412" type="line"/>
      <point x="350" y="-412" type="line"/>
      <point x="350" y="122" type="line"/>
      <point x="415" y="23"/>
      <point x="541" y="-22"/>
      <point x="664" y="-22" type="curve" smooth="yes"/>
      <point x="983" y="-22"/>
      <point x="1134" y="239"/>
      <point x="1134" y="526" type="curve" smooth="yes"/>
      <point x="1134" y="809"/>
      <point x="984" y="1051"/>
      <point x="664" y="1051" type="curve" smooth="yes"/>
      <point x="533" y="1051"/>
      <point x="409" y="991"/>
      <point x="350" y="891" type="curve"/>
      <point x="350" y="1460" type="line"/>
      <point x="150" y="1460" type="line"/>
    </contour>
    <contour>
      <point x="631" y="142" type="curve" smooth="yes"/>
      <point x="445" y="142"/>
      <point x="348" y="292"/>
      <point x="348" y="494" type="curve" smooth="yes"/>
      <point x="348" y="697"/>
      <point x="421" y="884"/>
      <point x="638" y="884" type="curve" smooth="yes"/>
      <point x="847" y="884"/>
      <point x="918" y="708"/>
      <point x="918" y="521" type="curve" smooth="yes"/>
      <point x="918" y="322"/>
      <point x="832" y="142"/>
    </contour>
  </outline>
</glyph>
<glyph name="dotlessi" format="1">
  <advance width="548.500"/>
  <unicode hex="0131"/>
  <outline>
    <contour>
      <point x="174" y="0" type="line"/>
      <point x="380" y="0" type="line"/>
      <point x="380" y="1026" type="line"/>
      <point x="174" y="1026" type="line"/>
    </contour>
    <contour>
      <point x="275" y="1026" type="move" name="top"/>
    </contour>
    <contour>
      <point x="300" y="0" type="move" name="ogonek"/>
    </contour>
  </outline>
</glyph>
<glyph name="kgreenlandic" format="1">
  <advance width="1082"/>
  <unicode hex="0138"/>
  <outline>
    <contour>
      <point x="162" y="0" type="line"/>
      <point x="367" y="0" type="line"/>
      <point x="367" y="440" type="line"/>
      <point x="822" y="0" type="line"/>
      <point x="1084" y="0" type="line"/>
      <point x="538" y="518" type="line"/>
      <point x="1048" y="1026" type="line"/>
      <point x="778" y="1026" type="line"/>
      <point x="367" y="582" type="line"/>
      <point x="367" y="1026" type="line"/>
      <point x="162" y="1026" type="line"/>
    </contour>
  </outline>
</glyph>
<glyph name="lslash" format="1">
  <advance width="503"/>
  <unicode hex="0142"/>
  <outline>
    <contour>
      <point x="143" y="0" type="line"/>
      <point x="350" y="0" type="line"/>
      <point x="350" y="845" type="line"/>
      <point x="486" y="946" type="line"/>
      <point x="486" y="1125" type="line"/>
      <point x="349" y="1026" type="line"/>
      <point x="349" y="1475" type="line"/>
      <point x="143" y="1475" type="line"/>
      <point x="143" y="885" type="line"/>
      <point x="3" y="785" type="line"/>
      <point x="3" y="607" type="line"/>
      <point x="143" y="707" type="line"/>
    </contour>
  </outline>
</glyph>
<glyph name="Eng" format="1">
  <advance width="1587"/>
  <unicode hex="014A"/>
  <outline>
    <contour>
      <point x="1397" y="1456" type="line"/>
      <point x="1192" y="1456" type="line"/>
      <point x="1192" y="373" type="line"/>
      <point x="1089" y="526" type="line"/>
      <point x="422" y="1456" type="line"/>
      <point x="190" y="1456" type="line"/>
      <point x="190" y="0" type="line"/>
      <point x="393" y="0" type="line"/>
      <point x="393" y="1174" type="line"/>
      <point x="493" y="1021" type="line"/>
      <point x="1191" y="69" type="line"/>
      <point x="1191" y="-14" type="line" smooth="yes"/>
      <point x="1191" y="-204"/>
      <point x="1085" y="-275"/>
      <point x="912" y="-275" type="curve" smooth="yes"/>
      <point x="820" y="-275"/>
      <point x="710" y="-255"/>
      <point x="586" y="-222" type="curve"/>
      <point x="560" y="-389" type="line"/>
      <point x="694" y="-421"/>
      <point x="811" y="-438"/>
      <point x="912" y="-438" type="curve" smooth="yes"/>
      <point x="1241" y="-438"/>
      <point x="1397" y="-266"/>
      <point x="1397" y="70" type="curve" smooth="yes"/>
    </contour>
  </outline>
</glyph>
<glyph name="eng" format="1">
  <advance width="1220"/>
  <unicode hex="014B"/>
  <outline>
    <contour>
      <point x="589" y="-413" type="curve" smooth="yes"/>
      <point x="929" y="-413"/>
      <point x="1075" y="-220"/>
      <point x="1075" y="124" type="curve" smooth="yes"/>
      <point x="1075" y="567" type="line" smooth="yes"/>
      <point x="1075" y="892"/>
      <point x="964" y="1051"/>
      <point x="701" y="1051" type="curve" smooth="yes"/>
      <point x="575" y="1051"/>
      <point x="441" y="995"/>
      <point x="372" y="881" type="curve"/>
      <point x="372" y="1026" type="line"/>
      <point x="156" y="1026" type="line" smooth="yes"/>
      <point x="156" y="1026"/>
      <point x="169" y="891"/>
      <point x="169" y="708" type="curve" smooth="yes"/>
      <point x="169" y="0" type="line"/>
      <point x="375" y="0" type="line"/>
      <point x="375" y="634" type="line" smooth="yes"/>
      <point x="376" y="755"/>
      <point x="514" y="884"/>
      <point x="660" y="884" type="curve" smooth="yes"/>
      <point x="834" y="884"/>
      <point x="869" y="774"/>
      <point x="869" y="566" type="curve" smooth="yes"/>
      <point x="869" y="84" type="line" smooth="yes"/>
      <point x="869" y="-153"/>
      <point x="778" y="-260"/>
      <point x="565" y="-260" type="curve" smooth="yes"/>
      <point x="488" y="-260"/>
      <point x="395" y="-246"/>
      <point x="285" y="-219" type="curve"/>
      <point x="263" y="-368" type="line"/>
      <point x="387" y="-398"/>
      <point x="495" y="-413"/>
    </contour>
  </outline>
</glyph>
<glyph name="OE" format="1">
  <advance width="2051.100"/>
  <unicode hex="0152"/>
  <outline>
    <contour>
      <point x="810" y="-23" type="curve" smooth="yes"/>
      <point x="975" y="-19"/>
      <point x="1082" y="51"/>
      <point x="1114" y="84" type="curve"/>
      <point x="1114" y="0" type="line"/>
      <point x="1963" y="0" type="line"/>
      <point x="1963" y="182" type="line"/>
      <point x="1327" y="182" type="line"/>
      <point x="1327" y="654" type="line"/>
      <point x="1895" y="654" type="line"/>
      <point x="1895" y="837" type="line"/>
      <point x="1327" y="837" type="line"/>
      <point x="1327" y="1274" type="line"/>
      <point x="1933" y="1274" type="line"/>
      <point x="1933" y="1456" type="line"/>
      <point x="1114" y="1456" type="line"/>
      <point x="1114" y="1390" type="line"/>
      <point x="1088" y="1415"/>
      <point x="988" y="1486"/>
      <point x="790" y="1483" type="curve" smooth="yes"/>
      <point x="393" y="1480"/>
      <point x="107" y="1182"/>
      <point x="107" y="730" type="curve" smooth="yes"/>
      <point x="107" y="236"/>
      <point x="395" y="-35"/>
    </contour>
    <contour>
      <point x="816" y="149" type="curve" smooth="yes"/>
      <point x="510" y="146"/>
      <point x="335" y="376"/>
      <point x="335" y="725" type="curve" smooth="yes"/>
      <point x="335" y="1078"/>
      <point x="523" y="1290"/>
      <point x="797" y="1300" type="curve" smooth="yes"/>
      <point x="962" y="1309"/>
      <point x="1061" y="1256"/>
      <point x="1114" y="1205" type="curve"/>
      <point x="1114" y="258" type="line"/>
      <point x="1082" y="222"/>
      <point x="997" y="151"/>
    </contour>
  </outline>
</glyph>
<glyph name="oe" format="1">
  <advance width="1985.650"/>
  <unicode hex="0153"/>
  <outline>
    <contour>
      <point x="626" y="-22" type="curve" smooth="yes"/>
      <point x="797" y="-22"/>
      <point x="956" y="61"/>
      <point x="1022" y="197" type="curve"/>
      <point x="1092" y="62"/>
      <point x="1263" y="-22"/>
      <point x="1433" y="-22" type="curve" smooth="yes"/>
      <point x="1703" y="-22"/>
      <point x="1835" y="99"/>
      <point x="1835" y="99" type="curve"/>
      <point x="1774" y="250" type="line"/>
      <point x="1774" y="250"/>
      <point x="1655" y="145"/>
      <point x="1455" y="145" type="curve" smooth="yes"/>
      <point x="1263" y="145"/>
      <point x="1140" y="260"/>
      <point x="1126" y="430" type="curve"/>
      <point x="1125" y="434"/>
      <point x="1125" y="459"/>
      <point x="1124" y="462" type="curve"/>
      <point x="1862" y="462" type="line"/>
      <point x="1862" y="516" type="line" smooth="yes"/>
      <point x="1862" y="835"/>
      <point x="1699" y="1054"/>
      <point x="1405" y="1054" type="curve" smooth="yes"/>
      <point x="1218" y="1054"/>
      <point x="1100" y="973"/>
      <point x="1024" y="838" type="curve"/>
      <point x="947" y="965"/>
      <point x="819" y="1052"/>
      <point x="626" y="1052" type="curve" smooth="yes"/>
      <point x="282" y="1052"/>
      <point x="97" y="811"/>
      <point x="97" y="510" type="curve" smooth="yes"/>
      <point x="97" y="207"/>
      <point x="288" y="-22"/>
    </contour>
    <contour>
      <point x="631" y="145" type="curve" smooth="yes"/>
      <point x="410" y="145"/>
      <point x="312" y="309"/>
      <point x="312" y="507" type="curve" smooth="yes"/>
      <point x="313" y="719"/>
      <point x="421" y="885"/>
      <point x="624" y="885" type="curve" smooth="yes"/>
      <point x="832" y="885"/>
      <point x="919" y="723"/>
      <point x="919" y="511" type="curve" smooth="yes"/>
      <point x="919" y="316"/>
      <point x="831" y="145"/>
    </contour>
    <contour>
      <point x="1126" y="624" type="line"/>
      <point x="1145" y="760"/>
      <point x="1252" y="885"/>
      <point x="1406" y="885" type="curve" smooth="yes"/>
      <point x="1553" y="885"/>
      <point x="1651" y="779"/>
      <point x="1668" y="639" type="curve"/>
      <point x="1668" y="624" type="line"/>
    </contour>
  </outline>
</glyph>
<glyph name="florin" format="1">
  <advance width="1084"/>
  <unicode hex="0192"/>
  <outline>
    <contour>
      <point x="202" y="-304" type="curve" smooth="yes"/>
      <point x="430" y="-304"/>
      <point x="508" y="-185"/>
      <point x="553" y="73" type="curve" smooth="yes"/>
      <point x="677" y="760" type="line"/>
      <point x="884" y="760" type="line"/>
      <point x="909" y="890" type="line"/>
      <point x="703" y="890" type="line"/>
      <point x="752" y="1137" type="line" smooth="yes"/>
      <point x="778" y="1268"/>
      <point x="837" y="1316"/>
      <point x="927" y="1316" type="curve" smooth="yes"/>
      <point x="962" y="1316"/>
      <point x="1002" y="1309"/>
      <point x="1047" y="1296" type="curve"/>
      <point x="1064" y="1425" type="line"/>
      <point x="1064" y="1425"/>
      <point x="997" y="1463"/>
      <point x="894" y="1463" type="curve" smooth="yes"/>
      <point x="642" y="1463"/>
      <point x="581" y="1278"/>
      <point x="552" y="1120" type="curve" smooth="yes"/>
      <point x="509" y="890" type="line"/>
      <point x="365" y="890" type="line"/>
      <point x="338" y="760" type="line"/>
      <point x="486" y="760" type="line"/>
      <point x="358" y="51" type="line" smooth="yes"/>
      <point x="328" y="-120"/>
      <point x="258" y="-163"/>
      <point x="183" y="-163" type="curve" smooth="yes"/>
      <point x="159" y="-163"/>
      <point x="135" y="-159"/>
      <point x="111" y="-153" type="curve"/>
      <point x="96" y="-287" type="line"/>
      <point x="141" y="-300"/>
      <point x="187" y="-304"/>
    </contour>
  </outline>
</glyph>
<glyph name="dotlessj" format="1">
  <advance width="503"/>
  <unicode hex="0237"/>
  <outline>
    <contour>
      <point x="22" y="-418" type="curve" smooth="yes"/>
      <point x="315" y="-418"/>
      <point x="348" y="-128"/>
      <point x="348" y="102" type="curve" smooth="yes"/>
      <point x="348" y="1026" type="line"/>
      <point x="159" y="1026" type="line"/>
      <point x="159" y="42" type="line" smooth="yes"/>
      <point x="159" y="-162"/>
      <point x="97" y="-255"/>
      <point x="-18" y="-255" type="curve" smooth="yes"/>
      <point x="-38" y="-255"/>
      <point x="-67" y="-252"/>
      <point x="-113" y="-242" type="curve"/>
      <point x="-113" y="-404" type="line"/>
      <point x="-61" y="-414"/>
      <point x="-17" y="-418"/>
    </contour>
    <contour>
      <point x="256" y="1026" type="move" name="top"/>
    </contour>
  </outline>
</glyph>
<glyph name="circumflex" format="1">
  <advance width="699"/>
  <unicode hex="02C6"/>
  <outline>
    <contour>
      <point x="13" y="1139" type="line"/>
      <point x="189" y="1139" type="line"/>
      <point x="349" y="1365" type="line"/>
      <point x="507" y="1139" type="line"/>
      <point x="687" y="1139" type="line"/>
      <point x="443" y="1505" type="line"/>
      <point x="255" y="1505" type="line"/>
    </contour>
    <contour>
      <point x="346" y="1026" type="move" name="_top"/>
    </contour>
  </outline>
</glyph>
<glyph name="caron" format="1">
  <advance width="699"/>
  <unicode hex="02C7"/>
  <outline>
    <contour>
      <point x="263" y="1139" type="line"/>
      <point x="437" y="1139" type="line"/>
      <point x="692" y="1511" type="line"/>
      <point x="504" y="1511" type="line"/>
      <point x="348" y="1278" type="line"/>
      <point x="192" y="1511" type="line"/>
      <point x="7" y="1511" type="line"/>
    </contour>
    <contour>
      <point x="350" y="1026" type="move" name="_top"/>
    </contour>
  </outline>
</glyph>
<glyph name="breve" format="1">
  <advance width="643.050"/>
  <unicode hex="02D8"/>
  <outline>
    <contour>
      <point x="324" y="1185" type="curve" smooth="yes"/>
      <point x="498" y="1185"/>
      <point x="599" y="1267"/>
      <point x="612" y="1456" type="curve"/>
      <point x="469" y="1456" type="line"/>
      <point x="459" y="1357"/>
      <point x="402" y="1330"/>
      <point x="324" y="1330" type="curve" smooth="yes"/>
      <point x="245" y="1330"/>
      <point x="184" y="1355"/>
      <point x="177" y="1456" type="curve"/>
      <point x="31" y="1456" type="line"/>
      <point x="44" y="1265"/>
      <point x="147" y="1185"/>
    </contour>
    <contour>
      <point x="330" y="1026" type="move" name="_top"/>
    </contour>
  </outline>
</glyph>
<glyph name="dotaccent" format="1">
  <advance width="524"/>
  <unicode hex="02D9"/>
  <outline>
    <contour>
      <point x="160" y="1260" type="line"/>
      <point x="364" y="1260" type="line"/>
      <point x="364" y="1456" type="line"/>
      <point x="160" y="1456" type="line"/>
    </contour>
    <contour>
      <point x="265" y="1026" type="move" name="_top"/>
    </contour>
  </outline>
</glyph>
<glyph name="ring" format="1">
  <advance width="651.550"/>
  <unicode hex="02DA"/>
  <outline>
    <contour>
      <point x="325" y="1215" type="curve" smooth="yes"/>
      <point x="267" y="1215"/>
      <point x="219" y="1264"/>
      <point x="219" y="1324" type="curve" smooth="yes"/>
      <point x="219" y="1384"/>
      <point x="267" y="1433"/>
      <point x="325" y="1433" type="curve" smooth="yes"/>
      <point x="384" y="1433"/>
      <point x="432" y="1384"/>
      <point x="432" y="1324" type="curve" smooth="yes"/>
      <point x="432" y="1264"/>
      <point x="384" y="1215"/>
    </contour>
    <contour>
      <point x="327" y="1122" type="curve" smooth="yes"/>
      <point x="441" y="1122"/>
      <point x="534" y="1208"/>
      <point x="534" y="1324" type="curve" smooth="yes"/>
      <point x="534" y="1441"/>
      <point x="441" y="1526"/>
      <point x="327" y="1526" type="curve" smooth="yes"/>
      <point x="212" y="1526"/>
      <point x="119" y="1441"/>
      <point x="119" y="1324" type="curve" smooth="yes"/>
      <point x="119" y="1208"/>
      <point x="212" y="1122"/>
    </contour>
    <contour>
      <point x="327" y="1481" type="move" name="top"/>
    </contour>
    <contour>
      <point x="327" y="1026" type="move" name="_top"/>
    </contour>
  </outline>
</glyph>
<glyph name="ogonek" format="1">
  <advance width="508"/>
  <unicode hex="02DB"/>
  <outline>
    <contour>
      <point x="268" y="-418" type="curve" smooth="yes"/>
      <point x="332" y="-418"/>
      <point x="402" y="-406"/>
      <point x="466" y="-386" type="curve"/>
      <point x="466" y="-269" type="line"/>
      <point x="427" y="-280"/>
      <point x="367" y="-295"/>
      <point x="318" y="-295" type="curve" smooth="yes"/>
      <point x="243" y="-295"/>
      <point x="209" y="-267"/>
      <point x="209" y="-220" type="curve" smooth="yes"/>
      <point x="209" y="-149"/>
      <point x="288" y="-45"/>
      <point x="376" y="12" type="curve"/>
      <point x="265" y="17" type="line"/>
      <point x="172" y="-29"/>
      <point x="35" y="-129"/>
      <point x="35" y="-254" type="curve" smooth="yes"/>
      <point x="35" y="-370"/>
      <point x="142" y="-418"/>
    </contour>
    <contour>
      <point x="304" y="0" type="move" name="_ogonek"/>
    </contour>
  </outline>
</glyph>
<glyph name="tilde" format="1">
  <advance width="690.550"/>
  <unicode hex="02DC"/>
  <outline>
    <contour>
      <point x="490" y="1161" type="curve" smooth="yes"/>
      <point x="615" y="1157"/>
      <point x="687" y="1255"/>
      <point x="687" y="1422" type="curve"/>
      <point x="551" y="1422" type="line"/>
      <point x="548" y="1341"/>
      <point x="527" y="1318"/>
      <point x="484" y="1320" type="curve" smooth="yes"/>
      <point x="418" y="1323"/>
      <point x="305" y="1422"/>
      <point x="199" y="1422" type="curve" smooth="yes"/>
      <point x="79" y="1422"/>
      <point x="4" y="1318"/>
      <point x="4" y="1166" type="curve"/>
      <point x="136" y="1166" type="line"/>
      <point x="143" y="1233"/>
      <point x="169" y="1263"/>
      <point x="208" y="1263" type="curve" smooth="yes"/>
      <point x="276" y="1263"/>
      <point x="402" y="1163"/>
    </contour>
    <contour>
      <point x="340" y="1026" type="move" name="_top"/>
    </contour>
  </outline>
</glyph>
<glyph name="hungarumlaut" format="1">
  <advance width="969"/>
  <unicode hex="02DD"/>
  <outline>
    <contour>
      <point x="65" y="1157" type="line"/>
      <point x="213" y="1157" type="line"/>
      <point x="505" y="1551" type="line"/>
      <point x="282" y="1551" type="line"/>
    </contour>
    <contour>
      <point x="405" y="1157" type="line"/>
      <point x="558" y="1157" type="line"/>
      <point x="890" y="1551" type="line"/>
      <point x="658" y="1551" type="line"/>
    </contour>
    <contour>
      <point x="260" y="1026" type="move" name="_top"/>
    </contour>
  </outline>
</glyph>
<glyph name="uni0307" format="1">
  <advance width="524"/>
  <unicode hex="0307"/>
  <outline>
    <contour>
      <point x="168" y="1273" type="line"/>
      <point x="356" y="1273" type="line"/>
      <point x="356" y="1456" type="line"/>
      <point x="168" y="1456" type="line"/>
    </contour>
    <contour>
      <point x="260" y="1026" type="move" name="_top"/>
    </contour>
  </outline>
</glyph>
<glyph name="uni030F" format="1">
  <advance width="969"/>
  <unicode hex="030F"/>
  <outline>
    <contour>
      <point x="348" y="1174" type="line"/>
      <point x="488" y="1174" type="line"/>
      <point x="228" y="1587" type="line"/>
      <point x="32" y="1587" type="line"/>
    </contour>
    <contour>
      <point x="708" y="1174" type="line"/>
      <point x="846" y="1174" type="line"/>
      <point x="619" y="1587" type="line"/>
      <point x="423" y="1587" type="line"/>
    </contour>
    <contour>
      <point x="580" y="1026" type="move" name="_top"/>
    </contour>
  </outline>
</glyph>
<glyph name="uni0311" format="1">
  <advance width="629"/>
  <unicode hex="0311"/>
  <outline>
    <contour>
      <point x="43" y="1190" type="curve"/>
      <point x="151" y="1190" type="line"/>
      <point x="166" y="1273"/>
      <point x="243" y="1317"/>
      <point x="318" y="1317" type="curve" smooth="yes"/>
      <point x="392" y="1317"/>
      <point x="465" y="1275"/>
      <point x="479" y="1190" type="curve"/>
      <point x="585" y="1190" type="line"/>
      <point x="573" y="1349"/>
      <point x="444" y="1430"/>
      <point x="315" y="1430" type="curve" smooth="yes"/>
      <point x="185" y="1430"/>
      <point x="56" y="1348"/>
    </contour>
    <contour>
      <point x="310" y="1026" type="move" name="_top"/>
    </contour>
  </outline>
</glyph>
<glyph name="uni0312" format="1">
  <advance width="600"/>
  <unicode hex="0312"/>
  <outline>
    <contour>
      <point x="516" y="1681" type="line"/>
      <point x="345" y="1681" type="line"/>
      <point x="174" y="1177" type="line"/>
      <point x="406" y="1177" type="line"/>
    </contour>
    <contour>
      <point x="295" y="1026" type="move" name="_top"/>
    </contour>
  </outline>
</glyph>
<glyph name="uni0326" format="1">
  <advance width="540"/>
  <unicode hex="0326"/>
  <outline>
    <contour>
      <point x="99" y="-620" type="line"/>
      <point x="269" y="-620" type="line"/>
      <point x="441" y="-136" type="line"/>
      <point x="209" y="-136" type="line"/>
    </contour>
    <contour>
      <point x="334" y="0" type="move" name="_bot"/>
    </contour>
  </outline>
</glyph>
<glyph name="Delta" format="1">
  <advance width="1307"/>
  <unicode hex="0394"/>
  <outline>
    <contour>
      <point x="60" y="0" type="line"/>
      <point x="1247" y="0" type="line"/>
      <point x="1247" y="93" type="line"/>
      <point x="756" y="1456" type="line"/>
      <point x="572" y="1456" type="line"/>
      <point x="60" y="93" type="line"/>
    </contour>
    <contour>
      <point x="283" y="158" type="line"/>
      <point x="660" y="1222" type="line"/>
      <point x="1020" y="158" type="line"/>
    </contour>
  </outline>
</glyph>
<glyph name="Omega" format="1">
  <advance width="1603"/>
  <unicode hex="03A9"/>
  <outline>
    <contour>
      <point x="91" y="0" type="line"/>
      <point x="657" y="0" type="line"/>
      <point x="657" y="145" type="line"/>
      <point x="457" y="276"/>
      <point x="320" y="539"/>
      <point x="320" y="793" type="curve" smooth="yes"/>
      <point x="320" y="1098"/>
      <point x="514" y="1302"/>
      <point x="792" y="1302" type="curve" smooth="yes"/>
      <point x="1096" y="1302"/>
      <point x="1250" y="1067"/>
      <point x="1250" y="789" type="curve" smooth="yes"/>
      <point x="1250" y="534"/>
      <point x="1105" y="279"/>
      <point x="908" y="145" type="curve"/>
      <point x="908" y="0" type="line"/>
      <point x="1453" y="0" type="line"/>
      <point x="1469" y="158" type="line"/>
      <point x="1177" y="158" type="line"/>
      <point x="1330" y="291"/>
      <point x="1471" y="541"/>
      <point x="1471" y="804" type="curve" smooth="yes"/>
      <point x="1471" y="1189"/>
      <point x="1210" y="1482"/>
      <point x="795" y="1482" type="curve" smooth="yes"/>
      <point x="396" y="1482"/>
      <point x="98" y="1220"/>
      <point x="98" y="811" type="curve" smooth="yes"/>
      <point x="98" y="554"/>
      <point x="218" y="299"/>
      <point x="386" y="158" type="curve"/>
      <point x="68" y="158" type="line"/>
    </contour>
  </outline>
</glyph>
<glyph name="mu" format="1">
  <advance width="1222"/>
  <unicode hex="03BC"/>
  <outline>
    <contour>
      <point x="355" y="-262" type="line"/>
      <point x="355" y="16" type="line"/>
      <point x="408" y="-9"/>
      <point x="472" y="-22"/>
      <point x="548" y="-22" type="curve" smooth="yes"/>
      <point x="718" y="-22"/>
      <point x="810" y="81"/>
      <point x="848" y="159" type="curve"/>
      <point x="852" y="0" type="line"/>
      <point x="1064" y="0" type="line"/>
      <point x="1061" y="36"/>
      <point x="1054" y="190"/>
      <point x="1054" y="261" type="curve" smooth="yes"/>
      <point x="1054" y="1026" type="line"/>
      <point x="848" y="1026" type="line"/>
      <point x="848" y="415" type="line" smooth="yes"/>
      <point x="848" y="243"/>
      <point x="754" y="145"/>
      <point x="586" y="145" type="curve" smooth="yes"/>
      <point x="439" y="145"/>
      <point x="355" y="223"/>
      <point x="355" y="388" type="curve" smooth="yes"/>
      <point x="355" y="1026" type="line"/>
      <point x="150" y="1026" type="line"/>
      <point x="150" y="-263" type="line"/>
    </contour>
    <contour>
      <point x="597" y="1026" type="move" name="top"/>
    </contour>
    <contour>
      <point x="968" y="0" type="move" name="ogonek"/>
    </contour>
  </outline>
</glyph>
<glyph name="pi" format="1">
  <advance width="1288"/>
  <unicode hex="03C0"/>
  <outline>
    <contour>
      <point x="316" y="559"/>
      <point x="284" y="163"/>
      <point x="180" y="0" type="curve"/>
      <point x="386" y="0" type="line"/>
      <point x="484" y="146"/>
      <point x="518" y="871"/>
      <point x="518" y="871" type="curve"/>
      <point x="820" y="871" type="line"/>
      <point x="820" y="272" type="line" smooth="yes"/>
      <point x="820" y="67"/>
      <point x="903" y="-14"/>
      <point x="1057" y="-14" type="curve" smooth="yes"/>
      <point x="1095" y="-14"/>
      <point x="1147" y="-9"/>
      <point x="1194" y="0" type="curve"/>
      <point x="1194" y="163" type="line"/>
      <point x="1157" y="154"/>
      <point x="1130" y="150"/>
      <point x="1109" y="150" type="curve" smooth="yes"/>
      <point x="1013" y="150"/>
      <point x="1012" y="234"/>
      <point x="1012" y="293" type="curve" smooth="yes"/>
      <point x="1012" y="871" type="line"/>
      <point x="1214" y="871" type="line"/>
      <point x="1214" y="1026" type="line"/>
      <point x="356" y="1026" type="line" smooth="yes"/>
      <point x="202" y="1026"/>
      <point x="103" y="1003"/>
      <point x="54" y="963" type="curve"/>
      <point x="71" y="810" type="line"/>
      <point x="122" y="843"/>
      <point x="211" y="868"/>
      <point x="330" y="871" type="curve"/>
    </contour>
  </outline>
</glyph>
<glyph name="endash" format="1">
  <advance width="1112.300"/>
  <unicode hex="2013"/>
  <outline>
    <contour>
      <point x="7" y="481" type="line"/>
      <point x="1105" y="481" type="line"/>
      <point x="1105" y="641" type="line"/>
      <point x="7" y="641" type="line"/>
    </contour>
  </outline>
</glyph>
<glyph name="emdash" format="1">
  <advance width="2171"/>
  <unicode hex="2014"/>
  <outline>
    <contour>
      <point x="31" y="471" type="line"/>
      <point x="2140" y="471" type="line"/>
      <point x="2140" y="641" type="line"/>
      <point x="31" y="641" type="line"/>
    </contour>
  </outline>
</glyph>
<glyph name="uni2015" format="1">
  <advance width="4097.300"/>
  <unicode hex="2015"/>
  <outline>
    <contour>
      <point x="60" y="471" type="line"/>
      <point x="4037" y="471" type="line"/>
      <point x="4037" y="634" type="line"/>
      <point x="60" y="634" type="line"/>
    </contour>
  </outline>
</glyph>
<glyph name="quoteleft" format="1">
  <advance width="534.100"/>
  <unicode hex="2018"/>
  <outline>
    <contour>
      <point x="281" y="876" type="line"/>
      <point x="416" y="876" type="line"/>
      <point x="370" y="1456" type="line"/>
      <point x="122" y="1456" type="line"/>
    </contour>
  </outline>
</glyph>
<glyph name="quoteright" format="1">
  <advance width="563.250"/>
  <unicode hex="2019"/>
  <outline>
    <contour>
      <point x="118" y="877" type="line"/>
      <point x="269" y="877" type="line"/>
      <point x="441" y="1456" type="line"/>
      <point x="196" y="1456" type="line"/>
    </contour>
  </outline>
</glyph>
<glyph name="quotesinglbase" format="1">
  <advance width="623"/>
  <unicode hex="201A"/>
  <outline>
    <contour>
      <point x="142" y="-317" type="line"/>
      <point x="316" y="-317" type="line"/>
      <point x="472" y="231" type="line"/>
      <point x="252" y="231" type="line"/>
    </contour>
  </outline>
</glyph>
<glyph name="quotedblleft" format="1">
  <advance width="1024"/>
  <unicode hex="201C"/>
  <outline>
    <contour>
      <point x="154" y="876" type="line"/>
      <point x="388" y="876" type="line"/>
      <point x="498" y="1456" type="line"/>
      <point x="328" y="1456" type="line"/>
    </contour>
    <contour>
      <point x="560" y="876" type="line"/>
      <point x="788" y="876" type="line"/>
      <point x="897" y="1456" type="line"/>
      <point x="726" y="1456" type="line"/>
    </contour>
  </outline>
</glyph>
<glyph name="quotedblright" format="1">
  <advance width="1024"/>
  <unicode hex="201D"/>
  <outline>
    <contour>
      <point x="193" y="876" type="line"/>
      <point x="364" y="876" type="line"/>
      <point x="527" y="1456" type="line"/>
      <point x="299" y="1456" type="line"/>
    </contour>
    <contour>
      <point x="563" y="876" type="line"/>
      <point x="736" y="876" type="line"/>
      <point x="898" y="1456" type="line"/>
      <point x="672" y="1456" type="line"/>
    </contour>
  </outline>
</glyph>
<glyph name="quotedblbase" format="1">
  <advance width="1024"/>
  <unicode hex="201E"/>
  <outline>
    <contour>
      <point x="133" y="-230" type="line"/>
      <point x="310" y="-230" type="line"/>
      <point x="468" y="231" type="line"/>
      <point x="241" y="231" type="line"/>
    </contour>
    <contour>
      <point x="512" y="-230" type="line"/>
      <point x="686" y="-230" type="line"/>
      <point x="847" y="231" type="line"/>
      <point x="620" y="231" type="line"/>
    </contour>
  </outline>
</glyph>
<glyph name="dagger" format="1">
  <advance width="1022"/>
  <unicode hex="2020"/>
  <outline>
    <contour>
      <point x="443" y="0" type="line"/>
      <point x="606" y="0" type="line"/>
      <point x="606" y="882" type="line"/>
      <point x="949" y="882" type="line"/>
      <point x="949" y="1026" type="line"/>
      <point x="613" y="1026" type="line"/>
      <point x="613" y="1454" type="line"/>
      <point x="443" y="1454" type="line"/>
      <point x="443" y="1026" type="line"/>
      <point x="117" y="1026" type="line"/>
      <point x="117" y="882" type="line"/>
      <point x="443" y="882" type="line"/>
    </contour>
  </outline>
</glyph>
<glyph name="daggerdbl" format="1">
  <advance width="1114.750"/>
  <unicode hex="2021"/>
  <outline>
    <contour>
      <point x="136" y="1026" type="line"/>
      <point x="136" y="901" type="line"/>
      <point x="472" y="901" type="line"/>
      <point x="472" y="517" type="line"/>
      <point x="132" y="517" type="line"/>
      <point x="132" y="398" type="line"/>
      <point x="472" y="398" type="line"/>
      <point x="472" y="0" type="line"/>
      <point x="650" y="0" type="line"/>
      <point x="650" y="398" type="line"/>
      <point x="976" y="398" type="line"/>
      <point x="976" y="517" type="line"/>
      <point x="650" y="517" type="line"/>
      <point x="650" y="901" type="line"/>
      <point x="984" y="901" type="line"/>
      <point x="984" y="1026" type="line"/>
      <point x="650" y="1026" type="line"/>
      <point x="650" y="1456" type="line"/>
      <point x="472" y="1456" type="line"/>
      <point x="472" y="1026" type="line"/>
    </contour>
  </outline>
</glyph>
<glyph name="bullet" format="1">
  <advance width="989"/>
  <unicode hex="2022"/>
  <outline>
    <contour>
      <point x="503" y="372" type="curve" smooth="yes"/>
      <point x="691" y="372"/>
      <point x="837" y="514"/>
      <point x="837" y="688" type="curve" smooth="yes"/>
      <point x="837" y="860"/>
      <point x="695" y="1010"/>
      <point x="503" y="1010" type="curve" smooth="yes"/>
      <point x="317" y="1010"/>
      <point x="173" y="862"/>
      <point x="173" y="688" type="curve" smooth="yes"/>
      <point x="173" y="518"/>
      <point x="307" y="372"/>
    </contour>
  </outline>
</glyph>
<glyph name="ellipsis" format="1">
  <advance width="1620"/>
  <unicode hex="2026"/>
  <outline>
    <contour>
      <point x="137" y="-11" type="line"/>
      <point x="396" y="-11" type="line"/>
      <point x="396" y="229" type="line"/>
      <point x="137" y="229" type="line"/>
    </contour>
    <contour>
      <point x="668" y="-11" type="line"/>
      <point x="927" y="-11" type="line"/>
      <point x="926" y="229" type="line"/>
      <point x="668" y="229" type="line"/>
    </contour>
    <contour>
      <point x="1198" y="-11" type="line"/>
      <point x="1456" y="-11" type="line"/>
      <point x="1456" y="229" type="line"/>
      <point x="1198" y="229" type="line"/>
    </contour>
  </outline>
</glyph>
<glyph name="perthousand" format="1">
  <advance width="2629.300"/>
  <unicode hex="2030"/>
  <outline>
    <contour>
      <point x="2186" y="111" type="curve" smooth="yes"/>
      <point x="2062" y="111"/>
      <point x="2012" y="198"/>
      <point x="2012" y="350" type="curve" smooth="yes"/>
      <point x="2012" y="494"/>
      <point x="2058" y="593"/>
      <point x="2187" y="593" type="curve" smooth="yes"/>
      <point x="2315" y="593"/>
      <point x="2360" y="499"/>
      <point x="2360" y="352" type="curve" smooth="yes"/>
      <point x="2360" y="203"/>
      <point x="2310" y="111"/>
    </contour>
    <contour>
      <point x="2185" y="-24" type="curve" smooth="yes"/>
      <point x="2407" y="-24"/>
      <point x="2537" y="140"/>
      <point x="2537" y="352" type="curve" smooth="yes"/>
      <point x="2537" y="561"/>
      <point x="2412" y="727"/>
      <point x="2187" y="727" type="curve" smooth="yes"/>
      <point x="1964" y="727"/>
      <point x="1835" y="558"/>
      <point x="1835" y="351" type="curve" smooth="yes"/>
      <point x="1835" y="138"/>
      <point x="1962" y="-24"/>
    </contour>
    <component base="percent"/>
  </outline>
</glyph>
<glyph name="guilsinglleft" format="1">
  <advance width="698.150"/>
  <unicode hex="2039"/>
  <outline>
    <contour>
      <point x="411" y="165" type="line"/>
      <point x="584" y="165" type="line"/>
      <point x="347" y="541" type="line"/>
      <point x="592" y="918" type="line"/>
      <point x="417" y="918" type="line"/>
      <point x="138" y="541" type="line"/>
    </contour>
  </outline>
</glyph>
<glyph name="guilsinglright" format="1">
  <advance width="698.150"/>
  <unicode hex="203A"/>
  <outline>
    <contour>
      <point x="137" y="164" type="line"/>
      <point x="312" y="164" type="line"/>
      <point x="590" y="541" type="line"/>
      <point x="317" y="917" type="line"/>
      <point x="145" y="917" type="line"/>
      <point x="381" y="542" type="line"/>
    </contour>
  </outline>
</glyph>
<glyph name="fraction" format="1">
  <advance width="1092.750"/>
  <unicode hex="2044"/>
  <outline>
    <contour>
      <point x="30" y="0" type="line"/>
      <point x="229" y="0" type="line"/>
      <point x="1123" y="1456" type="line"/>
      <point x="925" y="1456" type="line"/>
    </contour>
  </outline>
</glyph>
<glyph name="foursuperior" format="1">
  <advance width="1234"/>
  <unicode hex="2074"/>
  <outline>
    <contour>
      <point x="704" y="655" type="line"/>
      <point x="842" y="655" type="line"/>
      <point x="842" y="844" type="line"/>
      <point x="955" y="844" type="line"/>
      <point x="955" y="959" type="line"/>
      <point x="843" y="959" type="line"/>
      <point x="843" y="1456" type="line"/>
      <point x="695" y="1456" type="line"/>
      <point x="328" y="942" type="line"/>
      <point x="328" y="844" type="line"/>
      <point x="704" y="844" type="line"/>
    </contour>
    <contour>
      <point x="480" y="959" type="line"/>
      <point x="702" y="1272" type="line"/>
      <point x="702" y="959" type="line"/>
    </contour>
  </outline>
</glyph>
<glyph name="Euro" format="1">
  <advance width="1517"/>
  <unicode hex="20AC"/>
  <outline>
    <contour>
      <point x="53" y="518" type="line"/>
      <point x="928" y="518" type="line"/>
      <point x="935" y="630" type="line"/>
      <point x="344" y="630" type="line"/>
      <point x="342" y="838" type="line"/>
      <point x="964" y="838" type="line"/>
      <point x="971" y="956" type="line"/>
      <point x="57" y="956" type="line"/>
      <point x="52" y="838" type="line"/>
      <point x="307" y="838" type="line"/>
      <point x="310" y="630" type="line"/>
      <point x="58" y="630" type="line"/>
    </contour>
    <component base="C" xOffset="115"/>
  </outline>
</glyph>
<glyph name="trademark" format="1">
  <advance width="1869"/>
  <unicode hex="2122"/>
  <outline>
    <contour>
      <point x="829" y="680" type="line"/>
      <point x="966" y="680" type="line"/>
      <point x="966" y="1218" type="line"/>
      <point x="1201" y="680" type="line"/>
      <point x="1300" y="680" type="line"/>
      <point x="1536" y="1225" type="line"/>
      <point x="1536" y="680" type="line"/>
      <point x="1676" y="680" type="line"/>
      <point x="1676" y="1455" type="line"/>
      <point x="1505" y="1455" type="line"/>
      <point x="1253" y="890" type="line"/>
      <point x="1004" y="1455" type="line"/>
      <point x="829" y="1455" type="line"/>
    </contour>
    <contour>
      <point x="314" y="680" type="line"/>
      <point x="472" y="680" type="line"/>
      <point x="472" y="1319" type="line"/>
      <point x="708" y="1319" type="line"/>
      <point x="708" y="1455" type="line"/>
      <point x="72" y="1455" type="line"/>
      <point x="72" y="1319" type="line"/>
      <point x="314" y="1319" type="line"/>
    </contour>
  </outline>
</glyph>
<glyph name="estimated" format="1">
  <advance width="1211"/>
  <unicode hex="212E"/>
  <outline>
    <contour>
      <point x="342" y="114"/>
      <point x="627" y="114" type="curve" smooth="yes"/>
      <point x="769" y="114"/>
      <point x="920" y="158"/>
      <point x="1056" y="247" type="curve"/>
      <point x="1029" y="299" type="line"/>
      <point x="904" y="218"/>
      <point x="784" y="176"/>
      <point x="682" y="176" type="curve" smooth="yes"/>
      <point x="482" y="176"/>
      <point x="324" y="333"/>
      <point x="326" y="655" type="curve"/>
      <point x="1069" y="655" type="line"/>
      <point x="1073" y="671"/>
      <point x="1074" y="689"/>
      <point x="1074" y="700" type="curve" smooth="yes"/>
      <point x="1074" y="1075"/>
      <point x="846" y="1199"/>
      <point x="611" y="1199" type="curve" smooth="yes"/>
      <point x="358" y="1199"/>
      <point x="96" y="1050"/>
      <point x="96" y="652" type="curve" smooth="yes"/>
      <point x="96" y="294"/>
    </contour>
    <contour>
      <point x="326" y="713" type="line"/>
      <point x="328" y="1036"/>
      <point x="479" y="1141"/>
      <point x="609" y="1141" type="curve" smooth="yes"/>
      <point x="739" y="1141"/>
      <point x="878" y="1037"/>
      <point x="878" y="713" type="curve"/>
    </contour>
  </outline>
</glyph>
<glyph name="partialdiff" format="1">
  <advance width="1162.650"/>
  <unicode hex="2202"/>
  <outline>
    <contour>
      <point x="485" y="-24" type="curve" smooth="yes"/>
      <point x="877" y="-24"/>
      <point x="1068" y="412"/>
      <point x="1068" y="838" type="curve" smooth="yes"/>
      <point x="1068" y="1306"/>
      <point x="880" y="1515"/>
      <point x="574" y="1515" type="curve" smooth="yes"/>
      <point x="456" y="1515"/>
      <point x="338" y="1475"/>
      <point x="254" y="1417" type="curve"/>
      <point x="267" y="1263" type="line"/>
      <point x="329" y="1301"/>
      <point x="435" y="1349"/>
      <point x="555" y="1349" type="curve" smooth="yes"/>
      <point x="733" y="1349"/>
      <point x="848" y="1193"/>
      <point x="854" y="941" type="curve"/>
      <point x="855" y="937"/>
      <point x="855" y="855"/>
      <point x="855" y="851" type="curve"/>
      <point x="825" y="918"/>
      <point x="728" y="1002"/>
      <point x="579" y="1002" type="curve" smooth="yes"/>
      <point x="296" y="1002"/>
      <point x="65" y="748"/>
      <point x="65" y="424" type="curve" smooth="yes"/>
      <point x="65" y="171"/>
      <point x="208" y="-24"/>
    </contour>
    <contour>
      <point x="486" y="144" type="curve" smooth="yes"/>
      <point x="356" y="144"/>
      <point x="275" y="254"/>
      <point x="275" y="420" type="curve" smooth="yes"/>
      <point x="275" y="644"/>
      <point x="415" y="838"/>
      <point x="596" y="838" type="curve" smooth="yes"/>
      <point x="711" y="838"/>
      <point x="801" y="747"/>
      <point x="838" y="650" type="curve"/>
      <point x="795" y="318"/>
      <point x="676" y="144"/>
    </contour>
  </outline>
</glyph>
<glyph name="product" format="1">
  <advance width="1568"/>
  <unicode hex="220F"/>
  <outline>
    <contour>
      <point x="271" y="-100" type="line"/>
      <point x="485" y="-100" type="line"/>
      <point x="485" y="1283" type="line"/>
      <point x="1073" y="1283" type="line"/>
      <point x="1073" y="-100" type="line"/>
      <point x="1292" y="-100" type="line"/>
      <point x="1292" y="1283" type="line"/>
      <point x="1431" y="1283" type="line"/>
      <point x="1431" y="1456" type="line"/>
      <point x="111" y="1456" type="line"/>
      <point x="111" y="1283" type="line"/>
      <point x="271" y="1283" type="line"/>
    </contour>
  </outline>
</glyph>
<glyph name="summation" format="1">
  <advance width="1215.850"/>
  <unicode hex="2211"/>
  <outline>
    <contour>
      <point x="139" y="-113" type="line"/>
      <point x="1104" y="-113" type="line"/>
      <point x="1104" y="57" type="line"/>
      <point x="391" y="57" type="line"/>
      <point x="853" y="683" type="line"/>
      <point x="413" y="1291" type="line"/>
      <point x="1062" y="1291" type="line"/>
      <point x="1062" y="1456" type="line"/>
      <point x="160" y="1456" type="line"/>
      <point x="160" y="1349" type="line"/>
      <point x="632" y="678" type="line"/>
      <point x="139" y="-5" type="line"/>
    </contour>
  </outline>
</glyph>
<glyph name="minus" format="1">
  <advance width="1356.600"/>
  <unicode hex="2212"/>
  <outline>
    <contour>
      <point x="183" y="392" type="line"/>
      <point x="1174" y="392" type="line"/>
      <point x="1174" y="560" type="line"/>
      <point x="183" y="560" type="line"/>
    </contour>
  </outline>
</glyph>
<glyph name="radical" format="1">
  <advance width="1314"/>
  <unicode hex="221A"/>
  <outline>
    <contour>
      <point x="675" y="-148" type="line"/>
      <point x="845" y="-148" type="line"/>
      <point x="1304" y="1575" type="line"/>
      <point x="1125" y="1575" type="line"/>
      <point x="744" y="151" type="line"/>
      <point x="490" y="835" type="line"/>
      <point x="158" y="779" type="line"/>
      <point x="190" y="634" type="line"/>
      <point x="190" y="634"/>
      <point x="355" y="663"/>
      <point x="357" y="663" type="curve"/>
    </contour>
  </outline>
</glyph>
<glyph name="infinity" format="1">
  <advance width="1732.500"/>
  <unicode hex="221E"/>
  <outline>
    <contour>
      <point x="463" y="234" type="curve" smooth="yes"/>
      <point x="625" y="234"/>
      <point x="751" y="336"/>
      <point x="867" y="487" type="curve"/>
      <point x="1000" y="315"/>
      <point x="1121" y="234"/>
      <point x="1270" y="234" type="curve" smooth="yes"/>
      <point x="1465" y="234"/>
      <point x="1634" y="383"/>
      <point x="1634" y="600" type="curve" smooth="yes"/>
      <point x="1634" y="809"/>
      <point x="1493" y="959"/>
      <point x="1272" y="959" type="curve" smooth="yes"/>
      <point x="1102" y="959"/>
      <point x="980" y="857"/>
      <point x="869" y="705" type="curve"/>
      <point x="751" y="861"/>
      <point x="623" y="959"/>
      <point x="458" y="959" type="curve" smooth="yes"/>
      <point x="267" y="959"/>
      <point x="96" y="808"/>
      <point x="96" y="619" type="curve" smooth="yes"/>
      <point x="96" y="411"/>
      <point x="245" y="234"/>
    </contour>
    <contour>
      <point x="473" y="370" type="curve" smooth="yes"/>
      <point x="332" y="370"/>
      <point x="246" y="482"/>
      <point x="246" y="597" type="curve" smooth="yes"/>
      <point x="246" y="720"/>
      <point x="322" y="824"/>
      <point x="463" y="824" type="curve" smooth="yes"/>
      <point x="600" y="824"/>
      <point x="706" y="724"/>
      <point x="796" y="594" type="curve"/>
      <point x="706" y="471"/>
      <point x="600" y="370"/>
    </contour>
    <contour>
      <point x="1272" y="370" type="curve" smooth="yes"/>
      <point x="1151" y="370"/>
      <point x="1060" y="449"/>
      <point x="943" y="597" type="curve"/>
      <point x="1024" y="714"/>
      <point x="1138" y="824"/>
      <point x="1267" y="824" type="curve" smooth="yes"/>
      <point x="1396" y="824"/>
      <point x="1481" y="732"/>
      <point x="1481" y="623" type="curve" smooth="yes"/>
      <point x="1481" y="481"/>
      <point x="1419" y="370"/>
    </contour>
  </outline>
</glyph>
<glyph name="integral" format="1">
  <advance width="772.200"/>
  <unicode hex="222B"/>
  <outline>
    <contour>
      <point x="200" y="-311" type="curve" smooth="yes"/>
      <point x="429" y="-311"/>
      <point x="510" y="-150"/>
      <point x="510" y="69" type="curve" smooth="yes"/>
      <point x="510" y="1201" type="line" smooth="yes"/>
      <point x="510" y="1326"/>
      <point x="531" y="1393"/>
      <point x="644" y="1393" type="curve" smooth="yes"/>
      <point x="701" y="1393"/>
      <point x="763" y="1374"/>
      <point x="763" y="1374" type="curve"/>
      <point x="763" y="1536" type="line"/>
      <point x="763" y="1536"/>
      <point x="701" y="1559"/>
      <point x="611" y="1559" type="curve" smooth="yes"/>
      <point x="383" y="1559"/>
      <point x="323" y="1397"/>
      <point x="323" y="1179" type="curve" smooth="yes"/>
      <point x="323" y="47" type="line" smooth="yes"/>
      <point x="323" y="-78"/>
      <point x="303" y="-145"/>
      <point x="192" y="-145" type="curve" smooth="yes"/>
      <point x="135" y="-145"/>
      <point x="46" y="-129"/>
      <point x="46" y="-129" type="curve"/>
      <point x="46" y="-288" type="line"/>
      <point x="46" y="-288"/>
      <point x="104" y="-311"/>
    </contour>
  </outline>
</glyph>
<glyph name="approxequal" format="1">
  <advance width="1351"/>
  <unicode hex="2248"/>
  <outline>
    <contour>
      <point x="329" y="657" type="line"/>
      <point x="358" y="754"/>
      <point x="405" y="821"/>
      <point x="481" y="821" type="curve" smooth="yes"/>
      <point x="529" y="821"/>
      <point x="583" y="792"/>
      <point x="644" y="756" type="curve" smooth="yes"/>
      <point x="752" y="692"/>
      <point x="827" y="662"/>
      <point x="916" y="662" type="curve" smooth="yes"/>
      <point x="1087" y="662"/>
      <point x="1185" y="771"/>
      <point x="1223" y="940" type="curve"/>
      <point x="1072" y="977" type="line"/>
      <point x="1035" y="871"/>
      <point x="989" y="812"/>
      <point x="921" y="812" type="curve" smooth="yes"/>
      <point x="880" y="812"/>
      <point x="818" y="837"/>
      <point x="737" y="884" type="curve" smooth="yes"/>
      <point x="646" y="938"/>
      <point x="572" y="971"/>
      <point x="484" y="971" type="curve" smooth="yes"/>
      <point x="321" y="971"/>
      <point x="207" y="863"/>
      <point x="169" y="692" type="curve"/>
    </contour>
    <contour>
      <point x="328" y="244" type="line"/>
      <point x="355" y="346"/>
      <point x="405" y="411"/>
      <point x="485" y="411" type="curve" smooth="yes"/>
      <point x="530" y="411"/>
      <point x="589" y="382"/>
      <point x="648" y="350" type="curve"/>
      <point x="753" y="288"/>
      <point x="836" y="253"/>
      <point x="917" y="253" type="curve" smooth="yes"/>
      <point x="1091" y="253"/>
      <point x="1185" y="365"/>
      <point x="1225" y="531" type="curve"/>
      <point x="1073" y="569" type="line"/>
      <point x="1035" y="465"/>
      <point x="991" y="404"/>
      <point x="922" y="404" type="curve" smooth="yes"/>
      <point x="879" y="404"/>
      <point x="819" y="445"/>
      <point x="747" y="477" type="curve"/>
      <point x="668" y="520"/>
      <point x="579" y="564"/>
      <point x="486" y="564" type="curve" smooth="yes"/>
      <point x="327" y="564"/>
      <point x="215" y="457"/>
      <point x="171" y="286" type="curve"/>
    </contour>
  </outline>
</glyph>
<glyph name="notequal" format="1">
  <advance width="1369"/>
  <unicode hex="2260"/>
  <outline>
    <contour>
      <point x="495" y="41" type="line"/>
      <point x="630" y="313" type="line"/>
      <point x="1217" y="313" type="line"/>
      <point x="1217" y="466" type="line"/>
      <point x="706" y="466" type="line"/>
      <point x="831" y="701" type="line"/>
      <point x="1217" y="701" type="line"/>
      <point x="1217" y="855" type="line"/>
      <point x="904" y="855" type="line"/>
      <point x="1025" y="1099" type="line"/>
      <point x="862" y="1123" type="line"/>
      <point x="731" y="855" type="line"/>
      <point x="172" y="855" type="line"/>
      <point x="172" y="701" type="line"/>
      <point x="657" y="701" type="line"/>
      <point x="535" y="466" type="line"/>
      <point x="172" y="466" type="line"/>
      <point x="172" y="313" type="line"/>
      <point x="457" y="313" type="line"/>
      <point x="337" y="65" type="line"/>
    </contour>
  </outline>
</glyph>
<glyph name="lessequal" format="1">
  <advance width="1350.350"/>
  <unicode hex="2264"/>
  <outline>
    <contour>
      <point x="1132" y="230" type="line"/>
      <point x="1132" y="417" type="line"/>
      <point x="425" y="748" type="line"/>
      <point x="1137" y="1069" type="line"/>
      <point x="1137" y="1259" type="line"/>
      <point x="161" y="800" type="line"/>
      <point x="161" y="698" type="line"/>
    </contour>
    <contour>
      <point x="146" y="0" type="line"/>
      <point x="1152" y="0" type="line"/>
      <point x="1152" y="143" type="line"/>
      <point x="146" y="143" type="line"/>
    </contour>
  </outline>
</glyph>
<glyph name="greaterequal" format="1">
  <advance width="1350.350"/>
  <unicode hex="2265"/>
  <outline>
    <contour>
      <point x="167" y="229" type="line"/>
      <point x="1142" y="688" type="line"/>
      <point x="1142" y="790" type="line"/>
      <point x="171" y="1259" type="line"/>
      <point x="171" y="1071" type="line"/>
      <point x="878" y="740" type="line"/>
      <point x="167" y="420" type="line"/>
    </contour>
    <contour>
      <point x="158" y="0" type="line"/>
      <point x="1164" y="0" type="line"/>
      <point x="1164" y="143" type="line"/>
      <point x="158" y="143" type="line"/>
    </contour>
  </outline>
</glyph>
<glyph name="lozenge" format="1">
  <advance width="1248"/>
  <unicode hex="25CA"/>
  <outline>
    <contour>
      <point x="537" y="-40" type="line"/>
      <point x="670" y="-40" type="line"/>
      <point x="1126" y="708" type="line"/>
      <point x="678" y="1456" type="line"/>
      <point x="544" y="1456" type="line"/>
      <point x="92" y="707" type="line"/>
    </contour>
    <contour>
      <point x="604" y="163" type="line"/>
      <point x="288" y="707" type="line"/>
      <point x="612" y="1242" type="line"/>
      <point x="928" y="707" type="line"/>
    </contour>
  </outline>
</glyph>
<glyph name="fi" format="1">
  <advance width="1237"/>
  <unicode hex="FB01"/>
  <outline>
    <contour>
      <point x="252" y="0" type="line"/>
      <point x="441" y="0" type="line"/>
      <point x="441" y="901" type="line"/>
      <point x="916" y="901" type="line"/>
      <point x="916" y="1026" type="line"/>
      <point x="441" y="1026" type="line"/>
      <point x="441" y="1118" type="line" smooth="yes"/>
      <point x="441" y="1291"/>
      <point x="459" y="1335"/>
      <point x="694" y="1335" type="curve"/>
      <point x="697" y="1482" type="line"/>
      <point x="649" y="1482" type="line" smooth="yes"/>
      <point x="295" y="1482"/>
      <point x="252" y="1364"/>
      <point x="252" y="1101" type="curve" smooth="yes"/>
      <point x="252" y="1026" type="line"/>
      <point x="69" y="1026" type="line"/>
      <point x="69" y="901" type="line"/>
      <point x="252" y="901" type="line"/>
    </contour>
    <component base="i" xOffset="715"/>
  </outline>
</glyph>
<glyph name="fl" format="1">
  <advance width="1274"/>
  <unicode hex="FB02"/>
  <outline>
    <contour>
      <point x="266" y="0" type="line"/>
      <point x="454" y="0" type="line"/>
      <point x="454" y="901" type="line"/>
      <point x="698" y="901" type="line"/>
      <point x="698" y="1026" type="line"/>
      <point x="454" y="1026" type="line"/>
      <point x="454" y="1125" type="line" smooth="yes"/>
      <point x="454" y="1273"/>
      <point x="497" y="1319"/>
      <point x="738" y="1319" type="curve" smooth="yes"/>
      <point x="921" y="1319" type="line"/>
      <point x="921" y="0" type="line"/>
      <point x="1110" y="0" type="line"/>
      <point x="1110" y="1465" type="line"/>
      <point x="723" y="1465" type="line" smooth="yes"/>
      <point x="351" y="1465"/>
      <point x="266" y="1358"/>
      <point x="266" y="1093" type="curve" smooth="yes"/>
      <point x="266" y="1026" type="line"/>
      <point x="69" y="1026" type="line"/>
      <point x="69" y="901" type="line"/>
      <point x="266" y="901" type="line"/>
    </contour>
  </outline>
</glyph>
<glyph name="caron.alt" format="1">
  <advance width="600"/>
  <outline>
    <contour>
      <point x="325" y="972" type="line"/>
      <point x="495" y="972" type="line"/>
      <point x="667" y="1456" type="line"/>
      <point x="435" y="1456" type="line"/>
    </contour>
    <contour>
      <point x="40" y="1026" type="move" name="_caron.alt"/>
    </contour>
  </outline>
</glyph>
<glyph name="f_f" format="1">
  <advance width="1385"/>
  <outline>
    <contour>
      <point x="1093" y="901" type="line"/>
      <point x="1337" y="901" type="line"/>
      <point x="1337" y="1026" type="line"/>
      <point x="1093" y="1026" type="line"/>
      <point x="1093" y="1118" type="line" smooth="yes"/>
      <point x="1093" y="1291"/>
      <point x="1111" y="1335"/>
      <point x="1346" y="1335" type="curve"/>
      <point x="1349" y="1482" type="line"/>
      <point x="1301" y="1482" type="line" smooth="yes"/>
      <point x="947" y="1482"/>
      <point x="904" y="1364"/>
      <point x="904" y="1101" type="curve" smooth="yes"/>
      <point x="904" y="1026" type="line"/>
      <point x="441" y="1026" type="line"/>
      <point x="441" y="1118" type="line" smooth="yes"/>
      <point x="441" y="1291"/>
      <point x="459" y="1335"/>
      <point x="694" y="1335" type="curve"/>
      <point x="697" y="1482" type="line"/>
      <point x="649" y="1482" type="line" smooth="yes"/>
      <point x="295" y="1482"/>
      <point x="252" y="1364"/>
      <point x="252" y="1101" type="curve" smooth="yes"/>
      <point x="252" y="1026" type="line"/>
      <point x="69" y="1026" type="line"/>
      <point x="69" y="901" type="line"/>
      <point x="252" y="901" type="line"/>
      <point x="252" y="0" type="line"/>
      <point x="441" y="0" type="line"/>
      <point x="441" y="901" type="line"/>
      <point x="904" y="901" type="line"/>
      <point x="904" y="0" type="line"/>
      <point x="1093" y="0" type="line"/>
    </contour>
  </outline>
</glyph>
<glyph name="f_f_i" format="1">
  <advance width="1863"/>
  <outline>
    <contour>
      <point x="1697" y="0" type="line"/>
      <point x="1697" y="1026" type="line"/>
      <point x="1071" y="1026" type="line"/>
      <point x="1071" y="1117" type="line" smooth="yes"/>
      <point x="1071" y="1290"/>
      <point x="1087" y="1334"/>
      <point x="1322" y="1334" type="curve"/>
      <point x="1326" y="1481" type="line"/>
      <point x="1278" y="1481" type="line" smooth="yes"/>
      <point x="924" y="1481"/>
      <point x="882" y="1363"/>
      <point x="882" y="1100" type="curve" smooth="yes"/>
      <point x="882" y="1026" type="line"/>
      <point x="441" y="1026" type="line"/>
      <point x="441" y="1117" type="line" smooth="yes"/>
      <point x="441" y="1290"/>
      <point x="459" y="1334"/>
      <point x="694" y="1334" type="curve"/>
      <point x="697" y="1481" type="line"/>
      <point x="649" y="1481" type="line" smooth="yes"/>
      <point x="295" y="1481"/>
      <point x="252" y="1363"/>
      <point x="252" y="1100" type="curve" smooth="yes"/>
      <point x="252" y="1026" type="line"/>
      <point x="69" y="1026" type="line"/>
      <point x="69" y="901" type="line"/>
      <point x="252" y="901" type="line"/>
      <point x="252" y="0" type="line"/>
      <point x="441" y="0" type="line"/>
      <point x="441" y="901" type="line"/>
      <point x="882" y="901" type="line"/>
      <point x="882" y="0" type="line"/>
      <point x="1071" y="0" type="line"/>
      <point x="1071" y="901" type="line"/>
      <point x="1510" y="901" type="line"/>
      <point x="1510" y="0" type="line"/>
    </contour>
    <contour>
      <point x="1697" y="1282" type="line"/>
      <point x="1697" y="1456" type="line"/>
      <point x="1510" y="1456" type="line"/>
      <point x="1510" y="1282" type="line"/>
    </contour>
  </outline>
</glyph>
<glyph name="f_f_l" format="1">
  <advance width="1942"/>
  <outline>
    <contour>
      <point x="254" y="0" type="line"/>
      <point x="460" y="0" type="line"/>
      <point x="460" y="901" type="line"/>
      <point x="700" y="901" type="line"/>
      <point x="700" y="1026" type="line"/>
      <point x="460" y="1026" type="line"/>
      <point x="460" y="1104" type="line" smooth="yes"/>
      <point x="460" y="1285"/>
      <point x="478" y="1323"/>
      <point x="706" y="1323" type="curve"/>
      <point x="711" y="1482" type="line"/>
      <point x="661" y="1482" type="line" smooth="yes"/>
      <point x="295" y="1482"/>
      <point x="254" y="1362"/>
      <point x="254" y="1091" type="curve" smooth="yes"/>
      <point x="254" y="1026" type="line"/>
      <point x="69" y="1026" type="line"/>
      <point x="69" y="901" type="line"/>
      <point x="254" y="901" type="line"/>
    </contour>
    <component base="fl" xOffset="576"/>
    <contour>
      <point x="377" y="1456" type="move" name="top"/>
    </contour>
  </outline>
</glyph>
